<svg width="40" height="40" viewBox="0 0 40 40" fill="none" xmlns="http://www.w3.org/2000/svg">
<path d="M30 1.6665C30.9204 1.6665 31.6666 2.4127 31.6666 3.33317V11.6665C31.6666 12.3393 31.2621 12.9462 30.641 13.205L22.2807 16.6882L24.5333 21.2565L29.6643 22.0025C31.6416 22.2899 32.4737 24.6434 31.2001 26.1078L31.0498 26.2667L27.3366 29.8832L28.2147 34.9924C28.5525 36.9617 26.5714 38.4801 24.7849 37.7216L24.5873 37.6279L20 35.2148L15.4125 37.628C13.644 38.5575 11.5877 37.1427 11.7571 35.2093L11.7852 34.9924L12.6616 29.8832L8.95024 26.2668C7.5192 24.8722 8.22952 22.4791 10.1207 22.0428L10.3356 22.0025L15.465 21.2565L17.7174 16.6882L9.35895 13.205C8.79997 12.9721 8.41638 12.4572 8.34525 11.8661L8.3333 11.6665V3.33317C8.3333 2.4127 9.0795 1.6665 9.99997 1.6665H30ZM20 19.5982L18.2597 23.1253C17.8955 23.8632 17.1915 24.3747 16.3773 24.4929L12.485 25.0565L15.3016 27.8031C15.8255 28.3136 16.0962 29.0243 16.0521 29.7455L16.0207 30.016L15.355 33.8915L18.8368 32.0617C19.4841 31.7215 20.2434 31.6837 20.9157 31.9484L21.1633 32.0618L24.6433 33.8898L23.9793 30.0163C23.8555 29.2953 24.0542 28.5612 24.5138 28.0036L24.6982 27.8032L27.5133 25.0565L23.6228 24.493C22.8899 24.3865 22.2464 23.9616 21.8595 23.3397L21.7402 23.1253L20 19.5982ZM28.3333 4.99984H11.6666V10.5548L20 14.0265L28.3333 10.5532V4.99984Z" fill="#3F69D2"/>
</svg>
