<svg width="16" height="17" viewBox="0 0 16 17" fill="none" xmlns="http://www.w3.org/2000/svg">
<path d="M9.7797 7.86859L7.1197 10.7099C6.89405 10.962 6.57291 11.1078 6.23458 11.1118C5.89625 11.1157 5.57181 10.9774 5.34037 10.7306C4.82909 10.1968 4.83768 9.35248 5.3597 8.82925L8.93237 5.00859C9.32644 4.56986 9.88734 4.31777 10.4771 4.31434C11.0668 4.31091 11.6306 4.55647 12.0297 4.99059C12.8811 5.93149 12.8751 7.36625 12.0157 8.29992L8.2277 12.3473C7.6886 12.8884 6.95068 13.184 6.1871 13.1647C5.42351 13.1454 4.70146 12.8129 4.19037 12.2453C3.02214 10.9275 3.05104 8.93652 4.25703 7.65325L7.83503 3.83325" stroke="#B0B0C0" stroke-linecap="round" stroke-linejoin="round"/>
</svg>
