<svg width="20" height="20" viewBox="0 0 20 20" fill="none" xmlns="http://www.w3.org/2000/svg">
<path fill-rule="evenodd" clip-rule="evenodd" d="M6.07748 12.2558C6.23376 12.4121 6.44568 12.4998 6.66665 12.4998C6.88762 12.4998 7.09954 12.4121 7.25582 12.2558L9.99999 9.51168L12.7442 12.2558C12.821 12.3354 12.913 12.3989 13.0146 12.4426C13.1163 12.4863 13.2257 12.5093 13.3363 12.5102C13.447 12.5112 13.5567 12.4901 13.6591 12.4482C13.7615 12.4063 13.8546 12.3444 13.9328 12.2662C14.0111 12.1879 14.0729 12.0949 14.1148 11.9925C14.1567 11.8901 14.1778 11.7803 14.1769 11.6697C14.1759 11.559 14.1529 11.4497 14.1092 11.348C14.0656 11.2463 14.0021 11.1544 13.9225 11.0775L10.5892 7.74418C10.4329 7.58795 10.221 7.50019 9.99999 7.50019C9.77902 7.50019 9.56709 7.58795 9.41082 7.74418L6.07748 11.0775C5.92126 11.2338 5.8335 11.4457 5.8335 11.6667C5.8335 11.8877 5.92126 12.0996 6.07748 12.2558V12.2558Z" fill="#D2D2E6"/>
</svg>
