<svg width="24" height="24" viewBox="0 0 24 24" fill="none" xmlns="http://www.w3.org/2000/svg">
<path fill-rule="evenodd" clip-rule="evenodd" d="M17.6792 6.36553C18.0693 6.75657 18.0684 7.38973 17.6774 7.77975L13.4301 12.0159L17.6569 16.2426C18.0474 16.6332 18.0474 17.2663 17.6569 17.6569C17.2663 18.0474 16.6332 18.0474 16.2426 17.6569L12.014 13.4283L7.76492 17.6663C7.37388 18.0563 6.74072 18.0554 6.3507 17.6644C5.96069 17.2734 5.96152 16.6402 6.35256 16.2502L10.5998 12.014L6.34315 7.75736C5.95262 7.36683 5.95262 6.73367 6.34315 6.34315C6.73367 5.95262 7.36684 5.95262 7.75736 6.34315L12.0159 10.6017L16.265 6.36368C16.6561 5.97367 17.2892 5.9745 17.6792 6.36553Z" fill="#F8FAFE"/>
</svg>
