<svg width="32" height="32" viewBox="0 0 32 32" fill="none" xmlns="http://www.w3.org/2000/svg">
<path d="M9.24203 20.7539C9.65591 20.7373 9.97799 20.3883 9.96141 19.9745C9.94483 19.5606 9.59588 19.2385 9.182 19.2551L9.24203 20.7539ZM5.33334 16.4485L4.58371 16.425C4.5831 16.4445 4.58325 16.464 4.58416 16.4835L5.33334 16.4485ZM8.24401 13.0045L8.39215 13.7397C8.74222 13.6692 8.99401 13.3616 8.99401 13.0045H8.24401ZM8.24401 12.8925L7.49484 12.8572C7.49429 12.8689 7.49401 12.8807 7.49401 12.8925L8.24401 12.8925ZM12.1213 9.33781L12.0916 10.0872C12.102 10.0876 12.1124 10.0878 12.1228 10.0878L12.1213 9.33781ZM13.544 9.58448L13.2902 10.2902C13.6446 10.4177 14.0386 10.2625 14.2109 9.9276L13.544 9.58448ZM18.424 6.67115L18.4096 7.42101C18.4248 7.4213 18.44 7.42113 18.4552 7.4205L18.424 6.67115ZM23.7573 11.5605L24.5073 11.5598C24.5073 11.5487 24.5071 11.5377 24.5066 11.5266L23.7573 11.5605ZM23.536 12.9605L22.8228 12.7285C22.7543 12.939 22.7823 13.169 22.8993 13.3569C23.0163 13.5448 23.2103 13.6714 23.4294 13.7029L23.536 12.9605ZM26.6667 16.4485L27.4159 16.4835C27.4168 16.4632 27.4169 16.4428 27.4162 16.4224L26.6667 16.4485ZM22.818 19.2551C22.4041 19.2385 22.0552 19.5606 22.0386 19.9745C22.022 20.3883 22.3441 20.7373 22.758 20.7539L22.818 19.2551ZM15.25 25.3378C15.25 25.7521 15.5858 26.0878 16 26.0878C16.4142 26.0878 16.75 25.7521 16.75 25.3378H15.25ZM16.75 17.3378C16.75 16.9236 16.4142 16.5878 16 16.5878C15.5858 16.5878 15.25 16.9236 15.25 17.3378H16.75ZM15.4697 24.8075C15.1768 25.1004 15.1768 25.5753 15.4697 25.8682C15.7626 26.1611 16.2374 26.1611 16.5303 25.8682L15.4697 24.8075ZM19.197 23.2015C19.4899 22.9086 19.4899 22.4337 19.197 22.1409C18.9041 21.848 18.4292 21.848 18.1363 22.1409L19.197 23.2015ZM15.4697 25.8682C15.7626 26.1611 16.2374 26.1611 16.5303 25.8682C16.8232 25.5753 16.8232 25.1004 16.5303 24.8075L15.4697 25.8682ZM13.8637 22.1409C13.5708 21.848 13.0959 21.848 12.803 22.1409C12.5101 22.4337 12.5101 22.9086 12.803 23.2015L13.8637 22.1409ZM9.21201 20.0045L9.182 19.2551C7.54344 19.3207 6.15911 18.0515 6.08253 16.4135L5.33334 16.4485L4.58416 16.4835C4.69925 18.9452 6.77962 20.8525 9.24203 20.7539L9.21201 20.0045ZM5.33334 16.4485L6.08297 16.472C6.12491 15.1355 7.08138 14.0038 8.39215 13.7397L8.24401 13.0045L8.09587 12.2693C6.10224 12.671 4.6475 14.3923 4.58371 16.425L5.33334 16.4485ZM8.24401 13.0045H8.99401C8.99401 13.0044 8.99401 13.0043 8.99401 13.0043C8.99401 13.0042 8.99401 13.0041 8.99401 13.004C8.99401 13.004 8.99401 13.0039 8.99401 13.0038C8.99401 13.0038 8.99401 13.0037 8.99401 13.0036C8.99401 13.0035 8.99401 13.0035 8.99401 13.0034C8.99401 13.0033 8.99401 13.0032 8.99401 13.0032C8.99401 13.0031 8.99401 13.003 8.99401 13.0029C8.99401 13.0029 8.99401 13.0028 8.99401 13.0027C8.99401 13.0027 8.99401 13.0026 8.99401 13.0025C8.99401 13.0024 8.99401 13.0024 8.99401 13.0023C8.99401 13.0022 8.99401 13.0021 8.99401 13.0021C8.99401 13.002 8.99401 13.0019 8.99401 13.0019C8.99401 13.0018 8.99401 13.0017 8.99401 13.0016C8.99401 13.0016 8.99401 13.0015 8.99401 13.0014C8.99401 13.0013 8.99401 13.0013 8.99401 13.0012C8.99401 13.0011 8.99401 13.0011 8.99401 13.001C8.99401 13.0009 8.99401 13.0008 8.99401 13.0008C8.99401 13.0007 8.99401 13.0006 8.99401 13.0005C8.99401 13.0005 8.99401 13.0004 8.99401 13.0003C8.99401 13.0003 8.99401 13.0002 8.99401 13.0001C8.99401 13 8.99401 13 8.99401 12.9999C8.99401 12.9998 8.99401 12.9997 8.99401 12.9997C8.99401 12.9996 8.99401 12.9995 8.99401 12.9994C8.99401 12.9994 8.99401 12.9993 8.99401 12.9992C8.99401 12.9992 8.99401 12.9991 8.99401 12.999C8.99401 12.9989 8.99401 12.9989 8.99401 12.9988C8.99401 12.9987 8.99401 12.9986 8.99401 12.9986C8.99401 12.9985 8.99401 12.9984 8.99401 12.9984C8.99401 12.9983 8.99401 12.9982 8.99401 12.9981C8.99401 12.9981 8.99401 12.998 8.99401 12.9979C8.99401 12.9978 8.99401 12.9978 8.99401 12.9977C8.99401 12.9976 8.99401 12.9976 8.99401 12.9975C8.99401 12.9974 8.99401 12.9973 8.99401 12.9973C8.99401 12.9972 8.99401 12.9971 8.99401 12.997C8.99401 12.997 8.99401 12.9969 8.99401 12.9968C8.99401 12.9968 8.99401 12.9967 8.99401 12.9966C8.99401 12.9965 8.99401 12.9965 8.99401 12.9964C8.99401 12.9963 8.99401 12.9962 8.99401 12.9962C8.99401 12.9961 8.99401 12.996 8.99401 12.9959C8.99401 12.9959 8.99401 12.9958 8.99401 12.9957C8.99401 12.9957 8.99401 12.9956 8.99401 12.9955C8.99401 12.9954 8.99401 12.9954 8.99401 12.9953C8.99401 12.9952 8.99401 12.9951 8.99401 12.9951C8.99401 12.995 8.99401 12.9949 8.99401 12.9949C8.99401 12.9948 8.99401 12.9947 8.99401 12.9946C8.99401 12.9946 8.99401 12.9945 8.99401 12.9944C8.99401 12.9943 8.99401 12.9943 8.99401 12.9942C8.99401 12.9941 8.99401 12.9941 8.99401 12.994C8.99401 12.9939 8.99401 12.9938 8.99401 12.9938C8.99401 12.9937 8.99401 12.9936 8.99401 12.9935C8.99401 12.9935 8.99401 12.9934 8.99401 12.9933C8.99401 12.9933 8.99401 12.9932 8.99401 12.9931C8.99401 12.993 8.99401 12.993 8.99401 12.9929C8.99401 12.9928 8.99401 12.9927 8.99401 12.9927C8.99401 12.9926 8.99401 12.9925 8.99401 12.9924C8.99401 12.9924 8.99401 12.9923 8.99401 12.9922C8.99401 12.9922 8.99401 12.9921 8.99401 12.992C8.99401 12.9919 8.99401 12.9919 8.99401 12.9918C8.99401 12.9917 8.99401 12.9916 8.99401 12.9916C8.99401 12.9915 8.99401 12.9914 8.99401 12.9914C8.99401 12.9913 8.99401 12.9912 8.99401 12.9911C8.99401 12.9911 8.99401 12.991 8.99401 12.9909C8.99401 12.9908 8.99401 12.9908 8.99401 12.9907C8.99401 12.9906 8.99401 12.9906 8.99401 12.9905C8.99401 12.9904 8.99401 12.9903 8.99401 12.9903C8.99401 12.9902 8.99401 12.9901 8.99401 12.99C8.99401 12.99 8.99401 12.9899 8.99401 12.9898C8.99401 12.9898 8.99401 12.9897 8.99401 12.9896C8.99401 12.9895 8.99401 12.9895 8.99401 12.9894C8.99401 12.9893 8.99401 12.9892 8.99401 12.9892C8.99401 12.9891 8.99401 12.989 8.99401 12.9889C8.99401 12.9889 8.99401 12.9888 8.99401 12.9887C8.99401 12.9887 8.99401 12.9886 8.99401 12.9885C8.99401 12.9884 8.99401 12.9884 8.99401 12.9883C8.99401 12.9882 8.99401 12.9881 8.99401 12.9881C8.99401 12.988 8.99401 12.9879 8.99401 12.9879C8.99401 12.9878 8.99401 12.9877 8.99401 12.9876C8.99401 12.9876 8.99401 12.9875 8.99401 12.9874C8.99401 12.9873 8.99401 12.9873 8.99401 12.9872C8.99401 12.9871 8.99401 12.9871 8.99401 12.987C8.99401 12.9869 8.99401 12.9868 8.99401 12.9868C8.99401 12.9867 8.99401 12.9866 8.99401 12.9865C8.99401 12.9865 8.99401 12.9864 8.99401 12.9863C8.99401 12.9863 8.99401 12.9862 8.99401 12.9861C8.99401 12.986 8.99401 12.986 8.99401 12.9859C8.99401 12.9858 8.99401 12.9857 8.99401 12.9857C8.99401 12.9856 8.99401 12.9855 8.99401 12.9854C8.99401 12.9854 8.99401 12.9853 8.99401 12.9852C8.99401 12.9852 8.99401 12.9851 8.99401 12.985C8.99401 12.9849 8.99401 12.9849 8.99401 12.9848C8.99401 12.9847 8.99401 12.9846 8.99401 12.9846C8.99401 12.9845 8.99401 12.9844 8.99401 12.9844C8.99401 12.9843 8.99401 12.9842 8.99401 12.9841C8.99401 12.9841 8.99401 12.984 8.99401 12.9839C8.99401 12.9838 8.99401 12.9838 8.99401 12.9837C8.99401 12.9836 8.99401 12.9836 8.99401 12.9835C8.99401 12.9834 8.99401 12.9833 8.99401 12.9833C8.99401 12.9832 8.99401 12.9831 8.99401 12.983C8.99401 12.983 8.99401 12.9829 8.99401 12.9828C8.99401 12.9828 8.99401 12.9827 8.99401 12.9826C8.99401 12.9825 8.99401 12.9825 8.99401 12.9824C8.99401 12.9823 8.99401 12.9822 8.99401 12.9822C8.99401 12.9821 8.99401 12.982 8.99401 12.9819C8.99401 12.9819 8.99401 12.9818 8.99401 12.9817C8.99401 12.9817 8.99401 12.9816 8.99401 12.9815C8.99401 12.9814 8.99401 12.9814 8.99401 12.9813C8.99401 12.9812 8.99401 12.9811 8.99401 12.9811C8.99401 12.981 8.99401 12.9809 8.99401 12.9809C8.99401 12.9808 8.99401 12.9807 8.99401 12.9806C8.99401 12.9806 8.99401 12.9805 8.99401 12.9804C8.99401 12.9803 8.99401 12.9803 8.99401 12.9802C8.99401 12.9801 8.99401 12.9801 8.99401 12.98C8.99401 12.9799 8.99401 12.9798 8.99401 12.9798C8.99401 12.9797 8.99401 12.9796 8.99401 12.9795C8.99401 12.9795 8.99401 12.9794 8.99401 12.9793C8.99401 12.9793 8.99401 12.9792 8.99401 12.9791C8.99401 12.979 8.99401 12.979 8.99401 12.9789C8.99401 12.9788 8.99401 12.9787 8.99401 12.9787C8.99401 12.9786 8.99401 12.9785 8.99401 12.9784C8.99401 12.9784 8.99401 12.9783 8.99401 12.9782C8.99401 12.9782 8.99401 12.9781 8.99401 12.978C8.99401 12.9779 8.99401 12.9779 8.99401 12.9778C8.99401 12.9777 8.99401 12.9776 8.99401 12.9776C8.99401 12.9775 8.99401 12.9774 8.99401 12.9774C8.99401 12.9773 8.99401 12.9772 8.99401 12.9771C8.99401 12.9771 8.99401 12.977 8.99401 12.9769C8.99401 12.9768 8.99401 12.9768 8.99401 12.9767C8.99401 12.9766 8.99401 12.9766 8.99401 12.9765C8.99401 12.9764 8.99401 12.9763 8.99401 12.9763C8.99401 12.9762 8.99401 12.9761 8.99401 12.976C8.99401 12.976 8.99401 12.9759 8.99401 12.9758C8.99401 12.9758 8.99401 12.9757 8.99401 12.9756C8.99401 12.9755 8.99401 12.9755 8.99401 12.9754C8.99401 12.9753 8.99401 12.9752 8.99401 12.9752C8.99401 12.9751 8.99401 12.975 8.99401 12.9749C8.99401 12.9749 8.99401 12.9748 8.99401 12.9747C8.99401 12.9747 8.99401 12.9746 8.99401 12.9745C8.99401 12.9744 8.99401 12.9744 8.99401 12.9743C8.99401 12.9742 8.99401 12.9741 8.99401 12.9741C8.99401 12.974 8.99401 12.9739 8.99401 12.9739C8.99401 12.9738 8.99401 12.9737 8.99401 12.9736C8.99401 12.9736 8.99401 12.9735 8.99401 12.9734C8.99401 12.9733 8.99401 12.9733 8.99401 12.9732C8.99401 12.9731 8.99401 12.9731 8.99401 12.973C8.99401 12.9729 8.99401 12.9728 8.99401 12.9728C8.99401 12.9727 8.99401 12.9726 8.99401 12.9725C8.99401 12.9725 8.99401 12.9724 8.99401 12.9723C8.99401 12.9723 8.99401 12.9722 8.99401 12.9721C8.99401 12.972 8.99401 12.972 8.99401 12.9719C8.99401 12.9718 8.99401 12.9717 8.99401 12.9717C8.99401 12.9716 8.99401 12.9715 8.99401 12.9714C8.99401 12.9714 8.99401 12.9713 8.99401 12.9712C8.99401 12.9712 8.99401 12.9711 8.99401 12.971C8.99401 12.9709 8.99401 12.9709 8.99401 12.9708C8.99401 12.9707 8.99401 12.9706 8.99401 12.9706C8.99401 12.9705 8.99401 12.9704 8.99401 12.9704C8.99401 12.9703 8.99401 12.9702 8.99401 12.9701C8.99401 12.9701 8.99401 12.97 8.99401 12.9699C8.99401 12.9698 8.99401 12.9698 8.99401 12.9697C8.99401 12.9696 8.99401 12.9696 8.99401 12.9695C8.99401 12.9694 8.99401 12.9693 8.99401 12.9693C8.99401 12.9692 8.99401 12.9691 8.99401 12.969C8.99401 12.969 8.99401 12.9689 8.99401 12.9688C8.99401 12.9688 8.99401 12.9687 8.99401 12.9686C8.99401 12.9685 8.99401 12.9685 8.99401 12.9684C8.99401 12.9683 8.99401 12.9682 8.99401 12.9682C8.99401 12.9681 8.99401 12.968 8.99401 12.9679C8.99401 12.9679 8.99401 12.9678 8.99401 12.9677C8.99401 12.9677 8.99401 12.9676 8.99401 12.9675C8.99401 12.9674 8.99401 12.9674 8.99401 12.9673C8.99401 12.9672 8.99401 12.9671 8.99401 12.9671C8.99401 12.967 8.99401 12.9669 8.99401 12.9669C8.99401 12.9668 8.99401 12.9667 8.99401 12.9666C8.99401 12.9666 8.99401 12.9665 8.99401 12.9664C8.99401 12.9663 8.99401 12.9663 8.99401 12.9662C8.99401 12.9661 8.99401 12.9661 8.99401 12.966C8.99401 12.9659 8.99401 12.9658 8.99401 12.9658C8.99401 12.9657 8.99401 12.9656 8.99401 12.9655C8.99401 12.9655 8.99401 12.9654 8.99401 12.9653C8.99401 12.9653 8.99401 12.9652 8.99401 12.9651C8.99401 12.965 8.99401 12.965 8.99401 12.9649C8.99401 12.9648 8.99401 12.9647 8.99401 12.9647C8.99401 12.9646 8.99401 12.9645 8.99401 12.9644C8.99401 12.9644 8.99401 12.9643 8.99401 12.9642C8.99401 12.9642 8.99401 12.9641 8.99401 12.964C8.99401 12.9639 8.99401 12.9639 8.99401 12.9638C8.99401 12.9637 8.99401 12.9636 8.99401 12.9636C8.99401 12.9635 8.99401 12.9634 8.99401 12.9634C8.99401 12.9633 8.99401 12.9632 8.99401 12.9631C8.99401 12.9631 8.99401 12.963 8.99401 12.9629C8.99401 12.9628 8.99401 12.9628 8.99401 12.9627C8.99401 12.9626 8.99401 12.9626 8.99401 12.9625C8.99401 12.9624 8.99401 12.9623 8.99401 12.9623C8.99401 12.9622 8.99401 12.9621 8.99401 12.962C8.99401 12.962 8.99401 12.9619 8.99401 12.9618C8.99401 12.9618 8.99401 12.9617 8.99401 12.9616C8.99401 12.9615 8.99401 12.9615 8.99401 12.9614C8.99401 12.9613 8.99401 12.9612 8.99401 12.9612C8.99401 12.9611 8.99401 12.961 8.99401 12.9609C8.99401 12.9609 8.99401 12.9608 8.99401 12.9607C8.99401 12.9607 8.99401 12.9606 8.99401 12.9605C8.99401 12.9604 8.99401 12.9604 8.99401 12.9603C8.99401 12.9602 8.99401 12.9601 8.99401 12.9601C8.99401 12.96 8.99401 12.9599 8.99401 12.9599C8.99401 12.9598 8.99401 12.9597 8.99401 12.9596C8.99401 12.9596 8.99401 12.9595 8.99401 12.9594C8.99401 12.9593 8.99401 12.9593 8.99401 12.9592C8.99401 12.9591 8.99401 12.9591 8.99401 12.959C8.99401 12.9589 8.99401 12.9588 8.99401 12.9588C8.99401 12.9587 8.99401 12.9586 8.99401 12.9585C8.99401 12.9585 8.99401 12.9584 8.99401 12.9583C8.99401 12.9583 8.99401 12.9582 8.99401 12.9581C8.99401 12.958 8.99401 12.958 8.99401 12.9579C8.99401 12.9578 8.99401 12.9577 8.99401 12.9577C8.99401 12.9576 8.99401 12.9575 8.99401 12.9574C8.99401 12.9574 8.99401 12.9573 8.99401 12.9572C8.99401 12.9572 8.99401 12.9571 8.99401 12.957C8.99401 12.9569 8.99401 12.9569 8.99401 12.9568C8.99401 12.9567 8.99401 12.9566 8.99401 12.9566C8.99401 12.9565 8.99401 12.9564 8.99401 12.9564C8.99401 12.9563 8.99401 12.9562 8.99401 12.9561C8.99401 12.9561 8.99401 12.956 8.99401 12.9559C8.99401 12.9558 8.99401 12.9558 8.99401 12.9557C8.99401 12.9556 8.99401 12.9556 8.99401 12.9555C8.99401 12.9554 8.99401 12.9553 8.99401 12.9553C8.99401 12.9552 8.99401 12.9551 8.99401 12.955C8.99401 12.955 8.99401 12.9549 8.99401 12.9548C8.99401 12.9548 8.99401 12.9547 8.99401 12.9546C8.99401 12.9545 8.99401 12.9545 8.99401 12.9544C8.99401 12.9543 8.99401 12.9542 8.99401 12.9542C8.99401 12.9541 8.99401 12.954 8.99401 12.9539C8.99401 12.9539 8.99401 12.9538 8.99401 12.9537C8.99401 12.9537 8.99401 12.9536 8.99401 12.9535C8.99401 12.9534 8.99401 12.9534 8.99401 12.9533C8.99401 12.9532 8.99401 12.9531 8.99401 12.9531C8.99401 12.953 8.99401 12.9529 8.99401 12.9529C8.99401 12.9528 8.99401 12.9527 8.99401 12.9526C8.99401 12.9526 8.99401 12.9525 8.99401 12.9524C8.99401 12.9523 8.99401 12.9523 8.99401 12.9522C8.99401 12.9521 8.99401 12.9521 8.99401 12.952C8.99401 12.9519 8.99401 12.9518 8.99401 12.9518C8.99401 12.9517 8.99401 12.9516 8.99401 12.9515C8.99401 12.9515 8.99401 12.9514 8.99401 12.9513C8.99401 12.9513 8.99401 12.9512 8.99401 12.9511C8.99401 12.951 8.99401 12.951 8.99401 12.9509C8.99401 12.9508 8.99401 12.9507 8.99401 12.9507C8.99401 12.9506 8.99401 12.9505 8.99401 12.9504C8.99401 12.9504 8.99401 12.9503 8.99401 12.9502C8.99401 12.9502 8.99401 12.9501 8.99401 12.95C8.99401 12.9499 8.99401 12.9499 8.99401 12.9498C8.99401 12.9497 8.99401 12.9496 8.99401 12.9496C8.99401 12.9495 8.99401 12.9494 8.99401 12.9494C8.99401 12.9493 8.99401 12.9492 8.99401 12.9491C8.99401 12.9491 8.99401 12.949 8.99401 12.9489C8.99401 12.9488 8.99401 12.9488 8.99401 12.9487C8.99401 12.9486 8.99401 12.9486 8.99401 12.9485C8.99401 12.9484 8.99401 12.9483 8.99401 12.9483C8.99401 12.9482 8.99401 12.9481 8.99401 12.948C8.99401 12.948 8.99401 12.9479 8.99401 12.9478C8.99401 12.9478 8.99401 12.9477 8.99401 12.9476C8.99401 12.9475 8.99401 12.9475 8.99401 12.9474C8.99401 12.9473 8.99401 12.9472 8.99401 12.9472C8.99401 12.9471 8.99401 12.947 8.99401 12.9469C8.99401 12.9469 8.99401 12.9468 8.99401 12.9467C8.99401 12.9467 8.99401 12.9466 8.99401 12.9465C8.99401 12.9464 8.99401 12.9464 8.99401 12.9463C8.99401 12.9462 8.99401 12.9461 8.99401 12.9461C8.99401 12.946 8.99401 12.9459 8.99401 12.9459C8.99401 12.9458 8.99401 12.9457 8.99401 12.9456C8.99401 12.9456 8.99401 12.9455 8.99401 12.9454C8.99401 12.9453 8.99401 12.9453 8.99401 12.9452C8.99401 12.9451 8.99401 12.9451 8.99401 12.945C8.99401 12.9449 8.99401 12.9448 8.99401 12.9448C8.99401 12.9447 8.99401 12.9446 8.99401 12.9445C8.99401 12.9445 8.99401 12.9444 8.99401 12.9443C8.99401 12.9443 8.99401 12.9442 8.99401 12.9441C8.99401 12.944 8.99401 12.944 8.99401 12.9439C8.99401 12.9438 8.99401 12.9437 8.99401 12.9437C8.99401 12.9436 8.99401 12.9435 8.99401 12.9434C8.99401 12.9434 8.99401 12.9433 8.99401 12.9432C8.99401 12.9432 8.99401 12.9431 8.99401 12.943C8.99401 12.9429 8.99401 12.9429 8.99401 12.9428C8.99401 12.9427 8.99401 12.9426 8.99401 12.9426C8.99401 12.9425 8.99401 12.9424 8.99401 12.9424C8.99401 12.9423 8.99401 12.9422 8.99401 12.9421C8.99401 12.9421 8.99401 12.942 8.99401 12.9419C8.99401 12.9418 8.99401 12.9418 8.99401 12.9417C8.99401 12.9416 8.99401 12.9416 8.99401 12.9415C8.99401 12.9414 8.99401 12.9413 8.99401 12.9413C8.99401 12.9412 8.99401 12.9411 8.99401 12.941C8.99401 12.941 8.99401 12.9409 8.99401 12.9408C8.99401 12.9408 8.99401 12.9407 8.99401 12.9406C8.99401 12.9405 8.99401 12.9405 8.99401 12.9404C8.99401 12.9403 8.99401 12.9402 8.99401 12.9402C8.99401 12.9401 8.99401 12.94 8.99401 12.9399C8.99401 12.9399 8.99401 12.9398 8.99401 12.9397C8.99401 12.9397 8.99401 12.9396 8.99401 12.9395C8.99401 12.9394 8.99401 12.9394 8.99401 12.9393C8.99401 12.9392 8.99401 12.9391 8.99401 12.9391C8.99401 12.939 8.99401 12.9389 8.99401 12.9389C8.99401 12.9388 8.99401 12.9387 8.99401 12.9386C8.99401 12.9386 8.99401 12.9385 8.99401 12.9384C8.99401 12.9383 8.99401 12.9383 8.99401 12.9382C8.99401 12.9381 8.99401 12.9381 8.99401 12.938C8.99401 12.9379 8.99401 12.9378 8.99401 12.9378C8.99401 12.9377 8.99401 12.9376 8.99401 12.9375C8.99401 12.9375 8.99401 12.9374 8.99401 12.9373C8.99401 12.9373 8.99401 12.9372 8.99401 12.9371C8.99401 12.937 8.99401 12.937 8.99401 12.9369C8.99401 12.9368 8.99401 12.9367 8.99401 12.9367C8.99401 12.9366 8.99401 12.9365 8.99401 12.9364C8.99401 12.9364 8.99401 12.9363 8.99401 12.9362C8.99401 12.9362 8.99401 12.9361 8.99401 12.936C8.99401 12.9359 8.99401 12.9359 8.99401 12.9358C8.99401 12.9357 8.99401 12.9356 8.99401 12.9356C8.99401 12.9355 8.99401 12.9354 8.99401 12.9354C8.99401 12.9353 8.99401 12.9352 8.99401 12.9351C8.99401 12.9351 8.99401 12.935 8.99401 12.9349C8.99401 12.9348 8.99401 12.9348 8.99401 12.9347C8.99401 12.9346 8.99401 12.9346 8.99401 12.9345C8.99401 12.9344 8.99401 12.9343 8.99401 12.9343C8.99401 12.9342 8.99401 12.9341 8.99401 12.934C8.99401 12.934 8.99401 12.9339 8.99401 12.9338C8.99401 12.9338 8.99401 12.9337 8.99401 12.9336C8.99401 12.9335 8.99401 12.9335 8.99401 12.9334C8.99401 12.9333 8.99401 12.9332 8.99401 12.9332C8.99401 12.9331 8.99401 12.933 8.99401 12.9329C8.99401 12.9329 8.99401 12.9328 8.99401 12.9327C8.99401 12.9327 8.99401 12.9326 8.99401 12.9325C8.99401 12.9324 8.99401 12.9324 8.99401 12.9323C8.99401 12.9322 8.99401 12.9321 8.99401 12.9321C8.99401 12.932 8.99401 12.9319 8.99401 12.9319C8.99401 12.9318 8.99401 12.9317 8.99401 12.9316C8.99401 12.9316 8.99401 12.9315 8.99401 12.9314C8.99401 12.9313 8.99401 12.9313 8.99401 12.9312C8.99401 12.9311 8.99401 12.9311 8.99401 12.931C8.99401 12.9309 8.99401 12.9308 8.99401 12.9308C8.99401 12.9307 8.99401 12.9306 8.99401 12.9305C8.99401 12.9305 8.99401 12.9304 8.99401 12.9303C8.99401 12.9303 8.99401 12.9302 8.99401 12.9301C8.99401 12.93 8.99401 12.93 8.99401 12.9299C8.99401 12.9298 8.99401 12.9297 8.99401 12.9297C8.99401 12.9296 8.99401 12.9295 8.99401 12.9294C8.99401 12.9294 8.99401 12.9293 8.99401 12.9292C8.99401 12.9292 8.99401 12.9291 8.99401 12.929C8.99401 12.9289 8.99401 12.9289 8.99401 12.9288C8.99401 12.9287 8.99401 12.9286 8.99401 12.9286C8.99401 12.9285 8.99401 12.9284 8.99401 12.9284C8.99401 12.9283 8.99401 12.9282 8.99401 12.9281C8.99401 12.9281 8.99401 12.928 8.99401 12.9279C8.99401 12.9278 8.99401 12.9278 8.99401 12.9277C8.99401 12.9276 8.99401 12.9276 8.99401 12.9275C8.99401 12.9274 8.99401 12.9273 8.99401 12.9273C8.99401 12.9272 8.99401 12.9271 8.99401 12.927C8.99401 12.927 8.99401 12.9269 8.99401 12.9268C8.99401 12.9268 8.99401 12.9267 8.99401 12.9266C8.99401 12.9265 8.99401 12.9265 8.99401 12.9264C8.99401 12.9263 8.99401 12.9262 8.99401 12.9262C8.99401 12.9261 8.99401 12.926 8.99401 12.9259C8.99401 12.9259 8.99401 12.9258 8.99401 12.9257C8.99401 12.9257 8.99401 12.9256 8.99401 12.9255C8.99401 12.9254 8.99401 12.9254 8.99401 12.9253C8.99401 12.9252 8.99401 12.9251 8.99401 12.9251C8.99401 12.925 8.99401 12.9249 8.99401 12.9249C8.99401 12.9248 8.99401 12.9247 8.99401 12.9246C8.99401 12.9246 8.99401 12.9245 8.99401 12.9244C8.99401 12.9243 8.99401 12.9243 8.99401 12.9242C8.99401 12.9241 8.99401 12.9241 8.99401 12.924C8.99401 12.9239 8.99401 12.9238 8.99401 12.9238C8.99401 12.9237 8.99401 12.9236 8.99401 12.9235C8.99401 12.9235 8.99401 12.9234 8.99401 12.9233C8.99401 12.9233 8.99401 12.9232 8.99401 12.9231C8.99401 12.923 8.99401 12.923 8.99401 12.9229C8.99401 12.9228 8.99401 12.9227 8.99401 12.9227C8.99401 12.9226 8.99401 12.9225 8.99401 12.9224C8.99401 12.9224 8.99401 12.9223 8.99401 12.9222C8.99401 12.9222 8.99401 12.9221 8.99401 12.922C8.99401 12.9219 8.99401 12.9219 8.99401 12.9218C8.99401 12.9217 8.99401 12.9216 8.99401 12.9216C8.99401 12.9215 8.99401 12.9214 8.99401 12.9214C8.99401 12.9213 8.99401 12.9212 8.99401 12.9211C8.99401 12.9211 8.99401 12.921 8.99401 12.9209C8.99401 12.9208 8.99401 12.9208 8.99401 12.9207C8.99401 12.9206 8.99401 12.9206 8.99401 12.9205C8.99401 12.9204 8.99401 12.9203 8.99401 12.9203C8.99401 12.9202 8.99401 12.9201 8.99401 12.92C8.99401 12.92 8.99401 12.9199 8.99401 12.9198C8.99401 12.9198 8.99401 12.9197 8.99401 12.9196C8.99401 12.9195 8.99401 12.9195 8.99401 12.9194C8.99401 12.9193 8.99401 12.9192 8.99401 12.9192C8.99401 12.9191 8.99401 12.919 8.99401 12.9189C8.99401 12.9189 8.99401 12.9188 8.99401 12.9187C8.99401 12.9187 8.99401 12.9186 8.99401 12.9185C8.99401 12.9184 8.99401 12.9184 8.99401 12.9183C8.99401 12.9182 8.99401 12.9181 8.99401 12.9181C8.99401 12.918 8.99401 12.9179 8.99401 12.9179C8.99401 12.9178 8.99401 12.9177 8.99401 12.9176C8.99401 12.9176 8.99401 12.9175 8.99401 12.9174C8.99401 12.9173 8.99401 12.9173 8.99401 12.9172C8.99401 12.9171 8.99401 12.9171 8.99401 12.917C8.99401 12.9169 8.99401 12.9168 8.99401 12.9168C8.99401 12.9167 8.99401 12.9166 8.99401 12.9165C8.99401 12.9165 8.99401 12.9164 8.99401 12.9163C8.99401 12.9163 8.99401 12.9162 8.99401 12.9161C8.99401 12.916 8.99401 12.916 8.99401 12.9159C8.99401 12.9158 8.99401 12.9157 8.99401 12.9157C8.99401 12.9156 8.99401 12.9155 8.99401 12.9154C8.99401 12.9154 8.99401 12.9153 8.99401 12.9152C8.99401 12.9152 8.99401 12.9151 8.99401 12.915C8.99401 12.9149 8.99401 12.9149 8.99401 12.9148C8.99401 12.9147 8.99401 12.9146 8.99401 12.9146C8.99401 12.9145 8.99401 12.9144 8.99401 12.9144C8.99401 12.9143 8.99401 12.9142 8.99401 12.9141C8.99401 12.9141 8.99401 12.914 8.99401 12.9139C8.99401 12.9138 8.99401 12.9138 8.99401 12.9137C8.99401 12.9136 8.99401 12.9136 8.99401 12.9135C8.99401 12.9134 8.99401 12.9133 8.99401 12.9133C8.99401 12.9132 8.99401 12.9131 8.99401 12.913C8.99401 12.913 8.99401 12.9129 8.99401 12.9128C8.99401 12.9128 8.99401 12.9127 8.99401 12.9126C8.99401 12.9125 8.99401 12.9125 8.99401 12.9124C8.99401 12.9123 8.99401 12.9122 8.99401 12.9122C8.99401 12.9121 8.99401 12.912 8.99401 12.9119C8.99401 12.9119 8.99401 12.9118 8.99401 12.9117C8.99401 12.9117 8.99401 12.9116 8.99401 12.9115C8.99401 12.9114 8.99401 12.9114 8.99401 12.9113C8.99401 12.9112 8.99401 12.9111 8.99401 12.9111C8.99401 12.911 8.99401 12.9109 8.99401 12.9109C8.99401 12.9108 8.99401 12.9107 8.99401 12.9106C8.99401 12.9106 8.99401 12.9105 8.99401 12.9104C8.99401 12.9103 8.99401 12.9103 8.99401 12.9102C8.99401 12.9101 8.99401 12.9101 8.99401 12.91C8.99401 12.9099 8.99401 12.9098 8.99401 12.9098C8.99401 12.9097 8.99401 12.9096 8.99401 12.9095C8.99401 12.9095 8.99401 12.9094 8.99401 12.9093C8.99401 12.9093 8.99401 12.9092 8.99401 12.9091C8.99401 12.909 8.99401 12.909 8.99401 12.9089C8.99401 12.9088 8.99401 12.9087 8.99401 12.9087C8.99401 12.9086 8.99401 12.9085 8.99401 12.9084C8.99401 12.9084 8.99401 12.9083 8.99401 12.9082C8.99401 12.9082 8.99401 12.9081 8.99401 12.908C8.99401 12.9079 8.99401 12.9079 8.99401 12.9078C8.99401 12.9077 8.99401 12.9076 8.99401 12.9076C8.99401 12.9075 8.99401 12.9074 8.99401 12.9074C8.99401 12.9073 8.99401 12.9072 8.99401 12.9071C8.99401 12.9071 8.99401 12.907 8.99401 12.9069C8.99401 12.9068 8.99401 12.9068 8.99401 12.9067C8.99401 12.9066 8.99401 12.9066 8.99401 12.9065C8.99401 12.9064 8.99401 12.9063 8.99401 12.9063C8.99401 12.9062 8.99401 12.9061 8.99401 12.906C8.99401 12.906 8.99401 12.9059 8.99401 12.9058C8.99401 12.9058 8.99401 12.9057 8.99401 12.9056C8.99401 12.9055 8.99401 12.9055 8.99401 12.9054C8.99401 12.9053 8.99401 12.9052 8.99401 12.9052C8.99401 12.9051 8.99401 12.905 8.99401 12.9049C8.99401 12.9049 8.99401 12.9048 8.99401 12.9047C8.99401 12.9047 8.99401 12.9046 8.99401 12.9045C8.99401 12.9044 8.99401 12.9044 8.99401 12.9043C8.99401 12.9042 8.99401 12.9041 8.99401 12.9041C8.99401 12.904 8.99401 12.9039 8.99401 12.9039C8.99401 12.9038 8.99401 12.9037 8.99401 12.9036C8.99401 12.9036 8.99401 12.9035 8.99401 12.9034C8.99401 12.9033 8.99401 12.9033 8.99401 12.9032C8.99401 12.9031 8.99401 12.9031 8.99401 12.903C8.99401 12.9029 8.99401 12.9028 8.99401 12.9028C8.99401 12.9027 8.99401 12.9026 8.99401 12.9025C8.99401 12.9025 8.99401 12.9024 8.99401 12.9023C8.99401 12.9023 8.99401 12.9022 8.99401 12.9021C8.99401 12.902 8.99401 12.902 8.99401 12.9019C8.99401 12.9018 8.99401 12.9017 8.99401 12.9017C8.99401 12.9016 8.99401 12.9015 8.99401 12.9014C8.99401 12.9014 8.99401 12.9013 8.99401 12.9012C8.99401 12.9012 8.99401 12.9011 8.99401 12.901C8.99401 12.9009 8.99401 12.9009 8.99401 12.9008C8.99401 12.9007 8.99401 12.9006 8.99401 12.9006C8.99401 12.9005 8.99401 12.9004 8.99401 12.9004C8.99401 12.9003 8.99401 12.9002 8.99401 12.9001C8.99401 12.9001 8.99401 12.9 8.99401 12.8999C8.99401 12.8998 8.99401 12.8998 8.99401 12.8997C8.99401 12.8996 8.99401 12.8996 8.99401 12.8995C8.99401 12.8994 8.99401 12.8993 8.99401 12.8993C8.99401 12.8992 8.99401 12.8991 8.99401 12.899C8.99401 12.899 8.99401 12.8989 8.99401 12.8988C8.99401 12.8988 8.99401 12.8987 8.99401 12.8986C8.99401 12.8985 8.99401 12.8985 8.99401 12.8984C8.99401 12.8983 8.99401 12.8982 8.99401 12.8982C8.99401 12.8981 8.99401 12.898 8.99401 12.8979C8.99401 12.8979 8.99401 12.8978 8.99401 12.8977C8.99401 12.8977 8.99401 12.8976 8.99401 12.8975C8.99401 12.8974 8.99401 12.8974 8.99401 12.8973C8.99401 12.8972 8.99401 12.8971 8.99401 12.8971C8.99401 12.897 8.99401 12.8969 8.99401 12.8969C8.99401 12.8968 8.99401 12.8967 8.99401 12.8966C8.99401 12.8966 8.99401 12.8965 8.99401 12.8964C8.99401 12.8963 8.99401 12.8963 8.99401 12.8962C8.99401 12.8961 8.99401 12.8961 8.99401 12.896C8.99401 12.8959 8.99401 12.8958 8.99401 12.8958C8.99401 12.8957 8.99401 12.8956 8.99401 12.8955C8.99401 12.8955 8.99401 12.8954 8.99401 12.8953C8.99401 12.8953 8.99401 12.8952 8.99401 12.8951C8.99401 12.895 8.99401 12.895 8.99401 12.8949C8.99401 12.8948 8.99401 12.8947 8.99401 12.8947C8.99401 12.8946 8.99401 12.8945 8.99401 12.8944C8.99401 12.8944 8.99401 12.8943 8.99401 12.8942C8.99401 12.8942 8.99401 12.8941 8.99401 12.894C8.99401 12.8939 8.99401 12.8939 8.99401 12.8938C8.99401 12.8937 8.99401 12.8936 8.99401 12.8936C8.99401 12.8935 8.99401 12.8934 8.99401 12.8934C8.99401 12.8933 8.99401 12.8932 8.99401 12.8931C8.99401 12.8931 8.99401 12.893 8.99401 12.8929C8.99401 12.8928 8.99401 12.8928 8.99401 12.8927C8.99401 12.8926 8.99401 12.8926 8.99401 12.8925H8.24401H7.49401C7.49401 12.8926 7.49401 12.8926 7.49401 12.8927C7.49401 12.8928 7.49401 12.8928 7.49401 12.8929C7.49401 12.893 7.49401 12.8931 7.49401 12.8931C7.49401 12.8932 7.49401 12.8933 7.49401 12.8934C7.49401 12.8934 7.49401 12.8935 7.49401 12.8936C7.49401 12.8936 7.49401 12.8937 7.49401 12.8938C7.49401 12.8939 7.49401 12.8939 7.49401 12.894C7.49401 12.8941 7.49401 12.8942 7.49401 12.8942C7.49401 12.8943 7.49401 12.8944 7.49401 12.8944C7.49401 12.8945 7.49401 12.8946 7.49401 12.8947C7.49401 12.8947 7.49401 12.8948 7.49401 12.8949C7.49401 12.895 7.49401 12.895 7.49401 12.8951C7.49401 12.8952 7.49401 12.8953 7.49401 12.8953C7.49401 12.8954 7.49401 12.8955 7.49401 12.8955C7.49401 12.8956 7.49401 12.8957 7.49401 12.8958C7.49401 12.8958 7.49401 12.8959 7.49401 12.896C7.49401 12.8961 7.49401 12.8961 7.49401 12.8962C7.49401 12.8963 7.49401 12.8963 7.49401 12.8964C7.49401 12.8965 7.49401 12.8966 7.49401 12.8966C7.49401 12.8967 7.49401 12.8968 7.49401 12.8969C7.49401 12.8969 7.49401 12.897 7.49401 12.8971C7.49401 12.8971 7.49401 12.8972 7.49401 12.8973C7.49401 12.8974 7.49401 12.8974 7.49401 12.8975C7.49401 12.8976 7.49401 12.8977 7.49401 12.8977C7.49401 12.8978 7.49401 12.8979 7.49401 12.8979C7.49401 12.898 7.49401 12.8981 7.49401 12.8982C7.49401 12.8982 7.49401 12.8983 7.49401 12.8984C7.49401 12.8985 7.49401 12.8985 7.49401 12.8986C7.49401 12.8987 7.49401 12.8988 7.49401 12.8988C7.49401 12.8989 7.49401 12.899 7.49401 12.899C7.49401 12.8991 7.49401 12.8992 7.49401 12.8993C7.49401 12.8993 7.49401 12.8994 7.49401 12.8995C7.49401 12.8996 7.49401 12.8996 7.49401 12.8997C7.49401 12.8998 7.49401 12.8998 7.49401 12.8999C7.49401 12.9 7.49401 12.9001 7.49401 12.9001C7.49401 12.9002 7.49401 12.9003 7.49401 12.9004C7.49401 12.9004 7.49401 12.9005 7.49401 12.9006C7.49401 12.9006 7.49401 12.9007 7.49401 12.9008C7.49401 12.9009 7.49401 12.9009 7.49401 12.901C7.49401 12.9011 7.49401 12.9012 7.49401 12.9012C7.49401 12.9013 7.49401 12.9014 7.49401 12.9014C7.49401 12.9015 7.49401 12.9016 7.49401 12.9017C7.49401 12.9017 7.49401 12.9018 7.49401 12.9019C7.49401 12.902 7.49401 12.902 7.49401 12.9021C7.49401 12.9022 7.49401 12.9023 7.49401 12.9023C7.49401 12.9024 7.49401 12.9025 7.49401 12.9025C7.49401 12.9026 7.49401 12.9027 7.49401 12.9028C7.49401 12.9028 7.49401 12.9029 7.49401 12.903C7.49401 12.9031 7.49401 12.9031 7.49401 12.9032C7.49401 12.9033 7.49401 12.9033 7.49401 12.9034C7.49401 12.9035 7.49401 12.9036 7.49401 12.9036C7.49401 12.9037 7.49401 12.9038 7.49401 12.9039C7.49401 12.9039 7.49401 12.904 7.49401 12.9041C7.49401 12.9041 7.49401 12.9042 7.49401 12.9043C7.49401 12.9044 7.49401 12.9044 7.49401 12.9045C7.49401 12.9046 7.49401 12.9047 7.49401 12.9047C7.49401 12.9048 7.49401 12.9049 7.49401 12.9049C7.49401 12.905 7.49401 12.9051 7.49401 12.9052C7.49401 12.9052 7.49401 12.9053 7.49401 12.9054C7.49401 12.9055 7.49401 12.9055 7.49401 12.9056C7.49401 12.9057 7.49401 12.9058 7.49401 12.9058C7.49401 12.9059 7.49401 12.906 7.49401 12.906C7.49401 12.9061 7.49401 12.9062 7.49401 12.9063C7.49401 12.9063 7.49401 12.9064 7.49401 12.9065C7.49401 12.9066 7.49401 12.9066 7.49401 12.9067C7.49401 12.9068 7.49401 12.9068 7.49401 12.9069C7.49401 12.907 7.49401 12.9071 7.49401 12.9071C7.49401 12.9072 7.49401 12.9073 7.49401 12.9074C7.49401 12.9074 7.49401 12.9075 7.49401 12.9076C7.49401 12.9076 7.49401 12.9077 7.49401 12.9078C7.49401 12.9079 7.49401 12.9079 7.49401 12.908C7.49401 12.9081 7.49401 12.9082 7.49401 12.9082C7.49401 12.9083 7.49401 12.9084 7.49401 12.9084C7.49401 12.9085 7.49401 12.9086 7.49401 12.9087C7.49401 12.9087 7.49401 12.9088 7.49401 12.9089C7.49401 12.909 7.49401 12.909 7.49401 12.9091C7.49401 12.9092 7.49401 12.9093 7.49401 12.9093C7.49401 12.9094 7.49401 12.9095 7.49401 12.9095C7.49401 12.9096 7.49401 12.9097 7.49401 12.9098C7.49401 12.9098 7.49401 12.9099 7.49401 12.91C7.49401 12.9101 7.49401 12.9101 7.49401 12.9102C7.49401 12.9103 7.49401 12.9103 7.49401 12.9104C7.49401 12.9105 7.49401 12.9106 7.49401 12.9106C7.49401 12.9107 7.49401 12.9108 7.49401 12.9109C7.49401 12.9109 7.49401 12.911 7.49401 12.9111C7.49401 12.9111 7.49401 12.9112 7.49401 12.9113C7.49401 12.9114 7.49401 12.9114 7.49401 12.9115C7.49401 12.9116 7.49401 12.9117 7.49401 12.9117C7.49401 12.9118 7.49401 12.9119 7.49401 12.9119C7.49401 12.912 7.49401 12.9121 7.49401 12.9122C7.49401 12.9122 7.49401 12.9123 7.49401 12.9124C7.49401 12.9125 7.49401 12.9125 7.49401 12.9126C7.49401 12.9127 7.49401 12.9128 7.49401 12.9128C7.49401 12.9129 7.49401 12.913 7.49401 12.913C7.49401 12.9131 7.49401 12.9132 7.49401 12.9133C7.49401 12.9133 7.49401 12.9134 7.49401 12.9135C7.49401 12.9136 7.49401 12.9136 7.49401 12.9137C7.49401 12.9138 7.49401 12.9138 7.49401 12.9139C7.49401 12.914 7.49401 12.9141 7.49401 12.9141C7.49401 12.9142 7.49401 12.9143 7.49401 12.9144C7.49401 12.9144 7.49401 12.9145 7.49401 12.9146C7.49401 12.9146 7.49401 12.9147 7.49401 12.9148C7.49401 12.9149 7.49401 12.9149 7.49401 12.915C7.49401 12.9151 7.49401 12.9152 7.49401 12.9152C7.49401 12.9153 7.49401 12.9154 7.49401 12.9154C7.49401 12.9155 7.49401 12.9156 7.49401 12.9157C7.49401 12.9157 7.49401 12.9158 7.49401 12.9159C7.49401 12.916 7.49401 12.916 7.49401 12.9161C7.49401 12.9162 7.49401 12.9163 7.49401 12.9163C7.49401 12.9164 7.49401 12.9165 7.49401 12.9165C7.49401 12.9166 7.49401 12.9167 7.49401 12.9168C7.49401 12.9168 7.49401 12.9169 7.49401 12.917C7.49401 12.9171 7.49401 12.9171 7.49401 12.9172C7.49401 12.9173 7.49401 12.9173 7.49401 12.9174C7.49401 12.9175 7.49401 12.9176 7.49401 12.9176C7.49401 12.9177 7.49401 12.9178 7.49401 12.9179C7.49401 12.9179 7.49401 12.918 7.49401 12.9181C7.49401 12.9181 7.49401 12.9182 7.49401 12.9183C7.49401 12.9184 7.49401 12.9184 7.49401 12.9185C7.49401 12.9186 7.49401 12.9187 7.49401 12.9187C7.49401 12.9188 7.49401 12.9189 7.49401 12.9189C7.49401 12.919 7.49401 12.9191 7.49401 12.9192C7.49401 12.9192 7.49401 12.9193 7.49401 12.9194C7.49401 12.9195 7.49401 12.9195 7.49401 12.9196C7.49401 12.9197 7.49401 12.9198 7.49401 12.9198C7.49401 12.9199 7.49401 12.92 7.49401 12.92C7.49401 12.9201 7.49401 12.9202 7.49401 12.9203C7.49401 12.9203 7.49401 12.9204 7.49401 12.9205C7.49401 12.9206 7.49401 12.9206 7.49401 12.9207C7.49401 12.9208 7.49401 12.9208 7.49401 12.9209C7.49401 12.921 7.49401 12.9211 7.49401 12.9211C7.49401 12.9212 7.49401 12.9213 7.49401 12.9214C7.49401 12.9214 7.49401 12.9215 7.49401 12.9216C7.49401 12.9216 7.49401 12.9217 7.49401 12.9218C7.49401 12.9219 7.49401 12.9219 7.49401 12.922C7.49401 12.9221 7.49401 12.9222 7.49401 12.9222C7.49401 12.9223 7.49401 12.9224 7.49401 12.9224C7.49401 12.9225 7.49401 12.9226 7.49401 12.9227C7.49401 12.9227 7.49401 12.9228 7.49401 12.9229C7.49401 12.923 7.49401 12.923 7.49401 12.9231C7.49401 12.9232 7.49401 12.9233 7.49401 12.9233C7.49401 12.9234 7.49401 12.9235 7.49401 12.9235C7.49401 12.9236 7.49401 12.9237 7.49401 12.9238C7.49401 12.9238 7.49401 12.9239 7.49401 12.924C7.49401 12.9241 7.49401 12.9241 7.49401 12.9242C7.49401 12.9243 7.49401 12.9243 7.49401 12.9244C7.49401 12.9245 7.49401 12.9246 7.49401 12.9246C7.49401 12.9247 7.49401 12.9248 7.49401 12.9249C7.49401 12.9249 7.49401 12.925 7.49401 12.9251C7.49401 12.9251 7.49401 12.9252 7.49401 12.9253C7.49401 12.9254 7.49401 12.9254 7.49401 12.9255C7.49401 12.9256 7.49401 12.9257 7.49401 12.9257C7.49401 12.9258 7.49401 12.9259 7.49401 12.9259C7.49401 12.926 7.49401 12.9261 7.49401 12.9262C7.49401 12.9262 7.49401 12.9263 7.49401 12.9264C7.49401 12.9265 7.49401 12.9265 7.49401 12.9266C7.49401 12.9267 7.49401 12.9268 7.49401 12.9268C7.49401 12.9269 7.49401 12.927 7.49401 12.927C7.49401 12.9271 7.49401 12.9272 7.49401 12.9273C7.49401 12.9273 7.49401 12.9274 7.49401 12.9275C7.49401 12.9276 7.49401 12.9276 7.49401 12.9277C7.49401 12.9278 7.49401 12.9278 7.49401 12.9279C7.49401 12.928 7.49401 12.9281 7.49401 12.9281C7.49401 12.9282 7.49401 12.9283 7.49401 12.9284C7.49401 12.9284 7.49401 12.9285 7.49401 12.9286C7.49401 12.9286 7.49401 12.9287 7.49401 12.9288C7.49401 12.9289 7.49401 12.9289 7.49401 12.929C7.49401 12.9291 7.49401 12.9292 7.49401 12.9292C7.49401 12.9293 7.49401 12.9294 7.49401 12.9294C7.49401 12.9295 7.49401 12.9296 7.49401 12.9297C7.49401 12.9297 7.49401 12.9298 7.49401 12.9299C7.49401 12.93 7.49401 12.93 7.49401 12.9301C7.49401 12.9302 7.49401 12.9303 7.49401 12.9303C7.49401 12.9304 7.49401 12.9305 7.49401 12.9305C7.49401 12.9306 7.49401 12.9307 7.49401 12.9308C7.49401 12.9308 7.49401 12.9309 7.49401 12.931C7.49401 12.9311 7.49401 12.9311 7.49401 12.9312C7.49401 12.9313 7.49401 12.9313 7.49401 12.9314C7.49401 12.9315 7.49401 12.9316 7.49401 12.9316C7.49401 12.9317 7.49401 12.9318 7.49401 12.9319C7.49401 12.9319 7.49401 12.932 7.49401 12.9321C7.49401 12.9321 7.49401 12.9322 7.49401 12.9323C7.49401 12.9324 7.49401 12.9324 7.49401 12.9325C7.49401 12.9326 7.49401 12.9327 7.49401 12.9327C7.49401 12.9328 7.49401 12.9329 7.49401 12.9329C7.49401 12.933 7.49401 12.9331 7.49401 12.9332C7.49401 12.9332 7.49401 12.9333 7.49401 12.9334C7.49401 12.9335 7.49401 12.9335 7.49401 12.9336C7.49401 12.9337 7.49401 12.9338 7.49401 12.9338C7.49401 12.9339 7.49401 12.934 7.49401 12.934C7.49401 12.9341 7.49401 12.9342 7.49401 12.9343C7.49401 12.9343 7.49401 12.9344 7.49401 12.9345C7.49401 12.9346 7.49401 12.9346 7.49401 12.9347C7.49401 12.9348 7.49401 12.9348 7.49401 12.9349C7.49401 12.935 7.49401 12.9351 7.49401 12.9351C7.49401 12.9352 7.49401 12.9353 7.49401 12.9354C7.49401 12.9354 7.49401 12.9355 7.49401 12.9356C7.49401 12.9356 7.49401 12.9357 7.49401 12.9358C7.49401 12.9359 7.49401 12.9359 7.49401 12.936C7.49401 12.9361 7.49401 12.9362 7.49401 12.9362C7.49401 12.9363 7.49401 12.9364 7.49401 12.9364C7.49401 12.9365 7.49401 12.9366 7.49401 12.9367C7.49401 12.9367 7.49401 12.9368 7.49401 12.9369C7.49401 12.937 7.49401 12.937 7.49401 12.9371C7.49401 12.9372 7.49401 12.9373 7.49401 12.9373C7.49401 12.9374 7.49401 12.9375 7.49401 12.9375C7.49401 12.9376 7.49401 12.9377 7.49401 12.9378C7.49401 12.9378 7.49401 12.9379 7.49401 12.938C7.49401 12.9381 7.49401 12.9381 7.49401 12.9382C7.49401 12.9383 7.49401 12.9383 7.49401 12.9384C7.49401 12.9385 7.49401 12.9386 7.49401 12.9386C7.49401 12.9387 7.49401 12.9388 7.49401 12.9389C7.49401 12.9389 7.49401 12.939 7.49401 12.9391C7.49401 12.9391 7.49401 12.9392 7.49401 12.9393C7.49401 12.9394 7.49401 12.9394 7.49401 12.9395C7.49401 12.9396 7.49401 12.9397 7.49401 12.9397C7.49401 12.9398 7.49401 12.9399 7.49401 12.9399C7.49401 12.94 7.49401 12.9401 7.49401 12.9402C7.49401 12.9402 7.49401 12.9403 7.49401 12.9404C7.49401 12.9405 7.49401 12.9405 7.49401 12.9406C7.49401 12.9407 7.49401 12.9408 7.49401 12.9408C7.49401 12.9409 7.49401 12.941 7.49401 12.941C7.49401 12.9411 7.49401 12.9412 7.49401 12.9413C7.49401 12.9413 7.49401 12.9414 7.49401 12.9415C7.49401 12.9416 7.49401 12.9416 7.49401 12.9417C7.49401 12.9418 7.49401 12.9418 7.49401 12.9419C7.49401 12.942 7.49401 12.9421 7.49401 12.9421C7.49401 12.9422 7.49401 12.9423 7.49401 12.9424C7.49401 12.9424 7.49401 12.9425 7.49401 12.9426C7.49401 12.9426 7.49401 12.9427 7.49401 12.9428C7.49401 12.9429 7.49401 12.9429 7.49401 12.943C7.49401 12.9431 7.49401 12.9432 7.49401 12.9432C7.49401 12.9433 7.49401 12.9434 7.49401 12.9434C7.49401 12.9435 7.49401 12.9436 7.49401 12.9437C7.49401 12.9437 7.49401 12.9438 7.49401 12.9439C7.49401 12.944 7.49401 12.944 7.49401 12.9441C7.49401 12.9442 7.49401 12.9443 7.49401 12.9443C7.49401 12.9444 7.49401 12.9445 7.49401 12.9445C7.49401 12.9446 7.49401 12.9447 7.49401 12.9448C7.49401 12.9448 7.49401 12.9449 7.49401 12.945C7.49401 12.9451 7.49401 12.9451 7.49401 12.9452C7.49401 12.9453 7.49401 12.9453 7.49401 12.9454C7.49401 12.9455 7.49401 12.9456 7.49401 12.9456C7.49401 12.9457 7.49401 12.9458 7.49401 12.9459C7.49401 12.9459 7.49401 12.946 7.49401 12.9461C7.49401 12.9461 7.49401 12.9462 7.49401 12.9463C7.49401 12.9464 7.49401 12.9464 7.49401 12.9465C7.49401 12.9466 7.49401 12.9467 7.49401 12.9467C7.49401 12.9468 7.49401 12.9469 7.49401 12.9469C7.49401 12.947 7.49401 12.9471 7.49401 12.9472C7.49401 12.9472 7.49401 12.9473 7.49401 12.9474C7.49401 12.9475 7.49401 12.9475 7.49401 12.9476C7.49401 12.9477 7.49401 12.9478 7.49401 12.9478C7.49401 12.9479 7.49401 12.948 7.49401 12.948C7.49401 12.9481 7.49401 12.9482 7.49401 12.9483C7.49401 12.9483 7.49401 12.9484 7.49401 12.9485C7.49401 12.9486 7.49401 12.9486 7.49401 12.9487C7.49401 12.9488 7.49401 12.9488 7.49401 12.9489C7.49401 12.949 7.49401 12.9491 7.49401 12.9491C7.49401 12.9492 7.49401 12.9493 7.49401 12.9494C7.49401 12.9494 7.49401 12.9495 7.49401 12.9496C7.49401 12.9496 7.49401 12.9497 7.49401 12.9498C7.49401 12.9499 7.49401 12.9499 7.49401 12.95C7.49401 12.9501 7.49401 12.9502 7.49401 12.9502C7.49401 12.9503 7.49401 12.9504 7.49401 12.9504C7.49401 12.9505 7.49401 12.9506 7.49401 12.9507C7.49401 12.9507 7.49401 12.9508 7.49401 12.9509C7.49401 12.951 7.49401 12.951 7.49401 12.9511C7.49401 12.9512 7.49401 12.9513 7.49401 12.9513C7.49401 12.9514 7.49401 12.9515 7.49401 12.9515C7.49401 12.9516 7.49401 12.9517 7.49401 12.9518C7.49401 12.9518 7.49401 12.9519 7.49401 12.952C7.49401 12.9521 7.49401 12.9521 7.49401 12.9522C7.49401 12.9523 7.49401 12.9523 7.49401 12.9524C7.49401 12.9525 7.49401 12.9526 7.49401 12.9526C7.49401 12.9527 7.49401 12.9528 7.49401 12.9529C7.49401 12.9529 7.49401 12.953 7.49401 12.9531C7.49401 12.9531 7.49401 12.9532 7.49401 12.9533C7.49401 12.9534 7.49401 12.9534 7.49401 12.9535C7.49401 12.9536 7.49401 12.9537 7.49401 12.9537C7.49401 12.9538 7.49401 12.9539 7.49401 12.9539C7.49401 12.954 7.49401 12.9541 7.49401 12.9542C7.49401 12.9542 7.49401 12.9543 7.49401 12.9544C7.49401 12.9545 7.49401 12.9545 7.49401 12.9546C7.49401 12.9547 7.49401 12.9548 7.49401 12.9548C7.49401 12.9549 7.49401 12.955 7.49401 12.955C7.49401 12.9551 7.49401 12.9552 7.49401 12.9553C7.49401 12.9553 7.49401 12.9554 7.49401 12.9555C7.49401 12.9556 7.49401 12.9556 7.49401 12.9557C7.49401 12.9558 7.49401 12.9558 7.49401 12.9559C7.49401 12.956 7.49401 12.9561 7.49401 12.9561C7.49401 12.9562 7.49401 12.9563 7.49401 12.9564C7.49401 12.9564 7.49401 12.9565 7.49401 12.9566C7.49401 12.9566 7.49401 12.9567 7.49401 12.9568C7.49401 12.9569 7.49401 12.9569 7.49401 12.957C7.49401 12.9571 7.49401 12.9572 7.49401 12.9572C7.49401 12.9573 7.49401 12.9574 7.49401 12.9574C7.49401 12.9575 7.49401 12.9576 7.49401 12.9577C7.49401 12.9577 7.49401 12.9578 7.49401 12.9579C7.49401 12.958 7.49401 12.958 7.49401 12.9581C7.49401 12.9582 7.49401 12.9583 7.49401 12.9583C7.49401 12.9584 7.49401 12.9585 7.49401 12.9585C7.49401 12.9586 7.49401 12.9587 7.49401 12.9588C7.49401 12.9588 7.49401 12.9589 7.49401 12.959C7.49401 12.9591 7.49401 12.9591 7.49401 12.9592C7.49401 12.9593 7.49401 12.9593 7.49401 12.9594C7.49401 12.9595 7.49401 12.9596 7.49401 12.9596C7.49401 12.9597 7.49401 12.9598 7.49401 12.9599C7.49401 12.9599 7.49401 12.96 7.49401 12.9601C7.49401 12.9601 7.49401 12.9602 7.49401 12.9603C7.49401 12.9604 7.49401 12.9604 7.49401 12.9605C7.49401 12.9606 7.49401 12.9607 7.49401 12.9607C7.49401 12.9608 7.49401 12.9609 7.49401 12.9609C7.49401 12.961 7.49401 12.9611 7.49401 12.9612C7.49401 12.9612 7.49401 12.9613 7.49401 12.9614C7.49401 12.9615 7.49401 12.9615 7.49401 12.9616C7.49401 12.9617 7.49401 12.9618 7.49401 12.9618C7.49401 12.9619 7.49401 12.962 7.49401 12.962C7.49401 12.9621 7.49401 12.9622 7.49401 12.9623C7.49401 12.9623 7.49401 12.9624 7.49401 12.9625C7.49401 12.9626 7.49401 12.9626 7.49401 12.9627C7.49401 12.9628 7.49401 12.9628 7.49401 12.9629C7.49401 12.963 7.49401 12.9631 7.49401 12.9631C7.49401 12.9632 7.49401 12.9633 7.49401 12.9634C7.49401 12.9634 7.49401 12.9635 7.49401 12.9636C7.49401 12.9636 7.49401 12.9637 7.49401 12.9638C7.49401 12.9639 7.49401 12.9639 7.49401 12.964C7.49401 12.9641 7.49401 12.9642 7.49401 12.9642C7.49401 12.9643 7.49401 12.9644 7.49401 12.9644C7.49401 12.9645 7.49401 12.9646 7.49401 12.9647C7.49401 12.9647 7.49401 12.9648 7.49401 12.9649C7.49401 12.965 7.49401 12.965 7.49401 12.9651C7.49401 12.9652 7.49401 12.9653 7.49401 12.9653C7.49401 12.9654 7.49401 12.9655 7.49401 12.9655C7.49401 12.9656 7.49401 12.9657 7.49401 12.9658C7.49401 12.9658 7.49401 12.9659 7.49401 12.966C7.49401 12.9661 7.49401 12.9661 7.49401 12.9662C7.49401 12.9663 7.49401 12.9663 7.49401 12.9664C7.49401 12.9665 7.49401 12.9666 7.49401 12.9666C7.49401 12.9667 7.49401 12.9668 7.49401 12.9669C7.49401 12.9669 7.49401 12.967 7.49401 12.9671C7.49401 12.9671 7.49401 12.9672 7.49401 12.9673C7.49401 12.9674 7.49401 12.9674 7.49401 12.9675C7.49401 12.9676 7.49401 12.9677 7.49401 12.9677C7.49401 12.9678 7.49401 12.9679 7.49401 12.9679C7.49401 12.968 7.49401 12.9681 7.49401 12.9682C7.49401 12.9682 7.49401 12.9683 7.49401 12.9684C7.49401 12.9685 7.49401 12.9685 7.49401 12.9686C7.49401 12.9687 7.49401 12.9688 7.49401 12.9688C7.49401 12.9689 7.49401 12.969 7.49401 12.969C7.49401 12.9691 7.49401 12.9692 7.49401 12.9693C7.49401 12.9693 7.49401 12.9694 7.49401 12.9695C7.49401 12.9696 7.49401 12.9696 7.49401 12.9697C7.49401 12.9698 7.49401 12.9698 7.49401 12.9699C7.49401 12.97 7.49401 12.9701 7.49401 12.9701C7.49401 12.9702 7.49401 12.9703 7.49401 12.9704C7.49401 12.9704 7.49401 12.9705 7.49401 12.9706C7.49401 12.9706 7.49401 12.9707 7.49401 12.9708C7.49401 12.9709 7.49401 12.9709 7.49401 12.971C7.49401 12.9711 7.49401 12.9712 7.49401 12.9712C7.49401 12.9713 7.49401 12.9714 7.49401 12.9714C7.49401 12.9715 7.49401 12.9716 7.49401 12.9717C7.49401 12.9717 7.49401 12.9718 7.49401 12.9719C7.49401 12.972 7.49401 12.972 7.49401 12.9721C7.49401 12.9722 7.49401 12.9723 7.49401 12.9723C7.49401 12.9724 7.49401 12.9725 7.49401 12.9725C7.49401 12.9726 7.49401 12.9727 7.49401 12.9728C7.49401 12.9728 7.49401 12.9729 7.49401 12.973C7.49401 12.9731 7.49401 12.9731 7.49401 12.9732C7.49401 12.9733 7.49401 12.9733 7.49401 12.9734C7.49401 12.9735 7.49401 12.9736 7.49401 12.9736C7.49401 12.9737 7.49401 12.9738 7.49401 12.9739C7.49401 12.9739 7.49401 12.974 7.49401 12.9741C7.49401 12.9741 7.49401 12.9742 7.49401 12.9743C7.49401 12.9744 7.49401 12.9744 7.49401 12.9745C7.49401 12.9746 7.49401 12.9747 7.49401 12.9747C7.49401 12.9748 7.49401 12.9749 7.49401 12.9749C7.49401 12.975 7.49401 12.9751 7.49401 12.9752C7.49401 12.9752 7.49401 12.9753 7.49401 12.9754C7.49401 12.9755 7.49401 12.9755 7.49401 12.9756C7.49401 12.9757 7.49401 12.9758 7.49401 12.9758C7.49401 12.9759 7.49401 12.976 7.49401 12.976C7.49401 12.9761 7.49401 12.9762 7.49401 12.9763C7.49401 12.9763 7.49401 12.9764 7.49401 12.9765C7.49401 12.9766 7.49401 12.9766 7.49401 12.9767C7.49401 12.9768 7.49401 12.9768 7.49401 12.9769C7.49401 12.977 7.49401 12.9771 7.49401 12.9771C7.49401 12.9772 7.49401 12.9773 7.49401 12.9774C7.49401 12.9774 7.49401 12.9775 7.49401 12.9776C7.49401 12.9776 7.49401 12.9777 7.49401 12.9778C7.49401 12.9779 7.49401 12.9779 7.49401 12.978C7.49401 12.9781 7.49401 12.9782 7.49401 12.9782C7.49401 12.9783 7.49401 12.9784 7.49401 12.9784C7.49401 12.9785 7.49401 12.9786 7.49401 12.9787C7.49401 12.9787 7.49401 12.9788 7.49401 12.9789C7.49401 12.979 7.49401 12.979 7.49401 12.9791C7.49401 12.9792 7.49401 12.9793 7.49401 12.9793C7.49401 12.9794 7.49401 12.9795 7.49401 12.9795C7.49401 12.9796 7.49401 12.9797 7.49401 12.9798C7.49401 12.9798 7.49401 12.9799 7.49401 12.98C7.49401 12.9801 7.49401 12.9801 7.49401 12.9802C7.49401 12.9803 7.49401 12.9803 7.49401 12.9804C7.49401 12.9805 7.49401 12.9806 7.49401 12.9806C7.49401 12.9807 7.49401 12.9808 7.49401 12.9809C7.49401 12.9809 7.49401 12.981 7.49401 12.9811C7.49401 12.9811 7.49401 12.9812 7.49401 12.9813C7.49401 12.9814 7.49401 12.9814 7.49401 12.9815C7.49401 12.9816 7.49401 12.9817 7.49401 12.9817C7.49401 12.9818 7.49401 12.9819 7.49401 12.9819C7.49401 12.982 7.49401 12.9821 7.49401 12.9822C7.49401 12.9822 7.49401 12.9823 7.49401 12.9824C7.49401 12.9825 7.49401 12.9825 7.49401 12.9826C7.49401 12.9827 7.49401 12.9828 7.49401 12.9828C7.49401 12.9829 7.49401 12.983 7.49401 12.983C7.49401 12.9831 7.49401 12.9832 7.49401 12.9833C7.49401 12.9833 7.49401 12.9834 7.49401 12.9835C7.49401 12.9836 7.49401 12.9836 7.49401 12.9837C7.49401 12.9838 7.49401 12.9838 7.49401 12.9839C7.49401 12.984 7.49401 12.9841 7.49401 12.9841C7.49401 12.9842 7.49401 12.9843 7.49401 12.9844C7.49401 12.9844 7.49401 12.9845 7.49401 12.9846C7.49401 12.9846 7.49401 12.9847 7.49401 12.9848C7.49401 12.9849 7.49401 12.9849 7.49401 12.985C7.49401 12.9851 7.49401 12.9852 7.49401 12.9852C7.49401 12.9853 7.49401 12.9854 7.49401 12.9854C7.49401 12.9855 7.49401 12.9856 7.49401 12.9857C7.49401 12.9857 7.49401 12.9858 7.49401 12.9859C7.49401 12.986 7.49401 12.986 7.49401 12.9861C7.49401 12.9862 7.49401 12.9863 7.49401 12.9863C7.49401 12.9864 7.49401 12.9865 7.49401 12.9865C7.49401 12.9866 7.49401 12.9867 7.49401 12.9868C7.49401 12.9868 7.49401 12.9869 7.49401 12.987C7.49401 12.9871 7.49401 12.9871 7.49401 12.9872C7.49401 12.9873 7.49401 12.9873 7.49401 12.9874C7.49401 12.9875 7.49401 12.9876 7.49401 12.9876C7.49401 12.9877 7.49401 12.9878 7.49401 12.9879C7.49401 12.9879 7.49401 12.988 7.49401 12.9881C7.49401 12.9881 7.49401 12.9882 7.49401 12.9883C7.49401 12.9884 7.49401 12.9884 7.49401 12.9885C7.49401 12.9886 7.49401 12.9887 7.49401 12.9887C7.49401 12.9888 7.49401 12.9889 7.49401 12.9889C7.49401 12.989 7.49401 12.9891 7.49401 12.9892C7.49401 12.9892 7.49401 12.9893 7.49401 12.9894C7.49401 12.9895 7.49401 12.9895 7.49401 12.9896C7.49401 12.9897 7.49401 12.9898 7.49401 12.9898C7.49401 12.9899 7.49401 12.99 7.49401 12.99C7.49401 12.9901 7.49401 12.9902 7.49401 12.9903C7.49401 12.9903 7.49401 12.9904 7.49401 12.9905C7.49401 12.9906 7.49401 12.9906 7.49401 12.9907C7.49401 12.9908 7.49401 12.9908 7.49401 12.9909C7.49401 12.991 7.49401 12.9911 7.49401 12.9911C7.49401 12.9912 7.49401 12.9913 7.49401 12.9914C7.49401 12.9914 7.49401 12.9915 7.49401 12.9916C7.49401 12.9916 7.49401 12.9917 7.49401 12.9918C7.49401 12.9919 7.49401 12.9919 7.49401 12.992C7.49401 12.9921 7.49401 12.9922 7.49401 12.9922C7.49401 12.9923 7.49401 12.9924 7.49401 12.9924C7.49401 12.9925 7.49401 12.9926 7.49401 12.9927C7.49401 12.9927 7.49401 12.9928 7.49401 12.9929C7.49401 12.993 7.49401 12.993 7.49401 12.9931C7.49401 12.9932 7.49401 12.9933 7.49401 12.9933C7.49401 12.9934 7.49401 12.9935 7.49401 12.9935C7.49401 12.9936 7.49401 12.9937 7.49401 12.9938C7.49401 12.9938 7.49401 12.9939 7.49401 12.994C7.49401 12.9941 7.49401 12.9941 7.49401 12.9942C7.49401 12.9943 7.49401 12.9943 7.49401 12.9944C7.49401 12.9945 7.49401 12.9946 7.49401 12.9946C7.49401 12.9947 7.49401 12.9948 7.49401 12.9949C7.49401 12.9949 7.49401 12.995 7.49401 12.9951C7.49401 12.9951 7.49401 12.9952 7.49401 12.9953C7.49401 12.9954 7.49401 12.9954 7.49401 12.9955C7.49401 12.9956 7.49401 12.9957 7.49401 12.9957C7.49401 12.9958 7.49401 12.9959 7.49401 12.9959C7.49401 12.996 7.49401 12.9961 7.49401 12.9962C7.49401 12.9962 7.49401 12.9963 7.49401 12.9964C7.49401 12.9965 7.49401 12.9965 7.49401 12.9966C7.49401 12.9967 7.49401 12.9968 7.49401 12.9968C7.49401 12.9969 7.49401 12.997 7.49401 12.997C7.49401 12.9971 7.49401 12.9972 7.49401 12.9973C7.49401 12.9973 7.49401 12.9974 7.49401 12.9975C7.49401 12.9976 7.49401 12.9976 7.49401 12.9977C7.49401 12.9978 7.49401 12.9978 7.49401 12.9979C7.49401 12.998 7.49401 12.9981 7.49401 12.9981C7.49401 12.9982 7.49401 12.9983 7.49401 12.9984C7.49401 12.9984 7.49401 12.9985 7.49401 12.9986C7.49401 12.9986 7.49401 12.9987 7.49401 12.9988C7.49401 12.9989 7.49401 12.9989 7.49401 12.999C7.49401 12.9991 7.49401 12.9992 7.49401 12.9992C7.49401 12.9993 7.49401 12.9994 7.49401 12.9994C7.49401 12.9995 7.49401 12.9996 7.49401 12.9997C7.49401 12.9997 7.49401 12.9998 7.49401 12.9999C7.49401 13 7.49401 13 7.49401 13.0001C7.49401 13.0002 7.49401 13.0003 7.49401 13.0003C7.49401 13.0004 7.49401 13.0005 7.49401 13.0005C7.49401 13.0006 7.49401 13.0007 7.49401 13.0008C7.49401 13.0008 7.49401 13.0009 7.49401 13.001C7.49401 13.0011 7.49401 13.0011 7.49401 13.0012C7.49401 13.0013 7.49401 13.0013 7.49401 13.0014C7.49401 13.0015 7.49401 13.0016 7.49401 13.0016C7.49401 13.0017 7.49401 13.0018 7.49401 13.0019C7.49401 13.0019 7.49401 13.002 7.49401 13.0021C7.49401 13.0021 7.49401 13.0022 7.49401 13.0023C7.49401 13.0024 7.49401 13.0024 7.49401 13.0025C7.49401 13.0026 7.49401 13.0027 7.49401 13.0027C7.49401 13.0028 7.49401 13.0029 7.49401 13.0029C7.49401 13.003 7.49401 13.0031 7.49401 13.0032C7.49401 13.0032 7.49401 13.0033 7.49401 13.0034C7.49401 13.0035 7.49401 13.0035 7.49401 13.0036C7.49401 13.0037 7.49401 13.0038 7.49401 13.0038C7.49401 13.0039 7.49401 13.004 7.49401 13.004C7.49401 13.0041 7.49401 13.0042 7.49401 13.0043C7.49401 13.0043 7.49401 13.0044 7.49401 13.0045H8.24401ZM8.24401 12.8925L8.99318 12.9278C9.07033 11.2906 10.4538 10.0222 12.0916 10.0872L12.1213 9.33781L12.1511 8.5884C9.68991 8.49067 7.61078 10.3968 7.49484 12.8572L8.24401 12.8925ZM12.1213 9.33781L12.1228 10.0878C12.5207 10.0871 12.9157 10.1555 13.2902 10.2902L13.544 9.58448L13.7978 8.87874C13.2596 8.68517 12.6919 8.58672 12.1199 8.58781L12.1213 9.33781ZM13.544 9.58448L14.2109 9.9276C15.0177 8.35951 16.6465 7.38714 18.4096 7.42101L18.424 6.67115L18.4384 5.92128C16.1031 5.87643 13.9457 7.16436 12.8771 9.24136L13.544 9.58448ZM18.424 6.67115L18.4552 7.4205C20.8634 7.32022 22.8992 9.18651 23.0081 11.5944L23.7573 11.5605L24.5066 11.5266C24.3603 8.29325 21.6267 5.78714 18.3928 5.9218L18.424 6.67115ZM23.7573 11.5605L23.0073 11.5611C23.0077 11.9575 22.9454 12.3515 22.8228 12.7285L23.536 12.9605L24.2492 13.1925C24.4207 12.6652 24.5078 12.1142 24.5073 11.5598L23.7573 11.5605ZM23.536 12.9605L23.4294 13.7029C24.8203 13.9026 25.8683 15.0702 25.9171 16.4745L26.6667 16.4485L27.4162 16.4224C27.3421 14.2922 25.7525 12.5211 23.6426 12.2181L23.536 12.9605ZM26.6667 16.4485L25.9175 16.4135C25.8409 18.0515 24.4566 19.3207 22.818 19.2551L22.788 20.0045L22.758 20.7539C25.2204 20.8525 27.3008 18.9452 27.4159 16.4835L26.6667 16.4485ZM16 25.3378H16.75V17.3378H16H15.25V25.3378H16ZM16 25.3378L16.5303 25.8682L19.197 23.2015L18.6667 22.6712L18.1363 22.1409L15.4697 24.8075L16 25.3378ZM16 25.3378L16.5303 24.8075L13.8637 22.1409L13.3333 22.6712L12.803 23.2015L15.4697 25.8682L16 25.3378Z" fill="#B0B0C0"/>
</svg>
