<svg width="21" height="21" viewBox="0 0 21 21" fill="none" xmlns="http://www.w3.org/2000/svg">
<path d="M10.3999 13.0734C11.7806 13.0734 12.8999 11.9541 12.8999 10.5734C12.8999 9.19265 11.7806 8.07336 10.3999 8.07336C9.01919 8.07336 7.8999 9.19265 7.8999 10.5734C7.8999 11.9541 9.01919 13.0734 10.3999 13.0734Z" fill="#666D80"/>
<path fill-rule="evenodd" clip-rule="evenodd" d="M1.50274 10.1123C2.74212 6.38646 6.2565 3.69836 10.4003 3.69836C14.5422 3.69836 18.0553 6.38396 19.2962 10.1071C19.3965 10.408 19.3966 10.7335 19.2965 11.0345C18.0571 14.7603 14.5427 17.4484 10.3989 17.4484C6.25696 17.4484 2.74393 14.7628 1.50302 11.0397C1.40273 10.7388 1.40264 10.4132 1.50274 10.1123ZM14.7749 10.5734C14.7749 12.9896 12.8161 14.9484 10.3999 14.9484C7.98366 14.9484 6.0249 12.9896 6.0249 10.5734C6.0249 8.15712 7.98366 6.19836 10.3999 6.19836C12.8161 6.19836 14.7749 8.15712 14.7749 10.5734Z" fill="#666D80"/>
</svg>
