<svg width="41" height="41" viewBox="0 0 41 41" fill="none" xmlns="http://www.w3.org/2000/svg">
<rect x="3.02539" y="3.24829" width="34.875" height="34.875" rx="17.4375" stroke="#E8ECF6"/>
<path d="M25.9765 16.1228C25.9765 16.73 25.4844 17.2221 24.8772 17.2221C24.2701 17.2221 23.778 16.73 23.778 16.1228C23.778 15.5157 24.2701 15.0236 24.8772 15.0236C25.4844 15.0236 25.9765 15.5157 25.9765 16.1228Z" fill="#666D80"/>
<path fill-rule="evenodd" clip-rule="evenodd" d="M20.8466 23.8178C22.8703 23.8178 24.5108 22.1772 24.5108 20.1535C24.5108 18.1298 22.8703 16.4893 20.8466 16.4893C18.8229 16.4893 17.1823 18.1298 17.1823 20.1535C17.1823 22.1772 18.8229 23.8178 20.8466 23.8178ZM20.8466 22.3521C22.0608 22.3521 23.0451 21.3677 23.0451 20.1535C23.0451 18.9393 22.0608 17.955 20.8466 17.955C19.6323 17.955 18.648 18.9393 18.648 20.1535C18.648 21.3677 19.6323 22.3521 20.8466 22.3521Z" fill="#666D80"/>
<path fill-rule="evenodd" clip-rule="evenodd" d="M13.5181 19.8604C13.5181 17.3978 13.5181 16.1665 13.9973 15.2259C14.4189 14.3985 15.0916 13.7258 15.9189 13.3043C16.8595 12.825 18.0908 12.825 20.5534 12.825H21.1397C23.6023 12.825 24.8336 12.825 25.7742 13.3043C26.6016 13.7258 27.2743 14.3985 27.6958 15.2259C28.1751 16.1665 28.1751 17.3978 28.1751 19.8604V20.4467C28.1751 22.9093 28.1751 24.1406 27.6958 25.0812C27.2743 25.9085 26.6016 26.5812 25.7742 27.0028C24.8336 27.482 23.6023 27.482 21.1397 27.482H20.5534C18.0908 27.482 16.8595 27.482 15.9189 27.0028C15.0916 26.5812 14.4189 25.9085 13.9973 25.0812C13.5181 24.1406 13.5181 22.9093 13.5181 20.4467V19.8604ZM20.5534 14.2907H21.1397C22.3952 14.2907 23.2487 14.2919 23.9084 14.3458C24.5509 14.3983 24.8796 14.4934 25.1088 14.6102C25.6604 14.8913 26.1088 15.3397 26.3899 15.8913C26.5067 16.1205 26.6018 16.4491 26.6543 17.0917C26.7082 17.7514 26.7094 18.6049 26.7094 19.8604V20.4467C26.7094 21.7021 26.7082 22.5556 26.6543 23.2153C26.6018 23.8579 26.5067 24.1865 26.3899 24.4157C26.1088 24.9673 25.6604 25.4158 25.1088 25.6968C24.8796 25.8136 24.5509 25.9088 23.9084 25.9613C23.2487 26.0152 22.3952 26.0163 21.1397 26.0163H20.5534C19.2979 26.0163 18.4445 26.0152 17.7848 25.9613C17.1422 25.9088 16.8136 25.8136 16.5843 25.6968C16.0328 25.4158 15.5843 24.9673 15.3033 24.4157C15.1865 24.1865 15.0913 23.8579 15.0388 23.2153C14.9849 22.5556 14.9838 21.7021 14.9838 20.4467V19.8604C14.9838 18.6049 14.9849 17.7514 15.0388 17.0917C15.0913 16.4491 15.1865 16.1205 15.3033 15.8913C15.5843 15.3397 16.0328 14.8913 16.5843 14.6102C16.8136 14.4934 17.1422 14.3983 17.7848 14.3458C18.4445 14.2919 19.2979 14.2907 20.5534 14.2907Z" fill="#666D80"/>
</svg>
