<svg width="33" height="32" viewBox="0 0 33 32" fill="none" xmlns="http://www.w3.org/2000/svg">
<path fill-rule="evenodd" clip-rule="evenodd" d="M4.0481 12.4623C4.0481 8.34099 7.35508 5 11.4345 5C13.4197 5 15.2218 5.79194 16.5481 7.07759C17.8744 5.79194 19.6765 5 21.6617 5C25.7411 5 29.0481 8.34099 29.0481 12.4623C29.0481 16.0603 26.9618 19.3498 24.5289 21.832C22.0849 24.3255 19.096 26.2063 16.9065 26.9414C16.6738 27.0195 16.4224 27.0195 16.1897 26.9414C14.0002 26.2063 11.0113 24.3255 8.56733 21.832C6.13442 19.3498 4.0481 16.0603 4.0481 12.4623ZM11.4345 7.29608C8.61028 7.29608 6.32082 9.60907 6.32082 12.4623C6.32082 15.1784 7.92768 17.9162 10.1823 20.2164C12.2805 22.3572 14.7718 23.945 16.5481 24.6327C18.3244 23.945 20.8157 22.3572 22.9139 20.2164C25.1685 17.9162 26.7754 15.1784 26.7754 12.4623C26.7754 9.60908 24.4859 7.29608 21.6617 7.29608C19.9332 7.29608 18.4046 8.16146 17.4772 9.49189C17.2644 9.79726 16.9178 9.97893 16.5481 9.97893C16.1784 9.97893 15.8318 9.79726 15.619 9.49189C14.6916 8.16146 13.163 7.29608 11.4345 7.29608Z" fill="#F8FAFE"/>
</svg>
