<svg width="116" height="116" viewBox="0 0 116 116" fill="none" xmlns="http://www.w3.org/2000/svg">
<path d="M62.8125 72.4375C62.8125 69.7796 60.6579 67.625 58 67.625C55.3421 67.625 53.1875 69.7796 53.1875 72.4375V86.875C53.1875 89.5329 55.3421 91.6875 58 91.6875C60.6579 91.6875 62.8125 89.5329 62.8125 86.875V72.4375Z" fill="#666D80"/>
<path fill-rule="evenodd" clip-rule="evenodd" d="M29.125 33.9375V48.375H19.5C14.1843 48.375 9.875 52.6843 9.875 58V101.312C9.875 106.628 14.1843 110.938 19.5 110.938H96.5C101.816 110.938 106.125 106.628 106.125 101.312V58C106.125 52.6843 101.816 48.375 96.5 48.375H86.875V33.9375C86.875 17.9903 73.9471 5.0625 58 5.0625C42.0529 5.0625 29.125 17.9903 29.125 33.9375ZM58 14.6875C47.3686 14.6875 38.75 23.306 38.75 33.9375V48.375H77.25V33.9375C77.25 23.306 68.6314 14.6875 58 14.6875ZM19.5 58H96.5V101.312H19.5V58Z" fill="#666D80"/>
</svg>
