<svg width="32" height="32" viewBox="0 0 32 32" fill="none" xmlns="http://www.w3.org/2000/svg">
<path fill-rule="evenodd" clip-rule="evenodd" d="M12.244 14.2544C12.4003 14.0982 12.6122 14.0104 12.8332 14.0104C13.0541 14.0104 13.266 14.0982 13.4223 14.2544L16.1665 16.9986L18.9107 14.2544C18.9875 14.1748 19.0795 14.1113 19.1812 14.0677C19.2828 14.024 19.3922 14.001 19.5028 14C19.6135 13.9991 19.7232 14.0202 19.8256 14.0621C19.928 14.104 20.0211 14.1658 20.0993 14.2441C20.1776 14.3223 20.2394 14.4154 20.2813 14.5178C20.3232 14.6202 20.3443 14.7299 20.3434 14.8406C20.3424 14.9512 20.3194 15.0606 20.2757 15.1622C20.2321 15.2639 20.1686 15.3559 20.089 15.4327L16.7557 18.7661C16.5994 18.9223 16.3875 19.0101 16.1665 19.0101C15.9455 19.0101 15.7336 18.9223 15.5773 18.7661L12.244 15.4327C12.0878 15.2765 12 15.0645 12 14.8436C12 14.6226 12.0878 14.4107 12.244 14.2544Z" fill="#3F69D2"/>
</svg>
