<svg width="24" height="24" viewBox="0 0 24 24" fill="none" xmlns="http://www.w3.org/2000/svg">
<path fill-rule="evenodd" clip-rule="evenodd" d="M6.00003 7.10938V17.8906C5.99779 18.4466 6.13701 18.9812 6.38706 19.3768C6.6371 19.7723 6.97749 19.9965 7.33334 20H8.66666C9.0225 19.9965 9.3629 19.7723 9.61294 19.3768C9.86299 18.9812 10.0022 18.4466 9.99997 17.8906V7.10938C10.0022 6.55341 9.86299 6.01883 9.61294 5.62325C9.3629 5.22766 9.0225 5.00347 8.66666 5H7.33334C6.97749 5.00347 6.6371 5.22766 6.38706 5.62325C6.13701 6.01883 5.99779 6.55341 6.00003 7.10938Z" stroke="white" stroke-width="1.5" stroke-linecap="round" stroke-linejoin="round"/>
<path fill-rule="evenodd" clip-rule="evenodd" d="M14 7.10938V17.8906C13.9978 18.4466 14.137 18.9812 14.3871 19.3768C14.6371 19.7723 14.9775 19.9965 15.3333 20H16.6667C17.0225 19.9965 17.3629 19.7723 17.6129 19.3768C17.863 18.9812 18.0022 18.4466 18 17.8906V7.10938C18.0022 6.55341 17.863 6.01883 17.6129 5.62325C17.3629 5.22766 17.0225 5.00347 16.6667 5H15.3333C14.9775 5.00347 14.6371 5.22766 14.3871 5.62325C14.137 6.01883 13.9978 6.55341 14 7.10938V7.10938Z" stroke="white" stroke-width="1.5" stroke-linecap="round" stroke-linejoin="round"/>
</svg>
