<svg width="18" height="18" viewBox="0 0 18 18" fill="none" xmlns="http://www.w3.org/2000/svg">
<path fill-rule="evenodd" clip-rule="evenodd" d="M7.16992 0C11.1298 0 14.3398 3.21008 14.3398 7.16992C14.3398 8.80611 13.6432 10.4774 12.7206 11.684L17.5709 16.5312C17.9159 16.9019 17.9986 17.3463 17.7198 17.7198C17.4409 18.0933 16.7773 18.0933 16.3675 17.72L11.5161 12.8729C10.3103 13.7932 8.80393 14.3398 7.16992 14.3398C3.21008 14.3398 0 11.1298 0 7.16992C0 3.21008 3.21008 0 7.16992 0ZM7.16992 1.52539C3.93911 1.52539 1.48784 3.93699 1.48784 7.16992C1.48784 10.4029 3.68164 12.8729 7.16992 12.8729C10.6582 12.8729 12.9533 10.5125 12.9533 7.16992C12.9533 3.82729 10.4007 1.52539 7.16992 1.52539Z" fill="#B0B0C0"/>
</svg>
