<svg width="24" height="24" viewBox="0 0 24 24" fill="none" xmlns="http://www.w3.org/2000/svg">
<path fill-rule="evenodd" clip-rule="evenodd" d="M5.8033 15.6557C4.74416 15.5867 3.93981 14.6749 4.00354 13.6154V10.458C3.93981 9.39852 4.74416 8.4867 5.8033 8.41777H7.14644C7.54906 8.41524 7.93722 8.26731 8.2394 8.00123L10.1132 6.38485C10.6829 5.93597 11.4668 5.87431 12.0996 6.22859C12.7324 6.58288 13.0896 7.28339 13.0048 8.00366V16.0698C13.0896 16.79 12.7324 17.4905 12.0996 17.8448C11.4668 18.1991 10.6829 18.1375 10.1132 17.6886L8.23698 16.0722C7.93479 15.8061 7.54663 15.6582 7.14401 15.6557H5.8033Z" stroke="white" stroke-width="1.5" stroke-linecap="round" stroke-linejoin="round"/>
<path d="M19.7377 6.02C19.4886 5.6891 19.0184 5.62283 18.6875 5.87198C18.3566 6.12113 18.2903 6.59136 18.5395 6.92226L19.7377 6.02ZM18.5395 17.1525C18.2903 17.4834 18.3566 17.9536 18.6875 18.2028C19.0184 18.4519 19.4886 18.3857 19.7377 18.0548L18.5395 17.1525ZM16.6843 7.37317C16.4139 7.05942 15.9403 7.02432 15.6265 7.29476C15.3128 7.56519 15.2777 8.03877 15.5481 8.35251L16.6843 7.37317ZM15.5481 15.7222C15.2777 16.036 15.3128 16.5096 15.6265 16.78C15.9403 17.0504 16.4139 17.0153 16.6843 16.7016L15.5481 15.7222ZM19.1386 6.47113L18.5395 6.92226C20.82 9.95106 20.82 14.1237 18.5395 17.1525L19.1386 17.6036L19.7377 18.0548C22.4206 14.4917 22.4206 9.58305 19.7377 6.02L19.1386 6.47113ZM16.1162 7.86284L15.5481 8.35251C17.3734 10.47 17.3734 13.6047 15.5481 15.7222L16.1162 16.2119L16.6843 16.7016C18.9947 14.0213 18.9947 10.0535 16.6843 7.37317L16.1162 7.86284Z" fill="white"/>
</svg>
