<svg width="24" height="24" viewBox="0 0 24 24" fill="none" xmlns="http://www.w3.org/2000/svg">
<path fill-rule="evenodd" clip-rule="evenodd" d="M4.80274 15.6527C3.74393 15.5837 2.93983 14.6722 3.00354 13.6131V10.4566C2.93983 9.39746 3.74393 8.48593 4.80274 8.41702H6.14546C6.54796 8.41448 6.93599 8.2666 7.23809 8.0006L9.11134 6.38473C9.68081 5.93599 10.4645 5.87435 11.0971 6.22852C11.7297 6.5827 12.0868 7.28299 12.002 8.00303V16.0666C12.0868 16.7867 11.7297 17.487 11.0971 17.8411C10.4645 18.1953 9.68081 18.1337 9.11134 17.6849L7.23566 16.0691C6.93356 15.8031 6.54553 15.6552 6.14303 15.6527H4.80274Z" stroke="white" stroke-width="1.5" stroke-linecap="round" stroke-linejoin="round"/>
<path d="M14.6136 13.9326C14.3207 14.2255 14.3207 14.7004 14.6136 14.9933C14.9064 15.2862 15.3813 15.2862 15.6742 14.9933L14.6136 13.9326ZM18.1023 12.5652C18.3952 12.2723 18.3952 11.7975 18.1023 11.5046C17.8094 11.2117 17.3345 11.2117 17.0416 11.5046L18.1023 12.5652ZM17.0416 11.5046C16.7487 11.7975 16.7487 12.2723 17.0416 12.5652C17.3345 12.8581 17.8094 12.8581 18.1023 12.5652L17.0416 11.5046ZM20.5303 10.1372C20.8232 9.84426 20.8232 9.36939 20.5303 9.0765C20.2375 8.7836 19.7626 8.7836 19.4697 9.0765L20.5303 10.1372ZM18.1023 11.5046C17.8094 11.2117 17.3345 11.2117 17.0416 11.5046C16.7487 11.7975 16.7487 12.2723 17.0416 12.5652L18.1023 11.5046ZM19.4697 14.9933C19.7626 15.2862 20.2375 15.2862 20.5303 14.9933C20.8232 14.7004 20.8232 14.2255 20.5303 13.9326L19.4697 14.9933ZM17.0416 12.5652C17.3345 12.8581 17.8094 12.8581 18.1023 12.5652C18.3952 12.2723 18.3952 11.7975 18.1023 11.5046L17.0416 12.5652ZM15.6742 9.0765C15.3813 8.7836 14.9065 8.7836 14.6136 9.0765C14.3207 9.36939 14.3207 9.84426 14.6136 10.1372L15.6742 9.0765ZM15.1439 14.463L15.6742 14.9933L18.1023 12.5652L17.572 12.0349L17.0416 11.5046L14.6136 13.9326L15.1439 14.463ZM17.572 12.0349L18.1023 12.5652L20.5303 10.1372L20 9.60683L19.4697 9.0765L17.0416 11.5046L17.572 12.0349ZM17.572 12.0349L17.0416 12.5652L19.4697 14.9933L20 14.463L20.5303 13.9326L18.1023 11.5046L17.572 12.0349ZM17.572 12.0349L18.1023 11.5046L15.6742 9.0765L15.1439 9.60683L14.6136 10.1372L17.0416 12.5652L17.572 12.0349Z" fill="white"/>
</svg>
