<svg width="41" height="41" viewBox="0 0 41 41" fill="none" xmlns="http://www.w3.org/2000/svg">
<rect x="2.67871" y="3.24817" width="34.875" height="34.875" rx="17.4375" stroke="#E8ECF6"/>
<path d="M18.0595 26.533C16.2603 26.533 14.5831 26.0097 13.1714 25.1067C14.37 25.1843 16.4852 24.9986 17.8008 23.7436C15.8216 23.6528 14.9291 22.1349 14.8126 21.4862C14.9808 21.5511 15.7828 21.6289 16.2356 21.4473C13.9589 20.8764 13.6096 18.8785 13.6872 18.2687C14.1141 18.5671 14.8385 18.6709 15.1231 18.6449C13.0016 17.127 13.7648 14.8436 14.14 14.3506C15.6624 16.4598 17.9441 17.6444 20.7668 17.7103C20.7136 17.4769 20.6855 17.2339 20.6855 16.9843C20.6855 15.193 22.1334 13.7408 23.9194 13.7408C24.8526 13.7408 25.6935 14.1373 26.2837 14.7714C26.9073 14.6252 27.8458 14.2832 28.3046 13.9873C28.0734 14.8177 27.3534 15.5103 26.9179 15.7671C26.9144 15.7583 26.9215 15.7758 26.9179 15.7671C27.3005 15.7092 28.3355 15.5103 28.7445 15.2328C28.5422 15.6993 27.7789 16.4749 27.1525 16.9091C27.2691 22.0491 23.3364 26.533 18.0595 26.533Z" fill="#666D80"/>
</svg>
