<svg width="716" height="765" viewBox="0 0 716 765" fill="none" xmlns="http://www.w3.org/2000/svg">
<path d="M253.59 705.092C253.107 701.498 252.858 696.354 252.806 692.496C252.786 691.267 253.381 691.811 253.39 690.957C253.411 689.341 252.968 687.821 253.013 686.162C253.029 685.6 253.947 686.187 253.944 685.596C253.94 682.519 253.338 679.503 253.111 676.41C251.945 660.86 250.001 645.458 248.023 629.78C247.986 629.49 247.951 629.196 247.916 628.897C247.353 623.975 247.092 617.856 246.018 612.903C245.884 612.288 245.212 612.769 245.133 612.66C243.93 610.938 245.495 611.332 245.503 610.074C245.539 605.138 244.785 599.754 243.795 595.148C243.368 593.165 242.228 595.396 242.731 593.25C242.765 593.104 243.615 593.485 243.616 592.935C243.617 591.702 243.126 589.403 243.041 588.435C242.883 586.577 242.824 586.245 242.569 584.512C242.232 582.17 242.187 579.287 241.619 576.724C241.497 576.188 240.812 577.022 240.547 576.186C240.283 575.353 240.004 573.058 240.073 572.253C240.143 571.449 240.816 571.684 240.938 571.525C241.975 570.221 239.893 567.758 239.805 567.452C238.165 561.362 238.313 555.878 237.427 549.975C236.767 545.598 235.731 540.801 235.155 536.616C234.457 531.538 234.265 527.259 233.467 522.334C233.384 521.814 232.54 522.561 232.436 521.926C231.349 515.27 230.481 508.589 230.145 501.79C230.112 501.107 231.057 501.855 231.073 501.17C231.162 497.018 231.846 490.243 227.935 488.35C227.682 485.567 227.344 482.145 227.716 479.57C227.954 477.909 229.066 479.334 228.409 477.426C228.262 476.995 227.56 477.681 227.399 477.026C226.72 474.275 226.541 471.141 225.754 468.446C225.592 467.895 224.912 468.146 224.764 468.004C223.555 466.807 224.935 464.336 224.991 463.831C225.392 459.979 224.661 457.333 224.21 453.87C224.106 453.067 223.294 454.145 223.16 453.376C222.475 449.373 221.997 445.232 221.887 441.245C221.865 440.358 222.776 441.054 222.807 440.625C222.932 438.733 221.36 438.524 221.453 436.722C221.47 436.342 222.186 436.459 222.252 436.381C223.296 435.164 221.494 434.466 221.421 434.198C220.456 430.816 221.915 428.359 221.23 425.065C221.146 424.67 220.394 425.684 220.212 424.567C218.991 417.121 218.212 409.177 217.974 401.683C217.936 400.519 218.694 401.258 218.765 401.176C219.876 399.836 218.092 399.285 217.982 398.917C217.152 396.012 218.224 393.069 215.964 391.304C215.111 378.669 212.493 366.304 212.882 353.632C212.885 353.472 213.75 353.661 213.752 353.341C213.79 349.492 212.578 350.361 210.714 348.017C210.245 347.425 211.941 345.281 212.063 345.095C212.51 344.416 213.82 344.924 213.897 344.705C214.492 342.896 210.425 343.629 210.169 341.306C210.168 341.233 210.956 341.455 211.009 341.252C211.179 340.621 210.814 340.055 211.008 339.43C211.461 338.002 213.399 337.301 212.017 335.35C211.838 335.104 209.556 335.755 209.443 333.665C209.399 332.829 208.973 329.186 209.015 328.129C209.057 327.083 209.881 327.712 209.906 327.635C210.607 324.759 211.128 325.768 212.451 324.229C213.769 322.694 210.323 323.438 209.875 322.914C209.429 322.388 210.039 320.28 210.273 319.755C210.507 319.23 211.046 319.8 211.162 319.343C211.245 319.01 211.287 318.737 211.296 318.513C211.364 316.685 209.229 318.13 208.648 317.314C207.106 315.153 209.516 313.115 209.564 311.008C209.577 310.437 209.033 310.955 208.928 310.459C208.523 308.498 209.213 307.213 208.253 305.009C208.096 304.648 206.364 302.959 207.393 301.665C207.542 301.482 208.232 301.897 208.296 301.035C208.392 299.745 208.32 297.467 207.977 296.106C207.723 295.109 206.768 296.367 206.98 295.063C207.075 294.484 207.794 295.474 207.921 294.391C208.048 293.313 207.774 290.624 207.661 289.606C207.547 288.589 206.791 289.219 206.729 289.142C206.373 288.673 205.808 286.75 205.793 286.57C204.909 277.789 205.591 269.656 204.453 261.12C204.366 260.454 203.55 260.967 203.528 260.867C202.989 258.609 205.396 260.23 206.026 258.577C204.317 258.939 204.557 257.993 204.239 256.377C204.085 255.602 203.45 256.081 203.376 256.015C202.269 254.933 203.519 254.026 203.771 253.797C204.699 252.955 203.469 252.213 204.089 251.643C204.704 251.074 205.767 252.193 205.636 250.649C204.985 250.264 203.456 251.534 203.105 250.381C201.773 246.025 202.438 237.664 202.319 234.055C202.2 230.474 202.01 229.377 202.09 227.259C202.24 223.465 201.134 224.927 200.429 222.635C199.726 220.343 202.753 221.281 203.366 220.905C203.978 220.536 203.302 220.221 203.624 219.792C203.946 219.364 204.435 220.212 204.504 219.251C204.571 218.277 203.272 215.708 202.587 215.412C201.135 214.781 199.734 216.058 200.091 213.483C200.113 213.335 200.919 213.759 200.962 213.195C201.281 208.746 201.034 204.073 201.304 199.61C201.342 198.991 202.238 199.49 202.27 199.13C202.607 195.381 201.228 196.796 199.493 194.861C201.673 195.187 202.927 194.018 202.783 191.193C202.696 189.492 201.772 189.838 201.049 188.778C200.831 188.46 201.412 187.229 200.958 187.037C199.473 186.404 197.913 187.609 198.404 184.693C198.427 184.565 199.241 184.924 199.265 184.486C199.428 181.624 197.896 181.341 197.555 178.286C197.289 175.923 197.995 171.524 198.016 168.806C200.441 168.749 199.763 166.197 198.043 165.208C198.027 163.413 197.844 161.499 197.999 159.785C198.051 159.195 198.77 159.548 198.842 159.471C199.98 158.276 198.319 157.557 198.239 157.176C197.435 153.028 198.523 149.585 197.158 145.664C197.109 145.526 195.416 145.365 196.603 144.263C196.685 144.192 197.503 145.46 197.488 143.608C197.471 141.7 198.237 138.153 197.361 135.599C197.149 134.97 195.723 133.416 196.745 132.104C196.884 131.929 197.374 132.098 197.634 131.843C198.461 131.022 196.744 130.652 198.157 129.678C199.571 128.729 200.583 126.687 199.497 124.124C199.466 124.042 198.096 123.47 198.09 122.655C198.082 121.368 198.3 119.437 198.248 118.076C198.223 117.421 197.398 117.867 197.379 117.754C196.771 113.386 197.423 110.215 197.611 105.434C197.647 104.547 196.437 102.16 197.294 100.403C198.234 98.5267 202.396 100.29 201.307 96.1201C200.871 94.4153 195.597 92.3559 198.227 89.2438C197.415 83.3021 198.678 77.7236 197.6 71.781C197.552 71.51 196.078 70.6857 196.085 70.0593C196.099 69.121 196.77 68.6401 196.801 67.9363C196.879 66.441 196.745 65.0509 196.604 63.7037C196.474 62.3925 196.338 61.1236 196.357 59.8532C196.371 58.8577 197.082 59.1721 197.097 57.9334C197.112 56.6813 196.171 55.9495 196.588 54.2475C196.905 52.9443 198.778 51.7476 198.968 50.0274C197.098 49.9906 197.115 48.8516 196.586 46.8407C196.483 46.4431 195.84 46.8826 195.758 46.6952C195.409 45.9336 195.936 45.2291 195.559 44.5359C195.469 44.3674 194.83 44.3705 194.72 44.234C193.759 43.0299 195.161 41.01 195.406 40.6913C196.333 39.332 195.493 38.7361 195.852 37.7542C196.209 36.7358 196.701 38.2591 196.909 37.0529C197.34 34.6334 197.19 31.4813 197.188 29.034C197.183 28.0427 196.34 28.7298 196.319 28.588C196.078 26.5847 196.962 24.4696 195.255 23.3955C199.632 21.9182 194.815 22.1622 195.68 19.244C195.75 19.0207 197.824 18.7197 198.132 19.5912C198.441 20.4888 197.801 21.8023 198.286 23.0158C198.4 23.3443 200.361 24.9091 200.481 25.1664C201.421 26.8865 198.324 27.2098 198.154 27.3035C196.328 28.3513 198.45 30.3837 198.602 30.8929C199.299 33.3441 198.894 35.3591 199.401 37.4409C199.727 38.7409 201.761 38.8341 201.716 39.8972C201.568 43.3569 198.755 44.6178 201.271 47.8717C201.807 48.5605 204.014 47.7958 202.314 50.3764C202.208 50.5731 200.644 52.4007 201.674 53.4826C201.804 53.6172 202.451 53.6008 202.509 53.7809C202.883 55.019 202.382 55.7677 202.653 57.0758C202.925 58.3955 203.323 59.9476 203.132 61.4335C203.043 62.1393 202.298 63.0296 201.842 63.6021C201.715 63.7518 201.611 63.8781 201.549 63.9705C200.722 65.1728 202.141 66.4512 201.127 67.2356C200.107 68.026 198.506 66.5533 197.878 68.5837C199.56 68.6223 201.288 68.7535 202.981 68.836C203.008 73.1526 202.556 77.5485 202.726 81.8466C202.749 82.3916 203.64 81.8133 203.688 82.3981C203.888 84.9065 203.291 86.9525 203.61 89.5567C203.858 91.4867 204.868 93.6172 205.163 95.7003C203.271 96.9719 204.004 100.017 203.89 102.255C203.85 103.022 203.335 102.986 203.183 103.538C202.621 105.628 204.293 104.61 204.577 105.172C205.788 107.597 201.948 107.941 202.128 110.798C202.136 110.949 204.243 112.761 204.379 113.019C205.262 114.646 203.673 113.313 203.554 114.355C203.335 116.232 202.885 117.517 203.557 119.71C203.756 120.347 205.085 121.864 204.138 123.115C204.014 123.282 203.333 123.215 203.298 123.347C202.716 125.738 204.848 125.735 205.617 127.078C206.386 128.445 204.99 130.556 204.582 131.004C203.526 132.157 204.083 130.167 203.973 130.112C202.668 129.452 202.943 130.962 202.877 132.138C200.796 132.382 200.981 134.023 202.818 133.359C203.018 133.283 202.79 132.376 202.877 132.138C204.962 133.082 205.292 134.919 203.453 136.955C202.591 137.914 201.511 137.071 202.002 139.881C202.225 141.161 203.643 140.607 204.079 141.731C205.076 144.322 203.87 147.662 204.195 150.366C204.313 151.341 205.06 150.356 205.167 151.019C205.454 152.744 204.931 154.311 205.311 156.066C205.346 156.225 206.152 155.797 206.187 156.347C206.468 160.529 206.105 164.135 206.299 168.48C206.391 170.546 207.034 174.331 207.051 176.475C207.087 180.216 206.138 184.944 206.603 188.122C206.905 190.212 207.703 189.707 208.314 190.579C209.498 192.283 207.722 195.404 207.446 195.846C207.436 195.858 207.14 194.072 206.772 195.055C205.924 195.663 207.441 195.826 207.446 195.846C207.266 196.124 207.288 199.748 207.489 200.464C207.598 200.851 208.365 200.586 208.407 200.788C209.386 205.513 209.883 210.37 209.83 215.251C209.82 215.338 208.94 215.264 208.927 215.469C208.722 218.338 209.906 220.067 210.694 222.347C211.481 224.629 211.395 226.5 209.995 227.993C210.302 229.723 209.816 232.283 209.517 233.767C209.219 235.249 210.93 235.334 210.972 235.459C212.331 239.389 211.524 241.706 211.684 245.879C211.757 247.862 212.296 251.699 212.649 253.824C212.929 255.495 212.613 256.558 212.988 258.068C213.038 258.273 213.777 258.003 213.811 258.064C214.85 259.711 212.939 259.032 212.638 259.413C211.543 260.798 210.968 261.646 211.712 263.819C211.882 264.319 214.661 265.597 214.893 266.517C215.189 267.7 214.199 267.326 214.535 268.566C214.562 268.672 215.148 268.6 215.187 269.38C215.375 273 215.374 277.012 215.76 280.748C215.811 281.261 216.685 280.52 216.773 281.261C217.19 284.744 217.498 288.561 217.374 291.989C217.341 292.835 216.641 292.371 216.464 292.571C215.395 293.793 217.244 295.222 217.301 295.48C218.696 301.594 217.618 306.536 218.977 312.766C219.054 313.106 221.143 315.579 219.701 316.926C219.655 316.97 219.297 317.295 219.062 317.725C218.803 318.194 218.694 318.789 219.323 319.272C219.398 319.329 220.147 318.518 220.193 319.795C220.239 321.073 220.999 323.061 220.278 324.907C220.051 325.491 218.593 326.971 220.039 328.495C220.139 328.593 223.281 330.829 221.396 331.949C221.086 332.132 218.971 332.201 220.258 334.057C220.507 334.412 220.901 333.677 221.3 334.639C221.914 336.109 221.572 338.199 222.711 339.958C222.911 340.264 224.486 341.491 223.529 342.721C223.379 342.914 222.642 342.661 222.629 343.256C222.561 346.087 223.359 348.981 223.195 351.859C223.138 352.882 221.949 352.497 221.765 353.578C221.58 354.659 221.53 356.804 222.174 357.843C222.817 358.881 224.482 357.474 224.816 359.102C226.265 366.161 226.046 373.356 226.756 380.501C226.861 381.561 227.399 380.606 227.601 382.163C228.345 387.895 230.183 397.73 229.448 402.88C228.858 407.009 227.385 402.093 227.327 405.2C227.301 406.701 229.598 408.026 229.709 408.373C230.823 411.759 230.206 414.279 230.897 417.372C231.039 418.01 231.805 417.267 231.917 417.811C232.308 419.667 232.187 421.686 232.491 423.465C232.629 424.264 233.257 424.031 233.304 424.775C233.424 426.554 233.359 428.162 232.981 429.967C232.947 430.131 232.001 429.177 232.144 430.491C232.379 432.618 232.129 435.317 233.074 437.674C233.357 438.374 234.84 438.204 234.028 439.897C233.858 440.252 232.026 440.075 233.805 441.68C234.101 441.951 236.581 444.709 235.448 446.377C235.15 446.816 233.833 448.017 234.18 448.859C234.233 448.972 234.963 448.391 235.138 449.103C235.744 451.612 236.023 454.284 236.629 456.849C236.792 457.533 237.472 456.387 237.69 457.411C238.29 460.24 238.575 463.841 238.705 466.655C238.751 467.694 237.972 467.08 237.908 467.165C236.87 468.531 238.596 469.016 238.746 469.405C239.662 471.82 239.164 473.82 239.687 476.077C239.829 476.699 240.542 476.143 240.629 476.259C241.487 477.464 239.959 476.692 239.921 477.536C239.809 479.891 240.241 482.496 240.671 484.813C240.83 485.666 241.592 484.574 241.725 485.341C242.522 489.844 243.124 494.663 243.264 499.147C243.289 499.993 242.522 499.568 242.389 499.766C241.458 501.139 243.222 502.693 243.424 503.079C244.348 504.834 243.84 505.639 244.189 507.247C245.914 515.143 246.95 525.019 247.815 532.583C248.938 542.38 249.429 550.155 251.001 559.437C251.101 560.033 251.93 559.292 252.028 559.804C253.245 566.376 253.862 572.872 255.144 579.522C255.247 580.061 256 579.148 256.193 580.007C256.595 581.755 256.893 584.03 256.893 585.9C256.894 586.806 255.965 585.733 255.981 586.642C256.018 588.771 256.281 590.907 256.754 593.071C256.954 593.974 257.636 592.463 257.827 593.645C259.129 601.588 260.492 609.473 260.57 617.745C260.575 618.307 258.837 619.068 259.36 620.169C259.876 620.179 260.467 620.085 261.01 620.041C261.413 622.314 261.778 624.578 262.105 626.75C263.52 636.159 264.493 645.649 265.758 655.077C265.823 655.56 266.665 654.591 266.796 655.523C267.575 661.104 268.592 666.466 268.394 672.281C268.375 672.858 266.638 672.746 267.12 674.427C267.211 674.75 267.751 677.125 268.21 677.791C268.277 677.873 269.008 677.307 269.137 678.125C269.863 682.835 270.281 687.737 270.318 692.587C270.322 693.366 269.39 692.639 269.384 693.191C269.344 697.055 270.411 701.291 269.85 705.203C269.452 707.832 267.941 706.953 266.524 708.346C266.332 708.557 266.269 710.21 265.413 710.249C263.295 710.319 261.012 709.55 258.75 709.728C258.277 709.794 258.666 711.211 257.577 710.29C257.512 710.243 257.171 709.196 256.767 708.868C256.492 708.669 255.637 709.024 255.285 708.619C254.931 708.215 255.641 707.741 255.197 706.982C254.745 706.247 253.797 706.643 253.59 705.092ZM208.192 240.434C207.476 241.835 210.473 241.814 209.654 240.417C209.611 240.349 208.227 240.362 208.192 240.434ZM200.3 77.5096C199.02 79.3482 200.984 80.4414 201.977 79.2063C202.968 77.9696 200.688 76.948 200.3 77.5096ZM198.972 59.2586C197.971 61.2958 202.218 61.539 201.319 59.387C201.268 59.2629 199.03 59.1404 198.972 59.2586ZM265.797 702.157C265.76 702.191 265.803 703.285 265.842 703.299C266.833 703.816 266.748 701.618 265.797 702.157ZM197.596 41.114C197.033 41.7418 197.727 43.6109 198.426 42.7884C198.989 42.1164 198.297 40.3198 197.596 41.114ZM211.011 310.808C210.969 310.834 211.005 311.614 211.255 311.574C212.057 311.441 211.722 310.383 211.011 310.808ZM197.385 10.3407C197.059 14.806 193.598 17.6281 194.04 12.599C194.128 11.7096 195.125 14.5558 195.459 13.4254C196.071 11.359 193.907 9.80501 195.299 7.71354C195.542 7.35812 197.393 10.1196 197.389 10.3487C197.388 10.346 197.386 10.3433 197.385 10.3407ZM204.666 241.468C204.628 241.498 204.67 242.58 204.711 242.603C205.701 243.118 205.617 240.938 204.666 241.468ZM214.023 356.42C213.946 356.488 214.154 358.997 214.241 359.07C215.933 360.197 215.516 355.125 214.023 356.42ZM198.078 168.76C197.068 167.642 196.888 166.218 198.042 165.214C198.034 166.399 198.081 167.592 198.078 168.76Z" fill="#EFF8FB"/>
<path d="M437.868 5.57965C438.49 9.12747 438.785 14.3242 438.809 18.1234C438.819 19.3244 438.169 18.7886 438.153 19.6486C438.116 21.2567 438.595 22.8506 438.509 24.3896C438.481 24.9251 437.485 24.3816 437.477 24.9433C437.449 28.1117 438.026 30.8795 438.219 34.0426C439.139 49.3571 440.729 64.5458 442.281 79.916C442.813 85.1367 442.783 91.4472 443.811 96.5344C443.933 97.1414 444.69 96.6721 444.772 96.7801C446.024 98.4857 444.322 98.0855 444.263 99.3256C444.028 104.191 444.65 109.561 445.542 113.996C445.927 115.903 447.272 113.761 446.629 115.825C446.586 115.969 445.669 115.588 445.647 116.132C445.599 117.363 446.054 119.67 446.112 120.644C446.13 120.942 446.145 121.202 446.16 121.434C446.231 122.588 446.292 123.017 446.468 124.434C446.748 126.742 446.689 129.594 447.219 132.144C447.333 132.674 448.116 131.859 448.374 132.674C448.631 133.486 448.848 135.724 448.741 136.511C448.634 137.296 447.904 137.063 447.764 137.218C446.577 138.493 448.765 140.888 448.855 141.226C450.434 147.255 450.078 152.689 450.829 158.401C451.396 162.688 452.381 167.507 452.863 171.552C453.446 176.458 453.541 180.856 454.243 185.566C454.317 186.07 455.268 185.343 455.36 185.959C456.35 192.567 457.089 199.054 457.264 205.758C457.28 206.432 456.264 205.695 456.227 206.374C456.017 210.517 455.062 217.05 459.314 218.959C459.525 221.75 459.794 225.027 459.322 227.569C459.019 229.205 457.834 227.81 458.508 229.685C458.659 230.108 459.446 229.428 459.607 230.072C460.283 232.77 460.408 235.888 461.205 238.503C461.37 239.041 462.123 238.789 462.282 238.927C463.581 240.088 462.007 242.521 461.935 243.017C461.404 246.781 462.157 249.439 462.577 252.814C462.673 253.597 463.589 252.535 463.719 253.285C464.382 257.173 464.829 261.258 464.878 265.189C464.887 266.064 463.899 265.388 463.858 265.812C463.686 267.669 465.406 267.84 465.272 269.612C465.246 269.985 464.463 269.88 464.388 269.957C463.221 271.166 465.187 271.826 465.263 272.088C466.266 275.397 464.623 277.821 465.328 281.072C465.415 281.46 466.256 280.452 466.439 281.546C467.662 288.799 468.426 296.638 468.611 303.966C468.642 305.109 467.817 304.399 467.738 304.482C466.505 305.821 468.459 306.326 468.578 306.685C469.462 309.521 468.264 312.449 470.732 314.121C471.581 326.503 474.43 338.578 474.051 351.025C474.048 351.183 473.098 351.026 473.097 351.34C473.072 355.129 474.399 354.228 476.459 356.461C476.976 357.024 475.127 359.185 474.995 359.374C474.509 360.057 473.066 359.604 472.984 359.822C472.344 361.623 476.803 360.758 477.104 363.034C477.105 363.106 476.239 362.916 476.182 363.118C476.001 363.745 476.407 364.29 476.198 364.908C475.714 366.323 473.591 367.083 475.129 368.943C475.327 369.178 477.826 368.452 477.972 370.496C478.028 371.311 478.541 374.883 478.508 375.915C478.475 376.942 477.562 376.359 477.536 376.436C476.804 379.285 476.219 378.318 474.788 379.884C473.363 381.449 477.137 380.572 477.636 381.068C478.134 381.566 477.497 383.664 477.249 384.191C477.001 384.718 476.399 384.18 476.279 384.635C475.502 387.652 478.342 385.644 479.072 386.508C480.8 388.541 478.193 390.653 478.183 392.736C478.181 393.3 478.767 392.763 478.892 393.248C479.378 395.169 478.647 396.457 479.748 398.565C479.928 398.91 481.867 400.475 480.767 401.795C480.608 401.982 479.841 401.609 479.791 402.458C479.715 403.721 479.853 405.976 480.264 407.286C480.568 408.251 481.585 406.967 481.385 408.256C481.296 408.83 480.481 407.896 480.37 408.965C480.259 410.029 480.633 412.657 480.787 413.653C480.942 414.648 481.754 413.986 481.824 414.059C482.228 414.503 482.904 416.359 482.925 416.528C484.153 425.08 483.684 433.081 485.271 441.403C485.394 442.052 486.268 441.495 486.296 441.593C486.978 443.777 484.272 442.338 483.647 444.006C485.507 443.534 485.285 444.5 485.697 446.04C485.897 446.782 486.575 446.276 486.659 446.335C487.916 447.309 486.582 448.274 486.314 448.512C485.33 449.388 486.713 450.041 486.058 450.647C485.407 451.251 484.192 450.214 484.404 451.734C485.136 452.072 486.757 450.713 487.193 451.83C488.849 456.072 488.496 464.204 488.814 467.779C489.123 471.284 489.393 472.382 489.41 474.427C489.44 478.119 490.574 476.583 491.472 478.8C492.371 481.021 488.998 480.322 488.347 480.742C487.696 481.156 488.456 481.416 488.127 481.868C487.797 482.318 487.213 481.512 487.192 482.472C487.172 483.435 488.738 485.838 489.506 486.074C491.134 486.574 492.598 485.217 492.351 487.758C492.336 487.904 491.427 487.554 491.412 488.108C491.308 492.433 491.871 497.098 491.845 501.449C491.841 502.05 490.828 501.644 490.815 501.995C490.674 505.658 492.096 504.131 494.124 505.911C491.712 505.763 490.416 507.068 490.758 509.827C490.962 511.483 491.953 511.065 492.815 512.037C493.075 512.329 492.519 513.582 493.029 513.729C494.699 514.216 496.328 512.904 495.984 515.791C495.966 515.918 495.051 515.639 495.053 516.069C495.058 518.817 496.764 519.014 497.35 521.991C497.813 524.35 497.33 528.571 497.51 531.272C494.857 531.556 495.791 534.04 497.747 534.833C497.896 536.586 498.237 538.438 498.196 540.122C498.183 540.702 497.369 540.426 497.295 540.509C496.137 541.776 498.005 542.272 498.124 542.648C499.33 546.709 498.404 550.179 500.199 553.791C500.265 553.925 502.132 553.923 500.924 555.15C500.84 555.229 499.838 554.032 500.009 555.897C500.18 557.763 499.631 561.328 500.794 563.684C500.9 563.899 501.204 564.22 501.488 564.608C501.964 565.294 502.387 566.171 501.759 567.051C501.622 567.239 501.071 567.121 500.809 567.401C499.972 568.302 501.885 568.494 500.42 569.604C498.956 570.712 498.011 572.748 499.41 575.081C499.45 575.142 501.003 575.595 501.083 576.416C501.209 577.733 501.131 579.605 501.306 580.929C501.39 581.563 502.255 581.042 502.285 581.15C503.312 585.208 502.915 588.677 503.108 593.148C503.143 593.983 504.703 596.358 503.914 598.095C503.053 600.009 498.338 598.744 499.904 602.663C500.542 604.329 506.505 605.79 503.904 609.055C505.351 614.882 504.467 620.318 506.2 626.062C506.277 626.321 507.966 626.965 508.015 627.573C508.085 628.48 507.395 629.034 507.421 629.689C507.531 632.597 508.429 634.81 508.642 637.586C508.718 638.59 507.91 638.332 507.998 639.504C508.079 640.614 509.197 641.434 508.882 643.08C508.64 644.321 506.7 645.756 506.635 647.435C508.689 647.305 508.756 648.316 509.51 650.306C509.655 650.686 510.323 650.193 510.429 650.369C510.874 651.081 510.354 651.816 510.822 652.448C510.934 652.601 511.634 652.538 511.765 652.659C512.917 653.758 511.539 655.879 511.294 656.2C510.379 657.587 511.349 658.145 511.027 659.122C510.704 660.099 510.062 658.735 509.916 659.87C509.624 662.337 509.992 665.341 510.11 667.743C510.16 668.693 511.055 667.989 511.084 668.123C511.445 670.131 510.513 672.079 512.329 673.262C510.363 673.781 510.037 673.943 510.257 674.261C510.314 674.325 510.397 674.433 510.496 674.531C510.595 674.627 510.71 674.739 510.794 674.884C510.885 674.995 510.946 675.269 510.657 675.391C510.396 675.494 510.129 675.442 509.928 675.408C509.534 675.338 509.138 675.119 508.796 674.637C508.657 674.438 509.781 672.435 510.659 672.657C510.955 672.73 511.219 672.927 511.489 673.161C511.553 673.218 511.581 673.243 511.491 673.207C511.411 673.198 511.162 672.988 510.425 673.08C509.62 673.219 509.252 673.778 509.185 673.907C509.089 674.085 509.09 674.143 509.091 674.146C509.119 674.127 509.137 673.745 508.98 673.42C508.885 673.17 506.75 671.742 506.608 671.518C505.554 669.974 508.934 669.584 509.12 669.477C511.091 668.315 508.657 666.503 508.46 666.024C507.557 663.704 507.863 661.718 507.157 659.724C506.706 658.509 504.468 658.584 504.436 657.53C504.338 654.191 507.319 652.711 504.288 649.723C503.645 649.119 501.291 650.077 502.94 647.433C503.046 647.277 504.588 645.19 503.375 644.326C503.221 644.212 502.514 644.294 502.436 644.129C501.926 643.025 502.4 642.148 501.986 640.885C501.58 639.7 501.008 638.234 501.078 636.708C501.114 635.74 502.316 634.585 502.589 634.115C503.386 632.849 501.714 631.736 502.751 630.848C503.795 629.965 505.68 631.211 506.187 629.194C504.341 629.338 502.437 629.397 500.577 629.5C500.154 625.294 500.257 621.069 499.658 616.755C499.585 616.244 498.661 616.887 498.557 616.34C498.124 614.055 498.559 611.74 497.986 609.355C497.539 607.516 496.239 605.541 495.723 603.506C497.67 601.991 496.609 599.235 496.528 596.999C496.5 596.223 497.067 596.204 497.182 595.631C497.602 593.461 495.866 594.661 495.506 594.148C493.972 591.979 498.149 591.265 497.694 588.448C497.672 588.301 495.202 586.724 495.03 586.48C493.918 584.956 495.773 586.091 495.816 585.079C495.897 583.272 496.277 581.96 495.353 579.896C495.08 579.294 493.495 577.955 494.418 576.573C494.539 576.391 495.29 576.389 495.317 576.251C495.749 573.846 493.421 574.115 492.468 572.898C491.517 571.69 492.862 569.426 493.271 568.944C494.328 567.688 493.889 569.725 494.014 569.768C495.499 570.289 495.07 568.82 495.041 567.64C497.299 567.186 496.956 565.566 495.001 566.415C494.788 566.511 495.115 567.394 495.041 567.64C493.794 567.251 493.062 566.577 492.916 565.69C492.792 564.942 493.14 564.028 494.015 562.999C494.88 561.977 496.132 562.693 495.366 559.998C495.018 558.768 493.51 559.453 492.941 558.394C491.637 555.931 492.691 552.518 492.131 549.964C491.928 549.034 491.185 550.06 491.016 549.427C490.565 547.746 491.016 546.14 490.462 544.428C490.41 544.273 489.561 544.777 489.48 544.232C488.862 540.226 488.994 536.68 488.456 532.36C488.199 530.295 487.245 526.789 487.069 524.637C486.76 520.905 487.489 516.24 486.769 513.163C486.302 511.145 485.461 511.708 484.734 510.907C483.329 509.37 485.061 506.034 485.342 505.614C485.349 505.588 485.791 507.343 486.13 506.331C487.02 505.649 485.349 505.636 485.342 505.614C485.521 505.329 485.276 501.822 485.013 501.145C484.871 500.779 484.046 501.1 483.987 500.908C482.618 496.313 481.785 491.578 481.571 486.804C481.578 486.718 482.547 486.721 482.55 486.52C482.616 483.707 481.22 482.077 480.229 479.865C479.241 477.676 479.243 475.874 480.704 474.314C480.276 472.631 480.678 470.07 480.931 468.586C481.185 467.103 479.304 467.144 479.251 467.023C477.566 463.244 478.345 460.932 477.982 456.857C477.815 454.937 477.041 451.096 476.573 449.082C476.197 447.472 476.503 446.431 476.028 444.957C475.964 444.757 475.165 445.072 475.125 445.013C473.917 443.456 476.042 444.003 476.357 443.607C477.503 442.172 478.1 441.3 477.2 439.209C476.993 438.727 473.895 437.645 473.606 436.751C473.235 435.587 474.336 435.907 473.923 434.707C473.888 434.605 473.248 434.711 473.178 433.947C472.84 430.404 472.709 426.488 472.16 422.791C472.088 422.285 471.153 423.068 471.031 422.34C470.464 418.94 470.016 415.222 470.057 411.826C470.071 410.99 470.852 411.411 471.04 411.205C472.18 409.945 470.114 408.637 470.044 408.385C468.351 402.403 469.432 397.559 467.812 391.43C467.72 391.092 465.383 388.768 466.944 387.384C467.048 387.29 468.651 385.915 467.319 385.058C467.236 385.005 466.427 385.837 466.356 384.579C466.284 383.32 465.418 381.39 466.184 379.542C466.425 378.958 468.005 377.443 466.399 376.002C466.287 375.905 462.808 373.825 464.866 372.648C465.205 372.456 467.525 372.306 466.092 370.529C465.815 370.19 465.39 370.927 464.942 369.997C464.252 368.572 464.609 366.516 463.344 364.816C463.12 364.52 461.38 363.363 462.422 362.115C462.585 361.92 463.396 362.144 463.406 361.555C463.458 358.756 462.568 355.96 462.734 353.107C462.791 352.097 464.099 352.437 464.297 351.366C464.495 350.295 464.543 348.182 463.834 347.181C463.125 346.18 461.3 347.615 460.93 346.025C459.322 339.105 459.572 332.026 458.821 325C458.71 323.959 458.115 324.913 457.901 323.385C457.108 317.76 455.163 308.106 456.025 303.023C456.715 298.953 458.28 303.754 458.378 300.701C458.422 299.227 455.917 297.977 455.798 297.632C454.612 294.308 455.319 291.803 454.603 288.78C454.455 288.156 453.604 288.899 453.488 288.367C453.085 286.549 453.247 284.568 452.94 282.823C452.8 282.035 452.107 282.275 452.066 281.538C451.959 279.776 452.056 278.196 452.5 276.413C452.541 276.25 453.564 277.176 453.428 275.885C453.205 273.796 453.524 271.132 452.53 268.84C452.233 268.158 450.602 268.354 451.524 266.667C451.716 266.314 453.725 266.467 451.801 264.902C451.481 264.638 448.808 261.941 450.084 260.283C450.419 259.845 451.889 258.648 451.526 257.829C451.47 257.718 450.657 258.296 450.479 257.602C449.866 255.15 449.618 252.55 449.004 249.996C448.838 249.318 448.068 250.461 447.851 249.447C447.251 246.659 447.021 243.13 446.946 240.369C446.92 239.351 447.761 239.946 447.833 239.862C449.005 238.514 447.123 238.055 446.966 237.668C446.016 235.287 446.612 233.308 446.093 231.086C445.952 230.472 445.156 231.025 445.063 230.911C444.151 229.728 445.81 230.48 445.872 229.648C446.051 227.305 445.657 224.839 445.241 222.52C445.087 221.673 444.223 222.761 444.097 221.999C443.329 217.484 442.819 212.873 442.788 208.409C442.783 207.562 443.614 207.986 443.765 207.789C444.826 206.432 442.935 204.906 442.724 204.527C441.762 202.801 442.344 202.008 442.008 200.427C440.354 192.696 439.534 182.997 438.83 175.492C437.929 165.876 437.67 158.273 436.272 149.063C436.186 148.485 435.248 149.202 435.16 148.706C434.064 142.234 433.642 135.923 432.477 129.281C432.385 128.748 431.524 129.646 431.344 128.795C430.993 127.166 430.765 125.133 430.804 123.435C430.806 123.309 430.809 123.184 430.813 123.062C430.845 122.151 431.826 123.239 431.841 122.325C431.879 120.199 431.661 117.995 431.239 115.952C431.057 115.084 430.246 116.534 430.086 115.397C428.959 107.495 427.79 99.8093 428.036 91.684C428.052 91.1215 429.989 90.3783 429.456 89.2731C428.89 89.2579 428.238 89.3468 427.64 89.3854C425.838 77.9302 425.094 66.6442 423.729 55.0006C423.672 54.5138 422.719 55.4869 422.603 54.5474C421.934 49.129 420.978 43.8987 421.338 38.1753C421.372 37.6086 423.278 37.7105 422.791 36.0881C422.7 35.781 422.148 33.3535 421.671 32.8143C421.599 32.7332 420.785 33.2953 420.662 32.5024C419.967 27.9377 419.579 23.0723 419.572 18.3783C419.573 17.6279 420.592 18.3056 420.602 17.7744C420.668 14.0135 419.482 9.95503 419.997 6.13181C420.364 3.48162 422.04 4.26413 423.584 2.81019C423.611 2.78593 423.636 2.74078 423.659 2.68497C423.823 2.27466 423.939 1.10156 424.75 1.02692C427.074 0.823331 429.624 1.51897 432.1 1.21023C432.367 1.18847 432.353 0.655513 432.441 0.44251C432.463 0.401324 432.494 0.366818 432.523 0.510371C432.536 0.589846 432.554 0.716151 432.525 1.04736C432.503 1.38194 432.343 1.97591 432.374 1.97592C432.382 2.00263 432.403 1.99685 432.421 2.00603C432.439 2.01144 432.461 2.0147 432.527 1.88287C432.595 1.74906 432.695 1.48064 432.764 1.25719C432.836 1.02606 432.881 0.876182 432.922 0.757093C433.071 0.346686 433.185 0.411282 433.349 0.471415C433.43 0.424879 433.867 1.81894 434.311 2.16301C434.616 2.4005 435.551 1.95398 435.944 2.44173C435.965 2.46801 435.983 2.49477 435.998 2.52207C436.128 2.7513 436.023 2.86188 435.945 3.05561C435.867 3.24106 435.817 3.48422 436.056 3.80889C436.569 4.4854 437.602 4.05371 437.868 5.57965ZM482.061 461.939C482.782 460.518 479.495 460.75 480.459 462.06C480.51 462.123 482.026 462.012 482.061 461.939ZM502.719 620.773C503.956 618.887 501.692 617.919 500.727 619.292C499.762 620.657 502.343 621.345 502.719 620.773ZM505.833 638.452C506.743 636.31 502.07 636.51 503.252 638.568C503.319 638.687 505.78 638.576 505.833 638.452ZM424.511 8.93787C424.55 8.89092 424.489 7.86033 424.442 7.82066C423.345 7.35425 423.476 9.49844 424.511 8.93787ZM508.861 655.99C509.432 655.335 508.521 653.555 507.82 654.431C507.258 655.15 508.154 656.823 508.861 655.99ZM476.598 393C476.644 392.973 476.588 392.204 476.315 392.256C475.437 392.423 475.826 393.453 476.598 393ZM502.382 668.276C503.923 669.196 504.887 670.561 505.186 671.635C505.532 672.862 505.106 673.697 504.026 673.358C503.635 673.239 503.156 672.973 502.561 672.528C501.882 672.012 504.754 672.453 504.029 671.584C502.627 669.956 500.291 671.453 499.065 669.356C498.833 668.964 502.152 668.116 502.392 668.275C502.388 668.275 502.385 668.275 502.382 668.276ZM485.882 460.677C485.922 460.646 485.827 459.592 485.78 459.572C484.671 459.139 484.863 461.263 485.882 460.677ZM472.789 348.323C472.873 348.253 472.638 345.796 472.542 345.728C470.681 344.674 471.152 349.642 472.789 348.323ZM497.445 531.324C498.637 532.362 498.938 533.738 497.748 534.827C497.67 533.669 497.531 532.503 497.445 531.324Z" fill="#EFF8FB"/>
<path d="M709.342 453.317C705.762 453.893 700.626 454.276 696.771 454.427C695.543 454.479 696.071 453.87 695.217 453.883C693.601 453.904 692.093 454.386 690.433 454.384C689.871 454.383 690.434 453.45 689.844 453.468C686.768 453.552 683.769 454.232 680.682 454.539C665.168 456.107 649.821 458.449 634.199 460.833C633.911 460.878 633.618 460.921 633.32 460.963C628.414 461.654 622.304 462.073 617.38 463.275C616.769 463.425 617.267 464.084 617.16 464.165C615.47 465.413 615.824 463.838 614.566 463.863C609.63 463.954 604.267 464.847 599.689 465.957C597.718 466.435 599.978 467.517 597.819 467.069C597.672 467.039 598.031 466.18 597.481 466.194C596.248 466.224 593.964 466.775 592.998 466.885C591.145 467.091 590.814 467.158 589.088 467.458C586.756 467.855 583.875 467.975 581.327 468.609C580.795 468.745 581.647 469.408 580.818 469.695C579.991 469.981 577.705 470.319 576.898 470.271C576.092 470.222 576.31 469.542 576.148 469.424C574.818 468.422 572.409 470.567 572.106 470.663C566.06 472.461 560.574 472.455 554.696 473.493C550.338 474.266 545.569 475.426 541.4 476.111C536.343 476.939 532.069 477.242 527.167 478.168C526.649 478.264 527.418 479.089 526.786 479.209C520.16 480.468 513.504 481.508 506.716 482.021C506.034 482.071 506.757 481.108 506.072 481.109C501.919 481.127 495.128 480.62 493.337 484.578C490.562 484.904 487.15 485.329 484.566 485.025C482.9 484.829 484.295 483.681 482.405 484.387C481.978 484.546 482.682 485.229 482.031 485.408C479.299 486.157 476.171 486.417 473.497 487.274C472.95 487.45 473.219 488.124 473.081 488.276C471.916 489.515 469.41 488.199 468.903 488.157C465.042 487.855 462.416 488.655 458.966 489.195C458.165 489.32 459.264 490.104 458.499 490.258C454.516 491.046 450.388 491.631 446.405 491.844C445.519 491.889 446.191 490.961 445.761 490.941C443.867 490.865 443.699 492.442 441.895 492.396C441.514 492.388 441.613 491.67 441.534 491.605C440.289 490.594 439.639 492.413 439.373 492.493C436.016 493.546 433.523 492.15 430.248 492.92C429.855 493.014 430.888 493.74 429.776 493.951C422.365 495.364 414.443 496.349 406.958 496.781C405.795 496.849 406.514 496.072 406.43 496.003C405.063 494.927 404.557 496.725 404.193 496.845C401.31 497.749 398.34 496.754 396.635 499.059C384.026 500.239 371.733 503.177 359.055 503.116C358.894 503.117 359.061 502.248 358.741 502.254C354.893 502.315 355.793 503.504 353.497 505.429C352.918 505.913 350.731 504.273 350.542 504.156C349.852 503.727 350.326 502.404 350.104 502.332C348.281 501.785 349.118 505.831 346.803 506.147C346.73 506.15 346.932 505.357 346.728 505.309C346.093 505.156 345.536 505.536 344.906 505.357C343.466 504.942 342.716 503.022 340.802 504.455C340.56 504.64 341.269 506.904 339.184 507.071C338.349 507.136 334.718 507.657 333.66 507.642C332.614 507.627 333.221 506.787 333.144 506.765C330.25 506.138 331.245 505.592 329.673 504.309C328.104 503.031 328.937 506.457 328.425 506.918C327.911 507.378 325.788 506.822 325.257 506.602C324.726 506.382 325.282 505.828 324.822 505.724C324.487 505.649 324.213 505.614 323.989 505.611C322.159 505.591 323.659 507.688 322.859 508.289C320.739 509.886 318.639 507.531 316.531 507.538C315.96 507.539 316.492 508.07 315.999 508.187C314.048 508.643 312.747 507.987 310.568 509.003C310.212 509.169 308.568 510.944 307.248 509.949C307.06 509.805 307.458 509.105 306.595 509.063C305.302 509 303.027 509.131 301.675 509.51C300.685 509.789 301.967 510.712 300.658 510.533C300.077 510.453 301.048 509.709 299.962 509.61C298.882 509.511 296.2 509.854 295.185 509.994C294.172 510.135 294.822 510.874 294.746 510.938C294.286 511.306 292.378 511.92 292.199 511.94C283.443 513.051 275.296 512.58 266.792 513.938C266.129 514.043 266.663 514.845 266.563 514.87C264.32 515.467 265.878 513.02 264.209 512.432C264.616 514.131 263.664 513.916 262.057 514.275C261.286 514.449 261.781 515.072 261.716 515.148C260.664 516.282 259.724 515.056 259.49 514.81C258.624 513.904 257.914 515.154 257.328 514.548C256.743 513.948 257.834 512.857 256.294 513.027C255.926 513.689 257.235 515.184 256.092 515.565C251.772 517.009 243.396 516.561 239.791 516.773C236.215 516.985 235.123 517.203 233.004 517.178C229.207 517.127 230.697 518.195 228.425 518.958C226.152 519.721 227.011 516.67 226.619 516.068C226.234 515.465 225.937 516.149 225.499 515.838C225.063 515.527 225.899 515.016 224.936 514.973C223.961 514.931 221.426 516.296 221.147 516.988C220.555 518.456 221.867 519.823 219.284 519.533C219.135 519.515 219.539 518.698 218.974 518.67C214.517 518.466 209.853 518.834 205.385 518.68C204.765 518.658 205.241 517.749 204.879 517.727C201.123 517.487 202.573 518.829 200.684 520.613C200.953 518.426 199.752 517.202 196.932 517.42C195.234 517.55 195.603 518.465 194.562 519.216C194.25 519.442 193.005 518.893 192.825 519.352C192.23 520.853 193.475 522.381 190.547 521.966C190.419 521.945 190.757 521.123 190.318 521.11C187.453 521.021 187.21 522.56 184.165 522.98C181.81 523.307 177.394 522.715 174.676 522.765C174.556 520.342 172.023 521.086 171.079 522.831C169.285 522.894 167.375 523.126 165.658 523.016C165.067 522.979 165.402 522.251 165.323 522.181C164.098 521.075 163.423 522.753 163.044 522.844C158.919 523.755 155.448 522.756 151.564 524.222C151.427 524.275 151.31 525.971 150.178 524.813C150.104 524.733 151.351 523.883 149.5 523.945C147.593 524.012 144.028 523.338 141.497 524.28C140.873 524.508 139.358 525.974 138.02 524.986C137.841 524.852 137.996 524.358 137.735 524.105C136.893 523.299 136.567 525.025 135.557 523.638C134.572 522.249 132.504 521.29 129.97 522.442C129.889 522.476 129.353 523.86 128.538 523.887C127.252 523.928 125.316 523.76 123.957 523.847C123.302 523.89 123.77 524.702 123.657 524.724C119.307 525.445 116.12 524.876 111.336 524.811C110.448 524.798 108.093 526.07 106.314 525.259C104.415 524.368 106.069 520.162 101.929 521.358C100.236 521.839 98.3142 527.164 95.135 524.615C89.2163 525.581 83.607 524.463 77.6943 525.694C77.4247 525.749 76.6388 527.244 76.0124 527.253C75.074 527.264 74.5759 526.605 73.8716 526.592C72.3748 526.554 70.9886 526.724 69.6455 526.899C68.3381 527.063 67.0732 527.232 65.8027 527.246C64.8071 527.257 65.1031 526.539 63.8643 526.555C62.6123 526.573 61.9051 527.533 60.1929 527.161C58.882 526.877 57.6371 525.036 55.9126 524.891C55.9242 526.761 54.7851 526.773 52.7886 527.354C52.3939 527.467 52.8498 528.098 52.6646 528.185C51.9123 528.554 51.1944 528.045 50.5112 528.44C50.3451 528.535 50.3647 529.173 50.2312 529.287C49.0523 530.279 46.9968 528.929 46.6718 528.693C45.2889 527.801 44.7151 528.656 43.7242 528.324C42.6969 527.992 44.2069 527.462 42.9957 527.285C40.5659 526.917 37.4187 527.148 34.9723 527.213C33.9815 527.244 34.6902 528.069 34.549 528.093C32.5526 528.387 30.4153 527.558 29.3858 529.292C27.7956 524.955 28.1642 529.763 25.2247 528.975C24.9996 528.911 24.645 526.845 25.5083 526.514C26.3976 526.183 27.7271 526.789 28.9277 526.272C29.2531 526.149 30.7666 524.149 31.0207 524.022C32.7159 523.038 33.1193 526.126 33.2174 526.292C34.3121 528.091 36.2889 525.917 36.7939 525.752C39.2262 524.991 41.2511 525.344 43.3191 524.784C44.6101 524.424 44.6507 522.389 45.7145 522.406C49.1769 522.464 50.5103 525.243 53.698 522.644C54.3726 522.09 53.5509 519.904 56.1748 521.536C56.3741 521.637 58.2416 523.154 59.2965 522.095C59.4276 521.962 59.3945 521.316 59.5731 521.253C60.801 520.847 61.5625 521.329 62.8631 521.024C64.1753 520.718 65.7166 520.28 67.2069 520.432C67.9149 520.503 68.8241 521.225 69.4083 521.666C69.5612 521.788 69.6901 521.889 69.7841 521.949C71.0074 522.745 72.2486 521.293 73.0591 522.287C73.8756 523.285 72.4448 524.924 74.4909 525.5C74.4859 523.817 74.5723 522.086 74.6109 520.391C78.9253 520.253 83.3315 520.591 87.6237 520.31C88.1679 520.272 87.5667 519.397 88.1501 519.333C90.6525 519.069 92.7133 519.613 95.3084 519.226C97.2312 518.928 99.3349 517.863 101.41 517.514C102.73 519.373 105.755 518.561 107.995 518.617C108.763 518.637 108.74 519.153 109.296 519.291C111.399 519.798 110.339 518.153 110.894 517.855C113.286 516.581 113.729 520.411 116.581 520.157C116.731 520.145 118.488 517.992 118.742 517.85C120.346 516.925 119.055 518.547 120.1 518.64C121.982 518.81 123.278 519.226 125.453 518.497C126.085 518.282 127.567 516.914 128.842 517.829C129.011 517.949 128.962 518.631 129.095 518.663C131.5 519.182 131.442 517.051 132.765 516.248C134.112 515.444 136.258 516.785 136.716 517.181C137.897 518.206 135.893 517.701 135.841 517.812C135.215 519.134 136.717 518.82 137.894 518.855C138.192 520.93 139.828 520.702 139.116 518.883C139.035 518.685 138.135 518.936 137.894 518.855C138.784 516.747 140.611 516.369 142.695 518.155C143.676 518.992 142.861 520.093 145.658 519.529C146.931 519.274 146.341 517.871 147.453 517.405C150.017 516.341 153.387 517.461 156.082 517.065C157.054 516.922 156.049 516.202 156.71 516.077C158.427 515.745 160.006 516.228 161.751 515.803C161.909 515.763 161.461 514.968 162.009 514.919C166.183 514.53 169.797 514.799 174.135 514.493C176.199 514.347 179.966 513.607 182.108 513.534C185.848 513.401 190.598 514.228 193.763 513.68C195.844 513.325 195.319 512.54 196.175 511.907C197.847 510.679 201.013 512.373 201.462 512.638C201.475 512.647 199.697 512.99 200.689 513.332C201.319 514.164 201.442 512.644 201.462 512.638C201.745 512.811 205.367 512.694 206.078 512.475C206.462 512.356 206.178 511.596 206.378 511.549C211.076 510.448 215.918 509.825 220.799 509.752C220.887 509.76 220.836 510.641 221.04 510.649C223.914 510.78 225.612 509.551 227.87 508.705C230.132 507.858 232.004 507.896 233.533 509.257C235.255 508.905 237.826 509.325 239.317 509.585C240.807 509.845 240.847 508.132 240.971 508.086C244.864 506.626 247.201 507.373 251.369 507.105C253.349 506.981 257.171 506.342 259.287 505.935C260.95 505.611 262.02 505.9 263.52 505.486C263.724 505.43 263.435 504.699 263.495 504.663C265.114 503.582 264.485 505.509 264.874 505.801C266.286 506.86 267.149 507.412 269.302 506.612C269.798 506.429 271.003 503.619 271.917 503.363C273.092 503.036 272.743 504.035 273.974 503.668C274.08 503.637 273.993 503.054 274.772 502.995C278.385 502.713 282.396 502.61 286.12 502.127C286.632 502.063 285.869 501.209 286.607 501.101C290.078 500.594 293.886 500.187 297.317 500.222C298.163 500.234 297.717 500.946 297.921 501.117C299.171 502.154 300.551 500.269 300.808 500.205C306.884 498.652 311.852 499.602 318.045 498.081C318.383 497.996 320.8 495.844 322.185 497.251C322.23 497.295 322.564 497.645 322.999 497.868C323.475 498.115 324.073 498.208 324.54 497.567C324.595 497.491 323.765 496.763 325.04 496.684C326.316 496.605 328.284 495.794 330.148 496.467C330.737 496.679 332.255 498.097 333.74 496.613C333.836 496.51 335.99 493.311 337.159 495.166C337.349 495.472 337.473 497.584 339.296 496.249C339.644 495.991 338.899 495.616 339.85 495.192C341.303 494.541 343.401 494.828 345.13 493.645C345.432 493.436 346.617 491.83 347.872 492.755C348.069 492.9 347.834 493.643 348.43 493.641C351.261 493.635 354.134 492.763 357.015 492.853C358.039 492.882 357.685 494.082 358.771 494.238C359.856 494.394 362.002 494.388 363.023 493.718C364.045 493.048 362.595 491.421 364.214 491.045C371.233 489.413 378.432 489.445 385.555 488.55C386.612 488.418 385.644 487.905 387.195 487.663C392.906 486.771 402.69 484.678 407.857 485.28C412 485.763 407.124 487.362 410.232 487.34C411.732 487.327 412.998 484.997 413.342 484.876C416.698 483.675 419.233 484.227 422.307 483.456C422.941 483.297 422.178 482.551 422.719 482.425C424.564 481.986 426.586 482.055 428.357 481.705C429.151 481.546 428.902 480.924 429.645 480.858C431.421 480.692 433.03 480.715 434.843 481.046C435.009 481.077 434.08 482.047 435.389 481.869C437.509 481.579 440.214 481.759 442.545 480.753C443.238 480.452 443.029 478.974 444.743 479.743C445.102 479.903 444.973 481.739 446.531 479.92C446.794 479.617 449.488 477.066 451.184 478.155C451.631 478.441 452.866 479.727 453.698 479.358C453.81 479.303 453.21 478.588 453.917 478.394C456.41 477.724 459.073 477.375 461.622 476.703C462.302 476.522 461.138 475.872 462.156 475.628C464.969 474.955 468.561 474.576 471.371 474.374C472.408 474.301 471.815 475.096 471.901 475.157C473.294 476.16 473.734 474.422 474.119 474.261C476.51 473.283 478.522 473.73 480.764 473.148C481.383 472.99 480.808 472.292 480.922 472.202C482.105 471.313 481.372 472.861 482.217 472.877C484.574 472.927 487.167 472.428 489.472 471.938C490.321 471.757 489.209 471.023 489.972 470.871C494.453 469.957 499.255 469.231 503.734 468.975C504.579 468.928 504.175 469.706 504.375 469.834C505.772 470.728 507.28 468.925 507.661 468.713C509.391 467.744 510.209 468.231 511.808 467.84C519.656 465.911 529.502 464.62 537.04 463.559C546.805 462.183 554.565 461.491 563.803 459.678C564.397 459.563 563.635 458.753 564.144 458.642C570.682 457.255 577.16 456.471 583.774 455.016C584.31 454.9 583.378 454.171 584.232 453.955C585.969 453.508 588.236 453.152 590.105 453.103C591.011 453.079 589.962 454.035 590.87 453.995C592.997 453.903 595.126 453.585 597.277 453.056C598.174 452.832 596.646 452.19 597.823 451.969C605.729 450.461 613.576 448.894 621.843 448.602C622.406 448.583 623.211 450.3 624.298 449.749C624.295 449.233 624.185 448.645 624.127 448.103C626.39 447.641 628.643 447.217 630.806 446.834C640.176 445.176 649.637 443.957 659.029 442.449C659.51 442.371 658.519 441.554 659.448 441.4C665.007 440.476 670.341 439.32 676.159 439.368C676.736 439.372 676.669 441.112 678.337 440.586C678.657 440.487 681.018 439.885 681.672 439.409C681.752 439.34 681.167 438.624 681.982 438.474C686.671 437.626 691.561 437.081 696.408 436.918C697.186 436.894 696.484 437.845 697.036 437.836C700.9 437.776 705.107 436.6 709.032 437.059C711.671 437.389 710.831 438.923 712.26 440.303C712.476 440.49 714.13 440.51 714.192 441.364C714.316 443.48 713.607 445.782 713.843 448.039C713.921 448.51 715.328 448.084 714.435 449.197C714.39 449.263 713.353 449.63 713.035 450.043C712.843 450.323 713.22 451.168 712.825 451.531C712.429 451.895 711.937 451.198 711.19 451.661C710.467 452.133 710.888 453.069 709.342 453.317ZM246.016 510.737C247.435 511.417 247.337 508.421 245.961 509.276C245.895 509.321 245.944 510.703 246.016 510.737ZM83.351 522.847C85.2222 524.079 86.2641 522.087 85.0037 521.127C83.7418 520.168 82.7796 522.473 83.351 522.847ZM65.1405 524.647C67.203 525.595 67.3361 521.344 65.2082 522.298C65.0854 522.352 65.0209 524.592 65.1405 524.647ZM706.092 441.191C706.127 441.226 707.219 441.155 707.232 441.115C707.724 440.112 705.528 440.254 706.092 441.191ZM47.0376 526.493C47.6799 527.04 49.5304 526.297 48.69 525.619C48.0037 525.074 46.2256 525.813 47.0376 526.493ZM316.294 506.096C316.32 506.137 317.1 506.08 317.053 505.832C316.9 505.034 315.851 505.396 316.294 506.096ZM16.2801 527.501C20.7524 527.711 23.6633 531.098 18.6243 530.786C17.733 530.722 20.5525 529.651 19.4138 529.346C17.3322 528.788 15.8348 530.992 13.7079 529.655C13.3464 529.421 16.059 527.499 16.288 527.496C16.2854 527.498 16.2828 527.499 16.2801 527.501ZM247.142 514.235C247.172 514.272 248.253 514.202 248.275 514.161C248.764 513.158 246.587 513.298 247.142 514.235ZM361.812 501.903C361.883 501.979 364.386 501.706 364.456 501.617C365.538 499.896 360.479 500.444 361.812 501.903ZM174.628 522.704C173.537 523.743 172.118 523.96 171.084 522.832C172.27 522.81 173.461 522.732 174.628 522.704Z" fill="#EFF8FB"/>
<path d="M5.29074 287.222C8.82125 286.508 14.0086 286.079 17.8059 285.957C19.0063 285.915 18.4875 286.579 19.3476 286.572C20.9561 286.568 22.5371 286.048 24.0777 286.094C24.6139 286.108 24.0963 287.118 24.658 287.112C27.8261 287.057 30.578 286.409 33.735 286.134C49.0206 284.818 64.163 282.834 79.4879 280.885C84.693 280.218 91.0021 280.085 96.061 278.925C96.6646 278.787 96.1759 278.042 96.2818 277.958C97.9543 276.662 97.5983 278.374 98.8396 278.401C103.71 278.51 109.061 277.749 113.472 276.742C115.369 276.308 113.192 275.019 115.272 275.608C115.417 275.647 115.06 276.574 115.604 276.582C116.836 276.598 119.13 276.083 120.102 276C120.401 275.975 120.66 275.952 120.891 275.931C122.043 275.831 122.47 275.759 123.883 275.546C126.182 275.206 129.035 275.192 131.57 274.596C132.097 274.468 131.262 273.706 132.071 273.427C132.875 273.149 135.107 272.874 135.896 272.961C136.684 273.048 136.47 273.783 136.629 273.919C137.934 275.073 140.272 272.824 140.607 272.724C146.593 270.99 152.035 271.205 157.725 270.306C161.996 269.629 166.788 268.52 170.818 267.932C175.708 267.223 180.102 267.014 184.792 266.19C185.295 266.103 184.543 265.171 185.156 265.063C191.736 263.902 198.202 262.996 204.9 262.647C205.572 262.613 204.862 263.648 205.543 263.667C209.689 263.771 216.245 264.556 218.043 260.256C220.827 259.973 224.096 259.618 226.65 260.024C228.294 260.286 226.929 261.506 228.786 260.784C229.205 260.622 228.505 259.853 229.144 259.675C231.824 258.929 234.937 258.723 237.531 257.859C238.065 257.68 237.794 256.934 237.927 256.771C239.054 255.443 241.527 256.953 242.025 257.013C245.801 257.446 248.439 256.624 251.802 256.117C252.583 256 251.497 255.112 252.243 254.963C256.112 254.199 260.185 253.647 264.113 253.496C264.988 253.464 264.338 254.469 264.763 254.499C266.623 254.624 266.749 252.9 268.524 252.987C268.898 253.004 268.813 253.789 268.892 253.862C270.131 254.997 270.74 253.015 271 252.932C274.282 251.844 276.748 253.424 279.98 252.634C280.365 252.538 279.335 251.723 280.424 251.512C287.643 250.101 295.46 249.134 302.781 248.759C303.923 248.699 303.234 249.542 303.319 249.619C304.689 250.817 305.143 248.85 305.499 248.723C308.312 247.765 311.27 248.886 312.877 246.376C325.233 245.207 337.23 242.046 349.683 242.103C349.841 242.101 349.708 243.055 350.023 243.048C353.811 242.974 352.875 241.672 355.055 239.555C355.604 239.023 357.813 240.815 358.004 240.942C358.7 241.411 358.284 242.864 358.505 242.942C360.322 243.535 359.342 239.099 361.609 238.74C361.681 238.736 361.513 239.607 361.716 239.659C362.348 239.823 362.882 239.403 363.505 239.596C364.932 240.044 365.747 242.146 367.567 240.561C367.797 240.356 367.006 237.877 369.046 237.678C369.859 237.602 373.416 236.996 374.449 237.002C375.476 237.009 374.918 237.936 374.995 237.96C377.862 238.618 376.91 239.228 378.513 240.618C380.115 242.002 379.14 238.252 379.623 237.741C380.108 237.23 382.221 237.812 382.755 238.046C383.288 238.281 382.766 238.896 383.224 239.004C386.26 239.703 384.179 236.916 385.024 236.164C387.011 234.384 389.19 236.935 391.273 236.891C391.836 236.879 391.285 236.306 391.767 236.169C393.674 235.633 394.981 236.331 397.059 235.175C397.4 234.987 398.914 233.008 400.262 234.073C400.453 234.227 400.1 235.004 400.949 235.032C402.214 235.075 404.465 234.879 405.764 234.434C406.72 234.105 405.411 233.122 406.705 233.288C407.28 233.362 406.368 234.201 407.44 234.284C408.506 234.368 411.124 233.926 412.115 233.746C413.106 233.566 412.423 232.771 412.494 232.699C412.927 232.283 414.766 231.56 414.934 231.534C423.451 230.085 431.462 230.347 439.74 228.545C440.385 228.406 439.806 227.546 439.903 227.515C442.069 226.777 440.701 229.519 442.384 230.101C441.864 228.253 442.835 228.45 444.365 227.999C445.101 227.78 444.577 227.115 444.634 227.03C445.576 225.748 446.574 227.056 446.82 227.318C447.72 228.279 448.338 226.88 448.96 227.519C449.581 228.153 448.576 229.395 450.09 229.144C450.409 228.404 449.008 226.819 450.113 226.353C454.312 224.589 462.45 224.73 466.015 224.32C469.511 223.92 470.602 223.622 472.645 223.552C476.336 223.426 474.771 222.332 476.964 221.377C479.161 220.421 478.549 223.811 478.986 224.45C479.416 225.091 479.657 224.325 480.117 224.642C480.576 224.959 479.785 225.564 480.746 225.56C481.708 225.556 484.07 223.928 484.286 223.154C484.744 221.514 483.35 220.085 485.896 220.266C486.042 220.278 485.716 221.195 486.27 221.196C490.596 221.188 495.246 220.505 499.595 220.417C500.196 220.406 499.816 221.429 500.168 221.433C503.833 221.479 502.27 220.098 503.997 218.024C503.911 220.439 505.249 221.7 507.999 221.287C509.649 221.04 509.205 220.06 510.155 219.173C510.44 218.906 511.706 219.43 511.84 218.916C512.284 217.234 510.93 215.639 513.825 215.909C513.952 215.923 513.698 216.845 514.127 216.832C516.874 216.756 517.027 215.045 519.988 214.382C522.334 213.858 526.566 214.231 529.262 213.982C529.615 216.627 532.074 215.629 532.815 213.653C534.564 213.459 536.406 213.069 538.091 213.067C538.671 213.065 538.417 213.886 538.501 213.957C539.798 215.082 540.245 213.202 540.618 213.074C544.647 211.763 548.139 212.598 551.703 210.71C551.836 210.641 551.785 208.774 553.043 209.95C553.125 210.032 551.954 211.065 553.813 210.846C555.675 210.626 559.252 211.083 561.578 209.859C561.79 209.748 562.103 209.436 562.483 209.142C563.156 208.648 564.023 208.202 564.918 208.807C565.11 208.94 565.007 209.493 565.293 209.749C566.216 210.561 566.358 208.645 567.505 210.08C568.651 211.515 570.71 212.407 573.007 210.947C573.066 210.906 573.48 209.342 574.298 209.241C575.612 209.081 577.484 209.11 578.803 208.901C579.435 208.8 578.892 207.95 579 207.916C583.029 206.785 586.508 207.092 590.972 206.783C591.806 206.726 594.14 205.106 595.896 205.849C597.832 206.66 596.69 211.406 600.566 209.739C602.215 209.058 603.522 203.059 606.853 205.575C612.64 203.977 618.097 204.72 623.794 202.839C624.052 202.755 624.651 201.05 625.258 200.986C626.163 200.892 626.735 201.568 627.389 201.524C630.293 201.34 632.482 200.384 635.252 200.1C636.253 199.997 636.017 200.812 637.186 200.694C638.293 200.584 639.084 199.445 640.738 199.717C641.984 199.927 643.469 201.829 645.149 201.85C644.966 199.801 645.975 199.708 647.945 198.903C648.321 198.747 647.811 198.092 647.984 197.982C648.684 197.519 649.432 198.02 650.052 197.536C650.202 197.419 650.121 196.722 650.238 196.587C651.308 195.407 653.463 196.729 653.791 196.966C655.201 197.845 655.733 196.861 656.719 197.157C657.704 197.455 656.356 198.132 657.495 198.249C659.969 198.477 662.963 198.031 665.36 197.851C666.308 197.777 665.581 196.899 665.715 196.867C667.713 196.455 669.684 197.336 670.82 195.489C671.39 197.442 671.56 197.763 671.873 197.535C671.935 197.477 672.041 197.391 672.136 197.289C672.23 197.188 672.339 197.07 672.481 196.982C672.59 196.889 672.862 196.82 672.992 197.106C673.102 197.364 673.056 197.632 673.028 197.834C672.968 198.23 672.759 198.631 672.286 198.986C672.091 199.13 670.06 198.058 670.258 197.175C670.324 196.877 670.514 196.607 670.741 196.332C670.796 196.267 670.821 196.238 670.787 196.328C670.78 196.409 670.576 196.663 670.687 197.398C670.848 198.199 671.416 198.552 671.546 198.615C671.726 198.707 671.785 198.704 671.788 198.703C671.768 198.676 671.386 198.668 671.065 198.834C670.817 198.934 669.445 201.106 669.225 201.254C667.709 202.347 667.231 198.978 667.12 198.795C665.907 196.856 664.159 199.336 663.685 199.544C661.389 200.507 659.396 200.253 657.42 201.01C656.218 201.492 656.351 203.728 655.298 203.788C651.962 203.972 650.406 201.03 647.497 204.137C646.91 204.797 647.929 207.124 645.243 205.544C645.084 205.443 642.958 203.956 642.126 205.19C642.016 205.347 642.116 206.052 641.953 206.134C640.863 206.673 639.974 206.222 638.722 206.668C637.548 207.104 636.097 207.714 634.57 207.684C633.602 207.673 632.415 206.501 631.939 206.24C630.652 205.477 629.583 207.177 628.669 206.163C627.759 205.142 628.955 203.226 626.926 202.772C627.117 204.612 627.226 206.514 627.377 208.371C623.183 208.903 618.957 208.91 614.66 209.62C614.151 209.706 614.818 210.614 614.274 210.732C612.001 211.224 609.676 210.849 607.306 211.483C605.48 211.977 603.538 213.329 601.518 213.897C599.952 211.99 597.225 213.122 594.992 213.261C594.217 213.309 594.184 212.742 593.608 212.642C591.427 212.279 592.672 213.984 592.169 214.357C590.04 215.946 589.218 211.789 586.414 212.317C586.267 212.343 584.755 214.852 584.515 215.03C583.021 216.182 584.107 214.298 583.095 214.282C581.286 214.247 579.965 213.902 577.925 214.879C577.331 215.167 576.033 216.786 574.627 215.899C574.442 215.783 574.421 215.032 574.283 215.009C571.867 214.639 572.196 216.96 571.004 217.944C569.821 218.926 567.524 217.64 567.03 217.244C565.748 216.219 567.796 216.605 567.835 216.48C568.318 214.981 566.86 215.449 565.681 215.508C565.169 213.262 563.558 213.648 564.458 215.579C564.56 215.79 565.434 215.44 565.681 215.508C565.324 216.765 564.67 217.514 563.787 217.682C563.042 217.826 562.12 217.501 561.069 216.654C560.025 215.815 560.708 214.546 558.033 215.381C556.813 215.76 557.536 217.25 556.493 217.846C554.064 219.214 550.625 218.249 548.087 218.875C547.162 219.102 548.207 219.818 547.579 220.003C545.91 220.497 544.293 220.089 542.596 220.687C542.442 220.742 542.968 221.579 542.426 221.674C538.436 222.395 534.888 222.355 530.583 223.005C528.526 223.315 525.046 224.36 522.899 224.591C519.176 224.997 514.494 224.389 511.437 225.188C509.432 225.707 510.016 226.534 509.235 227.281C507.734 228.726 504.354 227.081 503.927 226.811C503.901 226.804 505.644 226.316 504.624 226.004C503.919 225.132 503.949 226.803 503.927 226.811C503.638 226.639 500.138 226.975 499.468 227.255C499.106 227.407 499.449 228.223 499.258 228.286C494.7 229.774 489.989 230.73 485.221 231.067C485.135 231.063 485.113 230.094 484.912 230.096C482.098 230.103 480.505 231.541 478.319 232.589C476.157 233.633 474.356 233.678 472.759 232.258C471.087 232.73 468.516 232.394 467.026 232.179C465.537 231.964 465.626 233.843 465.507 233.899C461.773 235.682 459.442 234.963 455.377 235.431C453.463 235.647 449.643 236.521 447.642 237.041C446.042 237.459 444.993 237.18 443.532 237.693C443.334 237.762 443.669 238.552 443.612 238.594C442.086 239.842 442.578 237.704 442.174 237.399C440.71 236.29 439.823 235.716 437.756 236.67C437.279 236.889 436.278 240.014 435.392 240.327C434.238 240.728 434.529 239.619 433.34 240.063C433.239 240.1 433.361 240.737 432.6 240.827C429.066 241.257 425.155 241.489 421.474 242.133C420.97 242.219 421.776 243.133 421.052 243.274C417.668 243.929 413.963 244.473 410.567 244.52C409.731 244.528 410.131 243.736 409.921 243.553C408.631 242.446 407.377 244.546 407.127 244.622C401.192 246.47 396.321 245.515 390.236 247.293C389.9 247.394 387.638 249.79 386.214 248.265C386.117 248.164 384.701 246.597 383.879 247.95C383.828 248.035 384.681 248.822 383.424 248.926C382.168 249.03 380.261 249.946 378.394 249.228C377.804 249.002 376.249 247.462 374.849 249.105C374.755 249.219 372.766 252.751 371.536 250.724C371.336 250.391 371.126 248.074 369.387 249.553C369.055 249.839 369.803 250.245 368.884 250.717C367.478 251.443 365.413 251.14 363.747 252.449C363.457 252.68 362.345 254.45 361.07 253.44C360.871 253.282 361.074 252.466 360.486 252.471C357.686 252.492 354.914 253.453 352.057 253.362C351.046 253.33 351.353 252.014 350.277 251.844C349.201 251.674 347.087 251.681 346.105 252.415C345.123 253.15 346.605 254.937 345.024 255.348C338.149 257.136 331.066 257.068 324.061 258.001C323.023 258.139 323.992 258.709 322.47 258.963C316.868 259.902 307.268 262.096 302.164 261.366C298.077 260.781 302.837 259.092 299.782 259.074C298.307 259.068 297.122 261.605 296.78 261.733C293.489 263.004 290.966 262.362 287.962 263.156C287.342 263.32 288.107 264.152 287.578 264.281C285.771 264.732 283.787 264.621 282.051 264.973C281.266 265.134 281.524 265.82 280.789 265.88C279.03 266.032 277.448 265.977 275.654 265.579C275.491 265.542 276.389 264.495 275.102 264.665C273.02 264.942 270.348 264.692 268.083 265.745C267.409 266.06 267.647 267.685 265.937 266.807C265.579 266.624 265.68 264.612 264.165 266.576C263.91 266.903 261.282 269.645 259.592 268.412C259.145 268.088 257.911 266.65 257.101 267.035C256.993 267.093 257.591 267.891 256.901 268.087C254.466 268.763 251.874 269.078 249.336 269.759C248.663 269.942 249.826 270.682 248.818 270.925C246.046 271.597 242.525 271.918 239.766 272.065C238.749 272.118 239.322 271.261 239.237 271.192C237.858 270.055 237.448 271.948 237.066 272.115C234.71 273.126 232.716 272.582 230.508 273.158C229.898 273.315 230.472 274.096 230.36 274.192C229.201 275.135 229.91 273.457 229.076 273.416C226.729 273.298 224.275 273.756 221.967 274.232C221.124 274.407 222.234 275.243 221.476 275.389C216.982 276.273 212.386 276.903 207.924 277.05C207.078 277.077 207.48 276.235 207.28 276.089C205.896 275.063 204.419 276.993 204.045 277.214C202.345 278.22 201.537 277.66 199.966 278.036C192.28 279.89 182.605 280.96 175.121 281.859C165.531 283.009 157.938 283.465 148.767 285.1C148.192 285.202 148.932 286.121 148.439 286.222C141.998 287.485 135.7 288.07 129.091 289.406C128.56 289.512 129.48 290.35 128.634 290.552C127.015 290.945 124.988 291.226 123.29 291.231C123.163 291.232 123.039 291.232 122.916 291.231C122.005 291.223 123.067 290.214 122.153 290.223C120.026 290.24 117.829 290.514 115.798 290.99C114.934 291.194 116.405 291.968 115.273 292.156C107.402 293.488 99.7499 294.856 91.6209 294.82C91.0582 294.819 90.2651 292.902 89.1741 293.463C89.1735 294.029 89.2792 294.679 89.3333 295.275C77.9286 297.374 66.6657 298.41 55.0614 300.076C54.5762 300.145 55.5737 301.073 54.6375 301.214C49.2382 302.023 44.0344 303.114 38.3037 302.903C37.7363 302.883 37.7887 300.975 36.1795 301.504C35.8748 301.602 33.4624 302.217 32.9358 302.708C32.8566 302.782 33.4396 303.582 32.6502 303.725C28.105 304.538 23.2513 305.052 18.5591 305.181C17.8089 305.199 18.46 304.162 17.9287 304.167C14.1674 304.198 10.141 305.489 6.30568 305.073C3.64686 304.774 4.38568 303.079 2.89224 301.573C2.86728 301.546 2.82152 301.523 2.76511 301.501C2.3507 301.348 1.17498 301.262 1.07936 300.453C0.815636 298.136 1.44498 295.568 1.07219 293.101C1.04354 292.835 0.511119 292.863 0.2959 292.78C0.254178 292.76 0.218884 292.73 0.361615 292.696C0.440741 292.682 0.566521 292.66 0.898381 292.681C1.23342 292.694 1.83133 292.839 1.83055 292.808C1.85703 292.799 1.8507 292.778 1.85944 292.76C1.86437 292.742 1.86706 292.72 1.73355 292.657C1.59803 292.593 1.32712 292.5 1.10195 292.436C0.869039 292.371 0.718052 292.33 0.597937 292.292C0.183806 292.153 0.24541 292.037 0.301283 291.872C0.252659 291.792 1.63494 291.319 1.9674 290.867C2.1969 290.555 1.72631 289.632 2.2037 289.226C2.22943 289.205 2.25573 289.186 2.28264 289.171C2.50842 289.035 2.62168 289.137 2.81736 289.21C3.00476 289.283 3.24914 289.326 3.56752 289.079C4.2305 288.549 3.7722 287.527 5.29074 287.222ZM460.352 231.221C458.913 230.537 459.23 233.818 460.514 232.82C460.576 232.768 460.426 231.254 460.352 231.221ZM618.598 206.457C616.68 205.268 615.771 207.557 617.169 208.486C618.558 209.416 619.179 206.817 618.598 206.457ZM636.19 202.885C634.025 202.031 634.346 206.697 636.373 205.463C636.49 205.393 636.316 202.935 636.19 202.885ZM8.99384 300.487C8.9459 300.45 7.91725 300.538 7.8788 300.586C7.44097 301.695 9.58105 301.508 8.99384 300.487ZM653.644 199.404C652.975 198.851 651.218 199.807 652.112 200.485C652.845 201.028 654.494 200.089 653.644 199.404ZM391.578 238.469C391.55 238.424 390.783 238.5 390.841 238.771C391.032 239.645 392.05 239.229 391.578 238.469ZM666.093 205.563C666.973 203.998 668.312 202.999 669.379 202.672C670.596 202.295 671.442 202.699 671.131 203.787C671.023 204.181 670.769 204.667 670.339 205.273C669.841 205.965 670.208 203.083 669.358 203.831C667.766 205.274 669.324 207.57 667.259 208.85C666.873 209.093 665.94 205.797 666.092 205.553C666.092 205.556 666.093 205.559 666.093 205.563ZM458.992 227.434C458.959 227.395 457.908 227.518 457.889 227.565C457.485 228.685 459.603 228.438 458.992 227.434ZM347.015 243.434C346.942 243.352 344.492 243.651 344.426 243.748C343.422 245.635 348.375 245.036 347.015 243.434ZM529.315 214.046C530.322 212.827 531.69 212.49 532.81 213.652C531.653 213.76 530.491 213.929 529.315 214.046Z" fill="#EFF8FB"/>
<path d="M339.649 381.311L342.46 380.451L310.379 348.103L300.246 403.254C305.827 397.812 318.163 387.887 339.649 381.311ZM293.529 331.079L282.707 320.116L304.996 313.295L393.795 402.513L371.104 409.458L358.077 396.315L345.627 400.125C319.924 407.992 296.29 426.206 294.228 431.669L293.994 433.058L272.307 439.695L293.529 331.079Z" fill="#D54646"/>
<path d="M289.996 454.909L269.047 450.442L291.733 344.054L312.682 348.521L289.996 454.909Z" fill="#D54646"/>
<path d="M366.463 373.777L375.575 388.388L433.487 352.273L445.044 370.804L368.957 418.254L311.395 325.952L384.096 280.614L395.542 298.967L341.016 332.971L355.017 355.423C360.147 345.79 369.859 338.743 380.55 332.075L394.093 323.63L405.538 341.983L391.996 350.429C375.068 360.986 371.815 364.499 366.463 373.777Z" fill="#D54646"/>
<path d="M129.738 638.464L91.5937 670.661L62.5601 664.847L119.159 617.499L89.8906 559.38L118.924 565.194L137.613 602.347L169.784 575.379L197.994 581.028L148.028 623.065L181.165 688.598L152.338 682.825L129.738 638.464Z" fill="#EBD141"/>
</svg>
