<svg width="1745" height="1116" viewBox="0 0 1745 1116" fill="none" xmlns="http://www.w3.org/2000/svg">
<path d="M1580.05 799.093C1588.66 823.002 1576.75 849.197 1553.43 857.599C1547.99 859.56 1542.41 860.376 1536.95 860.175C1534.67 860.091 1532.87 862.304 1533.64 864.443L1569.12 962.889C1569.68 964.448 1568.87 966.167 1567.31 966.729L1471.39 1001.3C1469.28 1002.06 1468.71 1004.81 1470.18 1006.5C1473.88 1010.76 1476.88 1015.77 1478.92 1021.41C1487.53 1045.32 1475.62 1071.52 1452.3 1079.92C1428.99 1088.32 1403.1 1075.75 1394.49 1051.84C1392.45 1046.2 1391.56 1040.42 1391.7 1034.79C1391.75 1032.54 1389.56 1030.79 1387.45 1031.55L1291.53 1066.12C1289.97 1066.68 1288.25 1065.88 1287.69 1064.32L1252.21 965.87C1251.44 963.731 1253.24 961.518 1255.51 961.602C1260.98 961.804 1266.56 960.987 1272 959.027C1295.31 950.624 1307.23 924.43 1298.61 900.521C1290 876.612 1264.11 864.041 1240.79 872.444C1235.36 874.404 1230.54 877.335 1226.46 880.978C1224.76 882.492 1221.96 881.939 1221.19 879.8L1185.71 781.353C1185.15 779.794 1185.95 778.075 1187.51 777.513L1283.43 742.943C1285.55 742.182 1286.12 739.434 1284.64 737.739C1280.94 733.486 1277.95 728.474 1275.91 722.828C1267.29 698.919 1279.21 672.726 1302.52 664.323C1325.84 655.921 1351.72 668.491 1360.34 692.4C1362.38 698.045 1363.26 703.818 1363.13 709.454C1363.07 711.699 1365.27 713.451 1367.38 712.69L1463.3 678.12C1464.86 677.558 1466.58 678.367 1467.14 679.925L1502.62 778.373C1503.39 780.512 1506.19 781.065 1507.89 779.551C1511.97 775.907 1516.79 772.977 1522.23 771.016C1545.54 762.614 1571.43 775.184 1580.05 799.093Z" fill="#3880D4"/>
<path d="M1744.11 352C1744.11 377.414 1723.91 398.017 1698.98 398.018C1693.16 398.018 1687.59 396.889 1682.47 394.837C1680.36 393.991 1677.92 395.461 1677.92 397.731L1677.92 502.39C1677.92 504.046 1676.58 505.39 1674.92 505.39L1572.35 505.39C1570.1 505.39 1568.64 502.992 1569.45 500.896C1571.5 495.642 1572.63 489.913 1572.63 483.915C1572.63 458.501 1552.42 437.898 1527.5 437.898C1502.58 437.898 1482.37 458.501 1482.37 483.915C1482.37 489.913 1483.5 495.642 1485.55 500.896C1486.37 502.992 1484.9 505.39 1482.65 505.39L1380.08 505.39C1378.42 505.39 1377.08 504.046 1377.08 502.39L1377.08 397.731C1377.08 395.461 1379.52 393.991 1381.62 394.837C1386.74 396.889 1392.31 398.018 1398.14 398.018C1423.06 398.018 1443.26 377.414 1443.26 352C1443.26 326.586 1423.06 305.983 1398.14 305.983C1392.31 305.983 1386.74 307.112 1381.62 309.164C1379.52 310.01 1377.08 308.54 1377.08 306.269L1377.08 201.61C1377.08 199.953 1378.42 198.61 1380.08 198.61L1482.65 198.61C1484.9 198.61 1486.37 201.008 1485.55 203.104C1483.5 208.358 1482.37 214.087 1482.37 220.085C1482.37 245.499 1502.58 266.101 1527.5 266.102C1552.42 266.102 1572.63 245.499 1572.63 220.085C1572.63 214.087 1571.5 208.358 1569.45 203.104C1568.64 201.008 1570.1 198.61 1572.35 198.61L1674.92 198.61C1676.58 198.61 1677.92 199.953 1677.92 201.61L1677.92 306.269C1677.92 308.539 1680.36 310.009 1682.47 309.163C1687.59 307.111 1693.16 305.983 1698.98 305.983C1723.91 305.984 1744.11 326.586 1744.11 352Z" fill="#D54646"/>
<path d="M1002 0.119141C1026.99 0.119249 1047.25 20.7214 1047.25 46.1357C1047.25 52.1323 1046.12 57.8602 1044.07 63.1132C1043.25 65.2097 1044.72 67.6104 1046.97 67.6104L1149.85 67.6104C1151.5 67.6104 1152.85 68.9535 1152.85 70.6104V175.275C1152.85 177.544 1150.41 179.014 1148.3 178.17C1143.17 176.114 1137.58 174.983 1131.73 174.983C1106.74 174.983 1086.47 195.586 1086.47 221C1086.47 246.414 1106.74 267.018 1131.73 267.018C1137.58 267.018 1143.17 265.886 1148.3 263.829C1150.41 262.985 1152.85 264.455 1152.85 266.724V371.39C1152.85 373.047 1151.5 374.39 1149.85 374.39H1046.97C1044.72 374.39 1043.25 376.79 1044.07 378.887C1046.12 384.14 1047.25 389.868 1047.25 395.864C1047.25 421.279 1026.99 441.882 1002 441.882C977.007 441.882 956.745 421.279 956.745 395.864C956.745 389.868 957.875 384.14 959.928 378.887C960.747 376.79 959.279 374.39 957.028 374.39H854.152C852.495 374.39 851.152 373.047 851.152 371.39L851.152 266.724C851.152 264.455 853.59 262.985 855.696 263.829C860.829 265.886 866.42 267.018 872.271 267.018C897.264 267.018 917.525 246.414 917.525 221C917.525 195.586 897.264 174.983 872.271 174.983C866.42 174.983 860.829 176.114 855.696 178.17C853.59 179.014 851.152 177.544 851.152 175.275V70.6104C851.152 68.9535 852.495 67.6104 854.152 67.6104L957.028 67.6104C959.279 67.6104 960.747 65.2097 959.928 63.1133C957.875 57.8603 956.745 52.1324 956.745 46.1357C956.745 20.7213 977.007 0.119141 1002 0.119141Z" fill="#EBD141"/>
<path d="M877.779 546.505C901.623 553.758 914.956 579.349 907.56 603.663C905.814 609.401 903.068 614.554 899.58 618.985C898.189 620.752 898.896 623.474 901.048 624.128L999.178 653.98C1000.76 654.462 1001.66 656.138 1001.18 657.723L970.716 757.851C970.055 760.023 971.963 762.14 974.225 761.944C979.714 761.469 985.371 762.011 990.947 763.707C1014.79 770.961 1028.12 796.551 1020.73 820.865C1013.33 845.18 988.005 859.011 964.161 851.757C958.585 850.061 953.586 847.36 949.291 843.908C947.521 842.486 944.758 843.181 944.097 845.354L913.637 945.482C913.155 947.067 911.479 947.962 909.894 947.479L811.764 917.628C809.612 916.973 807.509 918.839 807.681 921.082C808.111 926.705 807.521 932.514 805.776 938.252C798.379 962.566 773.053 976.398 749.209 969.144C725.365 961.891 712.032 936.299 719.429 911.985C721.174 906.247 723.92 901.093 727.408 896.663C728.799 894.895 728.092 892.174 725.94 891.52L627.81 861.668C626.225 861.186 625.331 859.51 625.813 857.924L656.273 757.796C656.933 755.623 655.026 753.507 652.764 753.703C647.274 754.178 641.617 753.638 636.041 751.941C612.197 744.688 598.864 719.096 606.26 694.782C613.657 670.468 638.982 656.638 662.826 663.891C668.402 665.587 673.402 668.287 677.698 671.739C679.468 673.161 682.231 672.466 682.891 670.293L713.351 570.165C713.833 568.58 715.509 567.686 717.094 568.168L815.224 598.02C817.376 598.675 819.479 596.808 819.308 594.566C818.878 588.943 819.467 583.134 821.213 577.396C828.609 553.081 853.934 539.251 877.779 546.505Z" fill="white"/>
<path d="M384.408 1010.54C382.282 1011.34 380.049 1009.57 380.101 1007.3C380.228 1001.79 379.329 996.177 377.283 990.719C368.535 967.382 342.152 955.695 318.355 964.616C294.557 973.536 282.357 999.686 291.105 1023.02C293.151 1028.48 296.163 1033.3 299.879 1037.37C301.411 1039.04 300.892 1041.85 298.766 1042.64L200.765 1079.38C199.214 1079.96 197.485 1079.17 196.903 1077.62L160.901 981.578C160.111 979.471 161.841 977.255 164.09 977.284C169.729 977.357 175.489 976.401 181.105 974.296C204.902 965.375 217.102 939.226 208.354 915.888C199.606 892.551 173.223 880.864 149.426 889.785C143.809 891.89 138.84 894.956 134.639 898.718C132.964 900.218 130.203 899.685 129.414 897.579L93.4111 801.534C92.8295 799.983 93.6157 798.254 95.1672 797.672L193.167 760.936C195.294 760.139 195.813 757.338 194.281 755.662C190.564 751.594 187.552 746.775 185.507 741.318C176.759 717.98 188.959 691.83 212.757 682.909C236.554 673.989 262.937 685.676 271.685 709.013C273.731 714.471 274.629 720.082 274.503 725.59C274.451 727.86 276.684 729.63 278.81 728.833L376.809 692.098C378.361 691.516 380.09 692.302 380.671 693.854L484.164 969.942C484.745 971.493 483.959 973.222 482.408 973.804L384.408 1010.54Z" fill="#3880D4"/>
<path d="M979.42 239.274L1031.29 239.211L1031.21 173.901L1003.28 173.935C998.27 196.831 991.371 223.299 979.42 239.274ZM1066.42 285.159L1044.58 285.185L1044.55 261.035L954.667 261.143L954.696 285.293L932.856 285.319L932.8 239.329L953.8 239.304C974.769 213.239 976.843 191.607 980.602 173.962L963.382 173.983L953.696 152.364L1052.61 152.246L1052.71 239.186L1066.36 239.169L1066.42 285.159Z" fill="#D54646"/>
<mask id="path-13-inside-1_846_2491" fill="white">
<path d="M362.34 269.563C362.922 271.746 365.638 272.542 367.451 271.194C372.051 267.772 377.364 265.148 383.241 263.581C408.097 256.954 433.619 271.732 440.246 296.587C446.873 321.443 432.095 346.965 407.239 353.592C401.361 355.159 395.447 355.527 389.754 354.849C387.51 354.582 385.551 356.624 386.134 358.808L413.46 461.307C413.887 462.907 412.935 464.551 411.335 464.978L308.836 492.305C306.653 492.887 305.857 495.602 307.206 497.416C310.627 502.016 313.252 507.328 314.819 513.205C321.446 538.061 306.668 563.583 281.812 570.209C256.956 576.836 231.435 562.059 224.808 537.203C223.241 531.326 222.873 525.412 223.55 519.719C223.818 517.475 221.775 515.516 219.592 516.098L117.094 543.425C115.493 543.852 113.849 542.9 113.422 541.299L34.9755 247.058C34.5486 245.457 35.5005 243.813 37.1014 243.386L331.342 164.94C332.943 164.513 334.587 165.465 335.014 167.066L362.34 269.563Z"/>
</mask>
<path d="M362.34 269.563C362.922 271.746 365.638 272.542 367.451 271.194C372.051 267.772 377.364 265.148 383.241 263.581C408.097 256.954 433.619 271.732 440.246 296.587C446.873 321.443 432.095 346.965 407.239 353.592C401.361 355.159 395.447 355.527 389.754 354.849C387.51 354.582 385.551 356.624 386.134 358.808L413.46 461.307C413.887 462.907 412.935 464.551 411.335 464.978L308.836 492.305C306.653 492.887 305.857 495.602 307.206 497.416C310.627 502.016 313.252 507.328 314.819 513.205C321.446 538.061 306.668 563.583 281.812 570.209C256.956 576.836 231.435 562.059 224.808 537.203C223.241 531.326 222.873 525.412 223.55 519.719C223.818 517.475 221.775 515.516 219.592 516.098L117.094 543.425C115.493 543.852 113.849 542.9 113.422 541.299L34.9755 247.058C34.5486 245.457 35.5005 243.813 37.1014 243.386L331.342 164.94C332.943 164.513 334.587 165.465 335.014 167.066L362.34 269.563Z" fill="white"/>
<path d="M383.241 263.581L382.983 262.615L382.983 262.615L383.241 263.581ZM440.246 296.587L441.212 296.33L441.212 296.33L440.246 296.587ZM407.239 353.592L407.496 354.558L407.496 354.558L407.239 353.592ZM314.819 513.205L315.785 512.948L315.785 512.948L314.819 513.205ZM281.812 570.209L282.069 571.176L282.069 571.176L281.812 570.209ZM224.808 537.203L223.842 537.461L223.842 537.461L224.808 537.203ZM331.342 164.94L331.085 163.973L331.342 164.94ZM308.836 492.305L309.094 493.271L308.836 492.305ZM307.206 497.416L306.403 498.012L307.206 497.416ZM389.754 354.849L389.872 353.856L389.754 354.849ZM223.55 519.719L224.543 519.837L223.55 519.719ZM219.592 516.098L219.334 515.132L219.592 516.098ZM411.335 464.978L411.077 464.012L411.335 464.978ZM117.094 543.425L117.351 544.391L117.094 543.425ZM367.451 271.194L368.048 271.996L367.451 271.194ZM367.451 271.194L368.048 271.996C372.548 268.649 377.746 266.081 383.499 264.547L383.241 263.581L382.983 262.615C376.982 264.215 371.554 266.896 366.854 270.391L367.451 271.194ZM383.241 263.581L383.499 264.547C407.821 258.063 432.795 272.523 439.28 296.845L440.246 296.587L441.212 296.33C434.443 270.94 408.373 255.846 382.983 262.615L383.241 263.581ZM440.246 296.587L439.28 296.845C445.764 321.167 431.303 346.141 406.981 352.626L407.239 353.592L407.496 354.558C432.886 347.789 447.981 321.719 441.212 296.33L440.246 296.587ZM407.239 353.592L406.981 352.626C401.228 354.16 395.442 354.519 389.872 353.856L389.754 354.849L389.636 355.842C395.452 356.535 401.494 356.159 407.496 354.558L407.239 353.592ZM386.134 358.808L385.167 359.065L412.494 461.564L413.46 461.307L414.427 461.049L387.1 358.55L386.134 358.808ZM411.335 464.978L411.077 464.012L308.579 491.339L308.836 492.305L309.094 493.271L411.592 465.944L411.335 464.978ZM307.206 497.416L306.403 498.012C309.751 502.513 312.319 507.71 313.853 513.463L314.819 513.205L315.785 512.948C314.185 506.946 311.504 501.519 308.008 496.819L307.206 497.416ZM314.819 513.205L313.853 513.463C320.337 537.785 305.876 562.759 281.554 569.243L281.812 570.209L282.069 571.176C307.459 564.407 322.554 538.337 315.785 512.948L314.819 513.205ZM281.812 570.209L281.554 569.243C257.232 575.727 232.259 561.267 225.774 536.945L224.808 537.203L223.842 537.461C230.611 562.85 256.68 577.944 282.069 571.176L281.812 570.209ZM224.808 537.203L225.774 536.945C224.24 531.193 223.88 525.406 224.543 519.837L223.55 519.719L222.557 519.6C221.865 525.417 222.242 531.459 223.842 537.461L224.808 537.203ZM219.592 516.098L219.334 515.132L116.836 542.458L117.094 543.425L117.351 544.391L219.849 517.064L219.592 516.098ZM113.422 541.299L114.388 541.041L35.9417 246.8L34.9755 247.058L34.0092 247.316L112.456 541.556L113.422 541.299ZM37.1014 243.386L37.359 244.353L331.6 165.906L331.342 164.94L331.085 163.973L36.8438 242.42L37.1014 243.386ZM335.014 167.066L334.048 167.323L361.374 269.82L362.34 269.563L363.307 269.305L335.98 166.808L335.014 167.066ZM331.342 164.94L331.6 165.906C332.667 165.621 333.763 166.256 334.048 167.323L335.014 167.066L335.98 166.808C335.411 164.673 333.219 163.404 331.085 163.973L331.342 164.94ZM34.9755 247.058L35.9417 246.8C35.6572 245.733 36.2917 244.637 37.359 244.353L37.1014 243.386L36.8438 242.42C34.7092 242.989 33.4401 245.181 34.0092 247.316L34.9755 247.058ZM308.836 492.305L308.579 491.339C305.634 492.124 304.682 495.699 306.403 498.012L307.206 497.416L308.008 496.819C307.031 495.506 307.672 493.65 309.094 493.271L308.836 492.305ZM389.754 354.849L389.872 353.856C387.009 353.515 384.382 356.12 385.167 359.065L386.134 358.808L387.1 358.55C386.721 357.128 388.011 355.648 389.636 355.842L389.754 354.849ZM223.55 519.719L224.543 519.837C224.884 516.974 222.279 514.347 219.334 515.132L219.592 516.098L219.849 517.064C221.271 516.685 222.751 517.976 222.557 519.6L223.55 519.719ZM413.46 461.307L412.494 461.564C412.779 462.631 412.144 463.727 411.077 464.012L411.335 464.978L411.592 465.944C413.727 465.375 414.996 463.183 414.427 461.049L413.46 461.307ZM117.094 543.425L116.836 542.458C115.769 542.743 114.673 542.108 114.388 541.041L113.422 541.299L112.456 541.556C113.025 543.691 115.217 544.96 117.351 544.391L117.094 543.425ZM367.451 271.194L366.854 270.391C365.541 271.368 363.686 270.727 363.307 269.305L362.34 269.563L361.374 269.82C362.159 272.766 365.734 273.717 368.048 271.996L367.451 271.194Z" fill="black" mask="url(#path-13-inside-1_846_2491)"/>
<path d="M581.813 490.246C556.957 496.873 531.435 482.095 524.808 457.239C523.241 451.361 522.873 445.447 523.55 439.754C523.817 437.51 521.775 435.552 519.592 436.134L417.094 463.46C415.493 463.887 413.849 462.935 413.422 461.335L386.096 358.837C385.513 356.654 387.472 354.612 389.716 354.879C395.409 355.556 401.323 355.187 407.2 353.62C432.056 346.994 446.834 321.472 440.208 296.616C433.581 271.76 408.059 256.982 383.203 263.609C377.325 265.176 372.013 267.801 367.413 271.223C365.6 272.572 362.884 271.776 362.302 269.593L334.975 167.094C334.548 165.493 335.5 163.849 337.101 163.422L439.599 136.095C441.783 135.513 443.825 137.472 443.558 139.716C442.88 145.409 443.249 151.323 444.816 157.2C451.442 182.056 476.965 196.834 501.821 190.207C526.676 183.58 541.453 158.059 534.827 133.203C533.26 127.325 530.635 122.013 527.213 117.413C525.864 115.6 526.66 112.884 528.844 112.302L631.342 84.9755C632.943 84.5486 634.587 85.5004 635.014 87.1014L662.341 189.6C662.923 191.784 665.638 192.58 667.451 191.231C672.051 187.809 677.363 185.184 683.241 183.617C708.097 176.99 733.619 191.768 740.246 216.624C746.872 241.48 732.094 267.001 707.239 273.628C701.361 275.195 695.447 275.564 689.754 274.886C687.51 274.619 685.552 276.661 686.134 278.845L713.46 381.342C713.887 382.943 712.935 384.587 711.334 385.014L608.836 412.34C606.653 412.923 605.857 415.638 607.206 417.451C610.627 422.051 613.252 427.364 614.819 433.241C621.446 458.097 606.669 483.619 581.813 490.246Z" fill="#D54646"/>
<path d="M498.067 336.873L504.727 315.701C511.354 318.473 520.227 321.506 526.51 319.802C534.617 317.603 537.517 312.247 539.938 305.933C517.585 301.335 486.275 274.143 468.231 242.917L491.539 236.595C504.639 260.023 524.32 278.837 547.849 286.163C552.18 270.845 557.41 244.404 558.625 218.399L581.122 212.297C579.104 246.571 572.157 289.144 559.557 316.496C552.279 332.178 545.735 336.129 531.547 339.977C523.035 342.286 508.799 341.143 498.067 336.873Z" fill="#EFF8FB"/>
<path d="M1508 324.949L1495.68 306.352C1510.1 297.422 1526.89 295.194 1536.76 295.118C1565.95 294.895 1582.62 306.108 1582.79 328.158C1582.84 334.458 1580.8 342.873 1575.59 347.743C1584.24 352.507 1588.52 363.185 1588.59 373.055C1588.81 401.404 1562.63 410.844 1537.64 411.035C1518.95 411.178 1497.06 403.785 1485 391.907L1497.24 373.123C1509.72 385.208 1524.45 389.085 1537.47 388.986C1554.27 388.857 1567.06 385.4 1566.96 372.8C1566.88 362.51 1558.47 360.264 1549.86 360.33L1526.97 360.505L1526.8 338.876L1549.69 338.701C1557.25 338.643 1560.57 333.368 1560.53 328.328C1560.47 320.138 1551.62 316.845 1536.92 316.958C1531.25 317.001 1518.04 319.202 1508 324.949Z" fill="#EFF8FB"/>
<path d="M254.049 884.456L263.953 913.916L300.778 901.535C309.138 898.724 316.232 894.124 312.886 884.171C309.606 874.418 301.042 875.303 292.881 878.047L288.303 879.586C276.36 883.601 264.746 886.62 254.049 884.456ZM381.387 897.475L361.083 904.301L326.417 801.192L346.721 794.366L381.387 897.475ZM236.247 831.508L247.156 863.954C257.719 865.72 262.5 865.442 281.41 859.084L285.988 857.545C306.49 850.652 326.294 856.179 333.522 877.676C340.816 899.373 328.24 915.343 307.738 922.236L250.411 941.51L215.745 838.402L236.247 831.508Z" fill="#EFF8FB"/>
<path d="M785.03 764.613L772.496 806.018L751.995 799.812L783.512 695.698L804.013 701.904L791.419 743.509C795.785 742.856 800.249 743.33 804.47 744.608C813.113 747.224 824.461 753.95 834.912 757.114C839.334 758.453 843.939 759.188 848.768 758.456L860.693 719.062L881.195 725.268L849.678 829.382L829.176 823.176L842.379 779.56C837.751 780.353 833.549 779.74 829.328 778.462C818.474 775.176 809.075 769.259 798.825 766.156C794.202 764.757 789.799 764.082 785.03 764.613Z" fill="#D54646"/>
<path d="M1420.02 819.79L1365.84 840.386L1396.81 921.848L1376.79 929.459L1338.14 827.779L1412.33 799.572L1420.02 819.79Z" fill="#EFF8FB"/>
<path d="M210.661 340.634L219.182 372.049C226.873 364.305 238.409 360.306 250.569 357.008L259.893 354.479C269.824 351.785 275.962 347.944 272.939 336.797C270.19 326.663 261.533 326.835 253.021 329.144L210.661 340.634ZM233.475 424.745L212.802 430.352L184.326 325.365L251.007 307.279C271.275 301.782 288.778 310.96 294.275 331.228C299.882 351.901 289.065 368.978 265.555 375.355L256.232 377.883C236.977 383.106 232.646 385.586 224.845 392.924L233.475 424.745Z" fill="#3880D4"/>
</svg>
