<svg width="991" height="486" viewBox="0 0 991 486" fill="none" xmlns="http://www.w3.org/2000/svg">
<g clip-path="url(#clip0_121_4868)">
<path d="M70.8 470H11.16V381.32H23.16V458.36H70.8V470ZM87.1847 396.56C84.7847 396.56 82.7847 395.8 81.1847 394.28C79.5847 392.68 78.7847 390.68 78.7847 388.28C78.7847 385.96 79.5847 384.04 81.1847 382.52C82.7847 381 84.7847 380.24 87.1847 380.24C89.4247 380.24 91.3447 381.04 92.9447 382.64C94.5447 384.16 95.3447 386.04 95.3447 388.28C95.3447 390.68 94.5447 392.68 92.9447 394.28C91.3447 395.8 89.4247 396.56 87.1847 396.56ZM92.7047 405.68V470H81.1847V405.68H92.7047ZM122.119 470H110.599V405.68H121.879V414.8C125.959 407.6 132.759 404 142.279 404C149.479 404 155.519 406.32 160.399 410.96C165.279 415.6 167.719 422.28 167.719 431V470H156.319V434.24C156.319 428.08 154.799 423.28 151.759 419.84C148.799 416.4 144.839 414.68 139.879 414.68C134.679 414.68 130.399 416.52 127.039 420.2C123.759 423.96 122.119 428.68 122.119 434.36V470ZM235.658 414.08V405.68H247.058V463.4C247.058 473.72 243.938 481.96 237.698 488.12C231.378 494.28 223.018 497.36 212.618 497.36C202.138 497.36 192.658 494.32 184.178 488.24L189.578 479.12C196.618 484.32 204.258 486.92 212.498 486.92C219.618 486.92 225.258 484.88 229.418 480.8C233.578 476.88 235.658 471.72 235.658 465.32V460.04C229.898 466.76 222.378 470.12 213.098 470.12C203.818 470.12 196.138 466.96 190.058 460.64C183.898 454.24 180.818 446.36 180.818 437C180.818 427.64 183.978 419.84 190.298 413.6C196.618 407.28 204.418 404.12 213.698 404.12C222.578 404.12 229.898 407.44 235.658 414.08ZM198.698 453.32C202.938 457.64 208.178 459.8 214.418 459.8C220.738 459.8 225.978 457.64 230.138 453.32C234.298 449.08 236.378 443.68 236.378 437.12C236.378 430.56 234.298 425.2 230.138 421.04C225.898 416.72 220.658 414.56 214.418 414.56C208.098 414.56 202.858 416.72 198.698 421.04C194.538 425.2 192.458 430.56 192.458 437.12C192.458 443.68 194.538 449.08 198.698 453.32ZM289.898 453.8L309.338 405.68H322.057L293.738 469.88H285.698L257.378 405.68H270.218L289.898 453.8ZM359.619 471.56C349.779 471.56 341.659 468.32 335.259 461.84C328.939 455.28 325.779 447.24 325.779 437.72C325.779 428.2 328.939 420.24 335.259 413.84C341.579 407.28 349.699 404 359.619 404C369.379 404 377.419 407.28 383.739 413.84C390.139 420.48 393.339 428.44 393.339 437.72C393.339 447.16 390.139 455.2 383.739 461.84C377.339 468.32 369.299 471.56 359.619 471.56ZM381.819 437.72C381.819 431.4 379.659 426 375.339 421.52C371.019 416.96 365.779 414.68 359.619 414.68C353.459 414.68 348.219 416.96 343.899 421.52C339.579 426 337.419 431.4 337.419 437.72C337.419 444.12 339.579 449.6 343.899 454.16C348.219 458.72 353.459 461 359.619 461C365.779 461 371.019 458.72 375.339 454.16C379.659 449.6 381.819 444.12 381.819 437.72ZM449.083 471.32C436.043 471.32 425.203 467 416.563 458.36C408.003 449.64 403.723 438.76 403.723 425.72C403.723 412.44 408.203 401.48 417.163 392.84C426.123 384.12 437.003 379.76 449.803 379.76C457.163 379.76 464.123 381.24 470.683 384.2C477.323 387.16 482.683 391.12 486.763 396.08L478.243 403.88C470.803 395.56 461.363 391.4 449.923 391.4C440.403 391.4 432.323 394.64 425.683 401.12C419.203 407.6 415.963 415.84 415.963 425.84C415.963 435.6 419.203 443.72 425.683 450.2C432.243 456.6 440.203 459.8 449.563 459.8C454.763 459.8 459.883 458.68 464.923 456.44C469.963 454.2 474.323 451.16 478.003 447.32V429.68H448.363V418.64H489.283V452.6C478.483 465.08 465.083 471.32 449.083 471.32ZM555.346 415.04V405.68H566.386V470H555.346V460.88C549.586 468 542.026 471.56 532.666 471.56C523.386 471.56 515.706 468.28 509.626 461.72C503.546 455.16 500.506 447.04 500.506 437.36C500.506 427.68 503.546 419.76 509.626 413.6C515.706 407.28 523.386 404.12 532.666 404.12C541.786 404.12 549.346 407.76 555.346 415.04ZM556.066 437.72C556.066 431.24 554.026 425.8 549.946 421.4C545.866 416.92 540.546 414.68 533.986 414.68C527.426 414.68 522.146 416.92 518.146 421.4C514.146 425.88 512.146 431.36 512.146 437.84C512.146 444.32 514.146 449.8 518.146 454.28C522.146 458.76 527.426 461 533.986 461C540.546 461 545.866 458.76 549.946 454.28C554.026 449.88 556.066 444.36 556.066 437.72ZM658.551 404C666.311 404 672.551 406.52 677.271 411.56C681.911 416.44 684.231 423.16 684.231 431.72V470H672.711V433.52C672.711 427.52 671.311 422.88 668.511 419.6C665.791 416.32 662.031 414.68 657.231 414.68C652.191 414.68 648.071 416.44 644.871 419.96C641.671 423.48 640.071 428.08 640.071 433.76V470H628.671V433.76C628.671 427.76 627.271 423.08 624.471 419.72C621.671 416.36 617.871 414.68 613.071 414.68C608.031 414.68 603.871 416.48 600.591 420.08C597.391 423.6 595.791 428.24 595.791 434V470H584.271V405.68H595.551V415.16C597.471 411.56 600.111 408.8 603.471 406.88C606.911 404.88 610.751 403.92 614.991 404C619.391 404 623.431 405.08 627.111 407.24C630.791 409.32 633.471 412.24 635.151 416C637.311 412.32 640.471 409.4 644.631 407.24C648.871 405.08 653.511 404 658.551 404ZM760.867 436.64C760.867 437.44 760.747 439.4 760.507 442.52H709.267C710.307 448.2 712.707 452.68 716.467 455.96C720.227 459.24 725.347 460.88 731.827 460.88C735.667 460.88 739.627 460.24 743.707 458.96C747.787 457.6 751.307 455.84 754.267 453.68L759.187 462.44C755.827 465 751.667 467.16 746.707 468.92C741.747 470.6 736.707 471.44 731.587 471.44C725.747 471.44 720.547 470.48 715.987 468.56C711.507 466.64 707.947 464.04 705.307 460.76C702.667 457.48 700.667 453.88 699.307 449.96C697.947 446.04 697.267 441.92 697.267 437.6C697.267 428 700.267 420 706.267 413.6C712.347 407.28 720.187 404.12 729.787 404.12C738.907 404.12 746.347 407.04 752.107 412.88C757.947 418.72 760.867 426.64 760.867 436.64ZM709.267 432.56H748.987C748.667 427.04 746.707 422.64 743.107 419.36C739.587 416 735.147 414.32 729.787 414.32C724.587 414.32 720.107 416.04 716.347 419.48C712.587 422.84 710.227 427.2 709.267 432.56ZM770.986 426.2C770.986 413.24 775.466 402.28 784.426 393.32C793.466 384.28 804.266 379.76 816.826 379.76C829.386 379.76 840.186 384.28 849.226 393.32C858.266 402.36 862.786 413.16 862.786 425.72C862.786 438.28 858.266 449.08 849.226 458.12C840.186 467 829.266 471.44 816.466 471.44C803.586 471.44 792.786 467.08 784.066 458.36C775.346 449.64 770.986 438.92 770.986 426.2ZM850.306 425.84C850.306 416.08 847.066 407.92 840.586 401.36C834.106 394.8 826.186 391.52 816.826 391.52C807.546 391.52 799.666 394.84 793.186 401.48C786.706 408.12 783.466 416.24 783.466 425.84C783.466 435.36 786.666 443.44 793.066 450.08C799.386 456.56 807.306 459.8 816.826 459.8C826.346 459.8 834.266 456.56 840.586 450.08C847.066 443.6 850.306 435.52 850.306 425.84ZM895.005 471.44C890.045 471.44 885.405 470.24 881.085 467.84C876.845 465.44 873.525 462 871.125 457.52L879.405 451.16C881.165 454.44 883.485 456.96 886.365 458.72C889.325 460.48 892.325 461.36 895.365 461.36C898.725 461.36 901.445 460.52 903.525 458.84C905.685 457.08 906.765 454.96 906.765 452.48C906.765 449.04 904.805 446.32 900.885 444.32C899.845 443.76 897.165 442.56 892.845 440.72C888.845 439.04 886.205 437.84 884.925 437.12C878.365 433.52 875.085 428.32 875.085 421.52C875.085 416.32 877.005 412.04 880.845 408.68C884.605 405.24 889.685 403.52 896.085 403.52C900.245 403.52 904.165 404.4 907.845 406.16C911.525 407.92 914.405 410.44 916.485 413.72L909.165 420.68C905.645 415.72 901.045 413.24 895.365 413.24C892.565 413.24 890.325 414 888.645 415.52C886.965 416.96 886.125 418.8 886.125 421.04C886.125 424.4 887.925 426.92 891.525 428.6L898.605 431.72C902.445 433.24 905.325 434.56 907.245 435.68C914.525 439.36 918.165 444.76 918.165 451.88C918.165 457.4 916.005 462.04 911.685 465.8C907.285 469.56 901.725 471.44 895.005 471.44Z" fill="#F8FAFE"/>
<path d="M123.256 258.469C77.0058 297.425 58.628 296.08 14 297.46C61.5136 306.634 86.2128 298.984 126.898 262.629C134.207 256.452 139.13 250.242 147.969 238.975C171.954 211.133 186.008 210.954 211.962 233.256C212.793 233.999 213.59 234.711 214.354 235.398C215.403 234.342 216.448 233.227 217.516 232.037C217.486 232.01 217.455 231.983 217.425 231.956C188.456 205.01 172.523 203.747 144.848 234.815L133.285 247.482C130.172 251.409 127.42 254.962 123.256 258.469Z" fill="#F8FAFE"/>
<path d="M136.523 281.344C175.882 278.731 196.926 276.81 217.425 265.748C235.206 257.387 237.154 250.55 220.934 235.169C219.842 236.363 218.796 237.48 217.785 238.526C229.523 249.45 229.723 252.868 214.043 262.629C193.206 270.875 181.4 273.064 160.195 274.066C169.611 267.199 180.223 261.58 199.476 251.452C206.153 249.085 211.231 245.306 217.785 238.526C216.733 237.547 215.588 236.507 214.354 235.398C209.415 240.367 204.399 244.03 196.614 248.072L136.523 281.344Z" fill="#F8FAFE"/>
<path d="M217.516 232.037C216.448 233.227 215.403 234.342 214.354 235.398C215.588 236.507 216.733 237.547 217.785 238.526C218.796 237.48 219.842 236.363 220.934 235.169C219.873 234.162 218.734 233.119 217.516 232.037Z" fill="#F8FAFE"/>
<path d="M271.533 173.991L222.888 225.718C220.972 228.058 219.216 230.143 217.516 232.037C218.734 233.119 219.873 234.162 220.934 235.169C222.742 233.192 224.677 231.004 226.79 228.578L274.915 177.11C291.043 161.774 288.962 157.875 303.529 177.11L322.896 199.854C324.105 198.498 325.255 197.188 326.354 195.905L307.692 173.991C292.091 154.748 289.23 153.818 271.533 173.991Z" fill="#F8FAFE"/>
<path d="M366.482 243.393C365.761 242.052 364.141 240.274 364.141 240.274L329.908 200.078C328.786 201.338 327.607 202.618 326.366 203.928L353.995 236.375C358.345 240.515 356.234 240.533 349.313 238.975C341.393 236.933 335.888 236.5 321.219 238.975C289.876 246.447 270.169 255.178 234.074 272.767C244.78 258.955 251.088 250.96 258.006 240.274C267.716 227.138 274.699 222.091 291.043 218.96C308.026 216.672 315.188 212.755 326.161 204.144C326.229 204.072 326.298 204 326.366 203.928L322.896 199.854L322.779 199.984C311.766 208.917 304.721 211.872 291.043 214.541C274.995 216.717 266.898 221.261 254.364 236.375C252.896 240.444 241.813 255.629 211.962 289.662C260.197 265.46 284.53 254.879 321.219 243.393C335.936 240.707 343.937 240.921 357.637 245.213L362.84 247.552C363.85 247.973 364.364 248.404 365.441 248.592C366.342 248.749 367.275 249.352 367.783 248.592C368.121 248.085 367.842 247.119 367.783 246.513C367.635 245.011 367.196 244.723 366.482 243.393Z" fill="#F8FAFE"/>
<path d="M394.316 137.86C371.94 125.73 361.9 128.829 349.313 155.275C341.68 175.512 335.951 184.7 326.354 195.905L329.908 200.078C341.884 186.632 347.477 175.508 355.296 155.275C365.02 133.912 374.109 133.216 394.316 144.359C405.695 145.991 409.403 143.263 414.086 135.781C435.231 88.9878 448.272 62.3707 481.981 11.5306C488.057 2.47639 489.011 5.55234 490.566 11.5306C494.349 92.6224 493.227 129.468 486.664 183.089C483.976 195.798 480.901 206.261 475.351 214.021C470.734 222.139 465.223 225.248 456.488 222.079C446.466 218.888 437.961 223.466 422.939 231.552L422.671 231.697C401.845 244.284 393.016 251.712 369.343 263.929C345.671 276.146 341.951 277.245 321.219 280.045C290.79 286.912 272.371 287.864 241.357 293.561C294.567 295.536 326.494 296.514 377.668 290.702C427.031 284.088 452.753 276.834 495.769 258.73C547.392 233.741 565.607 216.661 600.863 186.988C617.406 173.35 616.252 167.766 599.562 160.734C568.946 145.143 553.347 133.913 530.887 105.368C513.935 81.1132 501.946 68.0823 504.613 39.3447C503.901 25.8086 505.899 26.0063 512.417 35.9655L607.106 144.359C618.374 157.615 623.923 156.215 633.119 145.658C644.045 129.022 640.403 127.757 659.913 144.359C718.08 184.494 743.576 204.94 750.44 216.62C758.108 227.07 757.557 228.899 744.717 222.339C715.485 203.953 699.626 193.271 672.14 173.991C654.45 163.334 650.057 160.215 652.109 182.569C653.956 202.687 654.811 213.799 649.248 227.018C643.869 239.987 636.88 245.562 614.91 251.452C582.976 257.265 566.598 262.853 539.731 276.406C573.863 287.796 604.971 287.795 675.001 280.045C731.132 270.077 757.753 267.6 798.045 267.828L797.84 267.557C786.668 252.714 780.341 244.309 769.43 219.74C765.903 206.766 764.839 199.786 773.072 190.627C783.046 179.664 789.269 174.348 801.166 165.933C808.71 158.915 808.71 158.915 816.514 169.052L859.132 226.197C862.522 227.67 865.791 228.826 868.982 229.668L821.457 165.933C810.011 151.637 810.271 151.637 798.045 161.514C785.93 170.358 779.888 176.279 769.43 187.248C761.127 197.21 759.747 204.451 764.487 221.039C768.097 232.628 772.38 240.946 786.859 261.329C745.164 263.292 720.067 266.677 673.7 274.846C618.675 281.772 591.249 282.895 554.819 274.846C578.802 264.546 592.461 261.054 616.991 256.651C640.167 249.982 648.282 243.835 654.45 228.578C658.615 218.702 659.431 208.713 658.092 182.569C656.531 169.832 656.531 169.572 668.498 177.89L742.116 226.758C762.406 238.195 765.639 228.578 755.122 213.501C744.322 198.018 715.781 177.56 666.726 142.399L663.295 139.94C640.143 123.564 644.132 120.964 628.736 142.064C623.112 149.772 619.428 150.998 611.268 141.759C573.482 100.722 552.707 76.8491 516.319 32.8463C505.156 19.6034 501.227 20.4263 499.15 39.3447C499.823 66.369 504.072 81.5486 526.725 108.747C550.469 138.378 566.577 149.3 596.961 165.413C609.072 169.255 610.562 172.748 596.961 183.089C561.554 215.714 538.882 231.239 493.167 254.051C451.079 271.463 425.969 278.549 377.668 284.983C340.967 290.433 322.665 291.577 295.986 288.623L322.779 284.983C346.086 282.487 356.026 278.342 371.685 269.127L426.053 236.116C440.487 227.097 446.61 224.973 453.627 227.018C475.822 230.533 483.892 219.876 492.127 183.089C499.392 145.721 498.412 98.6942 496.029 11.5306C496.029 -1.72517 485.103 -4.58439 477.819 8.41133C447.719 55.4895 432.11 82.3861 409.404 132.401C405.256 139.52 401.755 140.154 394.316 137.86Z" fill="#F8FAFE"/>
<path d="M326.354 195.905C325.255 197.188 324.105 198.498 322.896 199.854L326.366 203.928C327.607 202.618 328.786 201.338 329.908 200.078L326.354 195.905Z" fill="#F8FAFE"/>
<path d="M816.514 241.574C858.827 241.574 870.165 252.012 900.537 271.987L873.035 235.104C870.087 234.609 867.137 233.884 864.156 232.933L877.385 250.672C855.284 238.348 845.649 236.376 816.514 236.376C800.126 236.376 797.659 234.626 798.565 221.039C798.718 213.754 799.011 208.592 800.126 196.346C800.135 191.057 802.104 192.758 805.849 196.346C829.759 215.187 847.452 227.605 864.156 232.933L859.132 226.197C845.337 220.204 829.528 208.961 808.71 192.187C800.126 184.648 798.045 182.829 795.963 192.187C794.168 203.49 793.75 209.416 793.362 219.74C795.428 239.867 797.238 240.014 816.096 241.54L816.514 241.574Z" fill="#F8FAFE"/>
<path d="M944.76 237.675C932.452 220.263 923.325 217.55 902.618 226.758C891.019 231.676 880.504 232.712 868.982 229.668L873.035 235.104C883.36 236.839 893.663 235.758 905.22 231.697C922.38 222.665 929.905 225.796 941.118 240.015C954.055 259.101 959.871 269.424 968.172 287.323C971.75 292.167 979.822 299.464 983 300.58C973.45 280.412 959.726 261.449 944.76 237.675Z" fill="#F8FAFE"/>
<path d="M868.982 229.668C865.791 228.826 862.522 227.67 859.132 226.197L864.156 232.933C867.137 233.884 870.087 234.609 873.035 235.104L868.982 229.668Z" fill="#F8FAFE"/>
<path d="M144.848 234.815C172.523 203.747 188.456 205.01 217.425 231.956C217.455 231.983 217.486 232.01 217.516 232.037M144.848 234.815L133.285 247.482M144.848 234.815C139.609 239.578 136.28 243.703 133.285 247.482M123.256 258.469C77.0058 297.425 58.628 296.08 14 297.46C61.5136 306.634 86.2128 298.984 126.898 262.629C134.207 256.452 139.13 250.242 147.969 238.975C171.954 211.133 186.008 210.954 211.962 233.256C212.793 233.999 213.59 234.711 214.354 235.398M123.256 258.469C127.42 254.962 130.172 251.409 133.285 247.482M123.256 258.469L133.285 247.482M362.84 247.552C363.85 247.973 364.364 248.404 365.441 248.592C366.342 248.749 367.275 249.352 367.783 248.592C368.121 248.085 367.842 247.119 367.783 246.513C367.635 245.011 367.196 244.723 366.482 243.393C365.761 242.052 364.141 240.274 364.141 240.274L329.908 200.078M362.84 247.552C360.783 246.697 357.637 245.213 357.637 245.213M362.84 247.552L357.637 245.213M357.637 245.213C343.937 240.921 335.936 240.707 321.219 243.393C284.53 254.879 260.197 265.46 211.962 289.662C241.813 255.629 252.896 240.444 254.364 236.375C266.898 221.261 274.995 216.717 291.043 214.541C304.721 211.872 311.766 208.917 322.779 199.984M322.779 199.984C322.818 199.941 322.857 199.897 322.896 199.854M322.779 199.984L322.896 199.854M628.957 141.759C628.883 141.862 628.81 141.964 628.736 142.064M628.736 142.064C623.112 149.772 619.428 150.998 611.268 141.759C573.482 100.722 552.707 76.8491 516.319 32.8463C505.156 19.6034 501.227 20.4263 499.15 39.3447C499.823 66.369 504.072 81.5486 526.725 108.747C550.469 138.378 566.577 149.3 596.961 165.413C609.072 169.255 610.562 172.748 596.961 183.089C561.554 215.714 538.882 231.239 493.167 254.051C451.079 271.463 425.969 278.549 377.668 284.983C340.967 290.433 322.665 291.577 295.985 288.623L322.779 284.983C346.086 282.487 356.026 278.342 371.685 269.127L426.053 236.116C440.487 227.097 446.61 224.973 453.627 227.018C475.822 230.533 483.892 219.876 492.127 183.089C499.392 145.721 498.412 98.6942 496.029 11.5306C496.029 -1.72517 485.103 -4.58439 477.819 8.41133C447.719 55.4895 432.11 82.3861 409.404 132.401C405.256 139.52 401.755 140.154 394.316 137.86C371.94 125.73 361.9 128.829 349.313 155.275C341.68 175.512 335.951 184.7 326.354 195.905M628.736 142.064C644.132 120.964 640.143 123.564 663.295 139.94M663.295 139.94L666.726 142.399M663.295 139.94C664.45 140.767 665.593 141.587 666.726 142.399M816.514 241.574C858.827 241.574 870.165 252.012 900.537 271.987L873.035 235.104M816.514 241.574L816.096 241.54M816.514 241.574C816.374 241.563 816.235 241.552 816.096 241.54M798.045 267.828C757.753 267.6 731.132 270.077 675.001 280.045C604.971 287.795 573.863 287.796 539.731 276.406C566.598 262.853 582.976 257.265 614.91 251.452C636.88 245.562 643.869 239.987 649.248 227.018C654.811 213.799 653.957 202.687 652.109 182.569C650.057 160.215 654.45 163.334 672.14 173.991C699.626 193.271 715.485 203.953 744.717 222.339C757.557 228.899 758.108 227.07 750.44 216.621C743.576 204.94 718.08 184.494 659.913 144.358C640.403 127.757 644.045 129.022 633.119 145.658C623.923 156.215 618.374 157.615 607.106 144.358L512.417 35.9655C505.899 26.0063 503.901 25.8086 504.613 39.3447C501.946 68.0823 513.935 81.1132 530.887 105.368C553.347 133.913 568.946 145.143 599.562 160.734C616.252 167.766 617.406 173.35 600.863 186.988C565.607 216.661 547.392 233.741 495.769 258.73C452.753 276.834 427.031 284.088 377.668 290.702C326.494 296.514 294.567 295.536 241.357 293.561C272.371 287.864 290.79 286.912 321.219 280.045C341.951 277.245 345.671 276.146 369.343 263.929C393.016 251.712 401.845 244.284 422.671 231.697M798.045 267.828L797.84 267.557M798.045 267.828C797.976 267.737 797.908 267.647 797.84 267.557M422.671 231.697L422.939 231.552M422.671 231.697C422.761 231.648 422.85 231.6 422.939 231.552M214.354 235.398C215.403 234.342 216.448 233.227 217.516 232.037M214.354 235.398C209.415 240.367 204.399 244.03 196.614 248.072L136.523 281.344C175.882 278.731 196.926 276.81 217.425 265.748C235.206 257.387 237.154 250.55 220.934 235.169M214.354 235.398C215.588 236.507 216.733 237.547 217.785 238.526M217.516 232.037C219.216 230.143 220.972 228.058 222.888 225.718L271.533 173.991C289.23 153.818 292.091 154.748 307.692 173.991L326.354 195.905M217.516 232.037C218.734 233.119 219.873 234.162 220.934 235.169M220.934 235.169C219.842 236.363 218.796 237.48 217.785 238.526M220.934 235.169C222.742 233.192 224.677 231.004 226.79 228.578L274.915 177.11C291.043 161.774 288.962 157.875 303.529 177.11L322.896 199.854M217.785 238.526C229.523 249.45 229.723 252.868 214.043 262.629C193.206 270.875 181.4 273.064 160.195 274.066C169.611 267.199 180.223 261.58 199.476 251.452C206.153 249.085 211.231 245.306 217.785 238.526ZM322.896 199.854C324.105 198.498 325.255 197.188 326.354 195.905M322.896 199.854L326.366 203.928M326.354 195.905L329.908 200.078M329.908 200.078C328.786 201.338 327.607 202.618 326.366 203.928M329.908 200.078C341.884 186.632 347.477 175.508 355.296 155.275C365.02 133.912 374.109 133.216 394.316 144.358C405.695 145.991 409.403 143.263 414.086 135.781C435.231 88.9878 448.272 62.3707 481.981 11.5306C488.057 2.47639 489.011 5.55234 490.566 11.5306C494.349 92.6224 493.227 129.468 486.664 183.089C483.976 195.798 480.901 206.261 475.351 214.021C470.734 222.139 465.223 225.248 456.488 222.079C446.466 218.888 437.961 223.466 422.939 231.552M326.366 203.928L353.995 236.375C358.345 240.515 356.234 240.533 349.313 238.975C341.393 236.933 335.888 236.5 321.219 238.975C289.876 246.447 270.169 255.178 234.074 272.767C244.78 258.955 251.088 250.959 258.006 240.274C267.716 227.138 274.699 222.091 291.043 218.96C308.026 216.672 315.188 212.755 326.161 204.144C326.229 204.072 326.298 204 326.366 203.928ZM797.84 267.557C786.668 252.714 780.341 244.309 769.43 219.74C765.903 206.766 764.839 199.786 773.072 190.627C783.046 179.664 789.269 174.348 801.166 165.933C808.71 158.915 808.71 158.915 816.514 169.052L859.132 226.197M859.132 226.197C862.522 227.67 865.791 228.826 868.982 229.668M859.132 226.197C845.337 220.204 829.528 208.961 808.71 192.187C800.126 184.648 798.045 182.829 795.963 192.187C794.168 203.49 793.75 209.416 793.362 219.74C795.428 239.867 797.238 240.014 816.096 241.54M859.132 226.197L864.156 232.933M868.982 229.668L821.457 165.933C810.011 151.637 810.271 151.637 798.045 161.514C785.93 170.358 779.888 176.279 769.43 187.248C761.127 197.21 759.747 204.451 764.487 221.039C768.097 232.628 772.38 240.946 786.859 261.329C745.164 263.292 720.067 266.677 673.7 274.846C618.675 281.772 591.249 282.895 554.819 274.846C578.802 264.546 592.461 261.054 616.991 256.651C640.167 249.982 648.282 243.835 654.45 228.578C658.615 218.702 659.431 208.713 658.092 182.569C656.532 169.832 656.532 169.572 668.498 177.89L742.116 226.758C762.406 238.195 765.639 228.578 755.122 213.501C744.322 198.018 715.781 177.56 666.726 142.399M868.982 229.668C880.504 232.712 891.019 231.676 902.618 226.758C923.325 217.55 932.452 220.263 944.76 237.675C959.726 261.449 973.45 280.412 983 300.58C979.822 299.464 971.75 292.167 968.172 287.323C959.871 269.424 954.055 259.101 941.118 240.015C929.905 225.796 922.38 222.665 905.22 231.697C893.663 235.758 883.36 236.839 873.035 235.104M868.982 229.668L873.035 235.104M873.035 235.104C870.087 234.609 867.137 233.884 864.156 232.933M864.156 232.933L877.385 250.672C855.284 238.348 845.649 236.376 816.514 236.376C800.126 236.376 797.659 234.626 798.565 221.039C798.718 213.754 799.011 208.592 800.126 196.346C800.135 191.057 802.104 192.758 805.849 196.346C829.759 215.187 847.452 227.605 864.156 232.933Z" stroke="#2C51AE"/>
</g>
<defs>
<clipPath id="clip0_121_4868">
<rect width="991" height="486" fill="white"/>
</clipPath>
</defs>
</svg>
