<svg width="2494" height="836" viewBox="0 0 2494 836" fill="none" xmlns="http://www.w3.org/2000/svg">
<path d="M982.556 308.24H1087.84C1104.05 308.24 1117.06 313.04 1126.88 322.64C1136.9 332.24 1141.92 344.933 1141.92 360.72C1141.92 377.147 1136.58 390.16 1125.92 399.76C1115.25 409.36 1100.64 414.16 1082.08 414.16H1067.36C1052.64 414.16 1042.08 414.8 1035.68 416.08C1029.49 417.147 1022.66 419.707 1015.2 423.76V474H982.556V308.24ZM1015.2 390.8C1021.81 386.96 1029.28 384.4 1037.6 383.12C1046.13 381.84 1056.05 381.2 1067.36 381.2H1082.08C1090.82 381.2 1097.33 379.813 1101.6 377.04C1106.08 374.053 1108.32 368.507 1108.32 360.4C1108.32 353.147 1105.86 348.133 1100.96 345.36C1096.26 342.587 1089.97 341.2 1082.08 341.2H1015.2V390.8ZM1201.52 429.84C1214.11 439.653 1224.24 444.56 1231.92 444.56C1237.68 444.56 1242.37 443.28 1246 440.72C1249.84 438.16 1253.57 434.427 1257.2 429.52C1246.96 424.4 1236.51 415.653 1225.84 403.28C1215.17 390.693 1205.47 376.08 1196.72 359.44C1188.19 342.8 1181.57 325.733 1176.88 308.24H1213.68C1218.8 328.72 1226.69 347.28 1237.36 363.92C1248.24 380.56 1261.36 393.787 1276.72 403.6C1283.76 391.653 1291.23 377.147 1299.12 360.08C1307.23 343.013 1314.05 325.733 1319.6 308.24H1355.12C1345.95 335.333 1334.85 362.107 1321.84 388.56C1309.04 414.8 1295.71 436.24 1281.84 452.88C1273.73 462.48 1266.16 468.773 1259.12 471.76C1252.29 474.747 1243.01 476.24 1231.28 476.24C1224.45 476.24 1216.45 474.533 1207.28 471.12C1198.32 467.707 1190.32 463.44 1183.28 458.32L1201.52 429.84ZM1538.45 474H1401.49V510.8H1368.21V440.72H1400.21C1408.95 430.053 1415.89 419.6 1421.01 409.36C1426.13 398.907 1429.86 389.52 1432.21 381.2C1434.55 372.88 1436.9 362.853 1439.25 351.12L1441.17 341.2H1414.93L1400.21 308.24H1550.93V440.72H1571.73V510.8H1538.45V474ZM1518.29 341.2H1475.73C1471.03 362.96 1465.81 382.267 1460.05 399.12C1454.29 415.973 1447.35 429.84 1439.25 440.72H1518.29V341.2ZM1630.56 319.44C1640.59 313.467 1651.15 309.2 1662.24 306.64C1673.55 304.08 1683.89 302.8 1693.28 302.8C1715.68 302.8 1732.85 307.173 1744.8 315.92C1756.96 324.453 1763.04 337.04 1763.04 353.68C1763.04 359.013 1762.08 364.453 1760.16 370C1758.24 375.547 1755.47 380.027 1751.84 383.44C1758.03 386.853 1762.83 392.187 1766.24 399.44C1769.65 406.693 1771.36 414.267 1771.36 422.16C1771.36 442 1763.79 456.507 1748.64 465.68C1733.49 474.853 1715.04 479.44 1693.28 479.44C1678.77 479.44 1664.05 476.773 1649.12 471.44C1634.19 465.893 1622.24 458.64 1613.28 449.68L1632.16 421.2C1648.8 437.627 1669.17 445.84 1693.28 445.84C1707.36 445.84 1718.35 444.027 1726.24 440.4C1734.35 436.773 1738.4 430.48 1738.4 421.52C1738.4 408.72 1729.76 402.32 1712.48 402.32H1677.6V369.36H1712.48C1717.81 369.36 1721.87 367.867 1724.64 364.88C1727.63 361.68 1729.12 357.947 1729.12 353.68C1729.12 341.947 1717.17 336.08 1693.28 336.08C1687.95 336.08 1680.91 337.147 1672.16 339.28C1663.63 341.2 1655.95 344.08 1649.12 347.92L1630.56 319.44ZM1865.2 360.4C1872.67 364.453 1879.5 367.12 1885.68 368.4C1891.87 369.467 1902.32 370 1917.04 370H1924.4C1941.68 370 1955.76 374.587 1966.64 383.76C1977.74 392.72 1983.28 405.52 1983.28 422.16C1983.28 439.013 1977.74 451.92 1966.64 460.88C1955.76 469.627 1941.68 474 1924.4 474H1832.24V308.24H1865.2V360.4ZM2010.16 308.24H2042.8V474H2010.16V308.24ZM1924.4 440.72C1932.3 440.72 1938.59 439.333 1943.28 436.56C1947.98 433.787 1950.32 428.773 1950.32 421.52C1950.32 414.48 1947.98 409.68 1943.28 407.12C1938.59 404.347 1932.3 402.96 1924.4 402.96H1917.04C1905.74 402.96 1895.92 402.32 1887.6 401.04C1879.28 399.76 1871.82 397.2 1865.2 393.36V440.72H1924.4ZM2119.74 474V308.24H2152.38V374.48C2158.14 371.707 2164.65 370.32 2171.9 370.32C2177.24 370.32 2184.81 371.067 2194.62 372.56C2206.57 374.267 2215.64 375.12 2221.82 375.12C2229.93 375.12 2236.86 373.733 2242.62 370.96V308.24H2275.26V474H2242.62V404.56C2237.08 407.333 2230.57 408.72 2223.1 408.72C2218.41 408.72 2213.29 408.4 2207.74 407.76C2202.41 407.12 2199 406.693 2197.5 406.48C2187.9 404.987 2179.8 404.24 2173.18 404.24C2165.29 404.24 2158.36 405.52 2152.38 408.08V474H2119.74ZM2384.57 474H2351.93V308.24H2472.89V341.2H2384.57V474Z" fill="#141C30"/>
<path d="M1000.11 611.91C994.369 611.91 989.632 610.02 985.899 606.24C982.212 602.413 980.369 597.723 980.369 592.17C980.369 586.617 982.212 581.973 985.899 578.24C989.586 574.413 994.322 572.5 1000.11 572.5C1005.8 572.5 1010.49 574.413 1014.18 578.24C1017.91 582.113 1019.78 586.757 1019.78 592.17C1019.78 597.677 1017.91 602.367 1014.18 606.24C1010.45 610.02 1005.76 611.91 1000.11 611.91ZM1013.06 592.17C1013.06 588.483 1011.8 585.333 1009.28 582.72C1006.76 580.06 1003.7 578.73 1000.11 578.73C996.516 578.73 993.459 580.06 990.939 582.72C988.419 585.333 987.159 588.483 987.159 592.17C987.159 595.903 988.419 599.1 990.939 601.76C993.459 604.42 996.516 605.75 1000.11 605.75C1003.7 605.75 1006.76 604.42 1009.28 601.76C1011.8 599.1 1013.06 595.903 1013.06 592.17ZM1078.83 572.5C1083.35 572.5 1086.99 573.97 1089.75 576.91C1092.45 579.757 1093.81 583.677 1093.81 588.67V611H1087.09V589.72C1087.09 586.22 1086.27 583.513 1084.64 581.6C1083.05 579.687 1080.86 578.73 1078.06 578.73C1075.12 578.73 1072.71 579.757 1070.85 581.81C1068.98 583.863 1068.05 586.547 1068.05 589.86V611H1061.4V589.86C1061.4 586.36 1060.58 583.63 1058.95 581.67C1057.31 579.71 1055.1 578.73 1052.3 578.73C1049.36 578.73 1046.93 579.78 1045.02 581.88C1043.15 583.933 1042.22 586.64 1042.22 590V611H1035.5V573.48H1042.08V579.01C1043.2 576.91 1044.74 575.3 1046.7 574.18C1048.7 573.013 1050.94 572.453 1053.42 572.5C1055.98 572.5 1058.34 573.13 1060.49 574.39C1062.63 575.603 1064.2 577.307 1065.18 579.5C1066.44 577.353 1068.28 575.65 1070.71 574.39C1073.18 573.13 1075.89 572.5 1078.83 572.5ZM1144.6 611H1135.78L1121.64 593.5L1118.07 596.72V611H1111.35V558.01H1118.07V588.67L1134.87 573.48H1143.97L1126.4 589.23L1144.6 611ZM1177.29 572.57C1182.65 572.57 1187.11 574.483 1190.66 578.31C1194.25 582.183 1196.05 586.827 1196.05 592.24C1196.05 597.7 1194.25 602.367 1190.66 606.24C1187.11 610.02 1182.63 611.91 1177.22 611.91C1171.76 611.91 1167.32 609.787 1163.92 605.54V626.47H1157.2V573.48H1163.92V579.15C1167.42 574.763 1171.87 572.57 1177.29 572.57ZM1189.33 592.17C1189.33 588.39 1188.14 585.217 1185.76 582.65C1183.38 580.037 1180.27 578.73 1176.45 578.73C1172.62 578.73 1169.52 580.037 1167.14 582.65C1164.8 585.263 1163.64 588.437 1163.64 592.17C1163.64 595.997 1164.8 599.217 1167.14 601.83C1169.52 604.443 1172.62 605.75 1176.45 605.75C1180.27 605.75 1183.38 604.443 1185.76 601.83C1188.14 599.263 1189.33 596.043 1189.33 592.17ZM1229.22 611.91C1223.48 611.91 1218.74 610.02 1215.01 606.24C1211.32 602.413 1209.48 597.723 1209.48 592.17C1209.48 586.617 1211.32 581.973 1215.01 578.24C1218.7 574.413 1223.43 572.5 1229.22 572.5C1234.91 572.5 1239.6 574.413 1243.29 578.24C1247.02 582.113 1248.89 586.757 1248.89 592.17C1248.89 597.677 1247.02 602.367 1243.29 606.24C1239.56 610.02 1234.87 611.91 1229.22 611.91ZM1242.17 592.17C1242.17 588.483 1240.91 585.333 1238.39 582.72C1235.87 580.06 1232.81 578.73 1229.22 578.73C1225.63 578.73 1222.57 580.06 1220.05 582.72C1217.53 585.333 1216.27 588.483 1216.27 592.17C1216.27 595.903 1217.53 599.1 1220.05 601.76C1222.57 604.42 1225.63 605.75 1229.22 605.75C1232.81 605.75 1235.87 604.42 1238.39 601.76C1240.91 599.1 1242.17 595.903 1242.17 592.17ZM1281.62 570.82C1276.72 570.82 1272.56 568.65 1269.16 564.31L1272.52 560.67C1275.36 564.077 1278.4 565.78 1281.62 565.78C1285.02 565.78 1288.08 564.077 1290.79 560.67L1294.22 564.31C1290.62 568.65 1286.42 570.82 1281.62 570.82ZM1291.84 573.48H1298.49V611H1292.12V605.61C1291 607.477 1289.22 608.993 1286.8 610.16C1284.37 611.327 1281.69 611.91 1278.75 611.91C1274.55 611.91 1271.07 610.673 1268.32 608.2C1265.56 605.68 1264.19 601.62 1264.19 596.02V573.48H1270.91V595.74C1270.91 602.367 1273.89 605.68 1279.87 605.68C1283.55 605.68 1286.47 604.583 1288.62 602.39C1290.76 600.15 1291.84 597.07 1291.84 593.15V573.48ZM1359.03 611.91C1353.29 611.91 1348.55 610.02 1344.82 606.24C1341.13 602.413 1339.29 597.723 1339.29 592.17C1339.29 586.617 1341.13 581.973 1344.82 578.24C1348.51 574.413 1353.24 572.5 1359.03 572.5C1364.72 572.5 1369.41 574.413 1373.1 578.24C1376.83 582.113 1378.7 586.757 1378.7 592.17C1378.7 597.677 1376.83 602.367 1373.1 606.24C1369.37 610.02 1364.68 611.91 1359.03 611.91ZM1371.98 592.17C1371.98 588.483 1370.72 585.333 1368.2 582.72C1365.68 580.06 1362.62 578.73 1359.03 578.73C1355.44 578.73 1352.38 580.06 1349.86 582.72C1347.34 585.333 1346.08 588.483 1346.08 592.17C1346.08 595.903 1347.34 599.1 1349.86 601.76C1352.38 604.42 1355.44 605.75 1359.03 605.75C1362.62 605.75 1365.68 604.42 1368.2 601.76C1370.72 599.1 1371.98 595.903 1371.98 592.17ZM1427.67 611H1418.85L1404.71 593.5L1401.14 596.72V611H1394.42V558.01H1401.14V588.67L1417.94 573.48H1427.04L1409.47 589.23L1427.67 611ZM1465.95 589.09V573.48H1472.6V611H1465.95V594.9H1446.98V611H1440.26V573.48H1446.98V589.09H1465.95ZM1508.18 611.91C1502.44 611.91 1497.71 610.02 1493.97 606.24C1490.29 602.413 1488.44 597.723 1488.44 592.17C1488.44 586.617 1490.29 581.973 1493.97 578.24C1497.66 574.413 1502.4 572.5 1508.18 572.5C1513.88 572.5 1518.57 574.413 1522.25 578.24C1525.99 582.113 1527.85 586.757 1527.85 592.17C1527.85 597.677 1525.99 602.367 1522.25 606.24C1518.52 610.02 1513.83 611.91 1508.18 611.91ZM1521.13 592.17C1521.13 588.483 1519.87 585.333 1517.35 582.72C1514.83 580.06 1511.78 578.73 1508.18 578.73C1504.59 578.73 1501.53 580.06 1499.01 582.72C1496.49 585.333 1495.23 588.483 1495.23 592.17C1495.23 595.903 1496.49 599.1 1499.01 601.76C1501.53 604.42 1504.59 605.75 1508.18 605.75C1511.78 605.75 1514.83 604.42 1517.35 601.76C1519.87 599.1 1521.13 595.903 1521.13 592.17ZM1594.61 582.09C1597.45 582.837 1599.72 584.447 1601.4 586.92C1603.12 589.347 1603.99 592.287 1603.99 595.74C1603.99 600.453 1602.38 604.327 1599.16 607.36C1595.98 610.393 1591.67 611.91 1586.21 611.91C1580.19 611.91 1575.61 610.043 1572.49 606.31C1569.36 602.577 1567.8 597.14 1567.8 590V577.61C1567.8 571.403 1569.41 566.41 1572.63 562.63C1575.85 558.803 1580.3 556.89 1586 556.89C1590.85 556.89 1594.68 558.197 1597.48 560.81C1600.28 563.423 1601.68 566.993 1601.68 571.52C1601.68 573.713 1601.02 575.837 1599.72 577.89C1598.36 579.943 1596.66 581.343 1594.61 582.09ZM1586 563.05C1582.73 563.05 1579.98 564.333 1577.74 566.9C1575.54 569.513 1574.45 573.667 1574.45 579.36V579.99H1586.14C1589.03 579.99 1591.22 579.197 1592.72 577.61C1594.21 575.977 1594.96 573.947 1594.96 571.52C1594.96 568.86 1594.19 566.783 1592.65 565.29C1591.11 563.797 1588.89 563.05 1586 563.05ZM1586.35 605.75C1589.61 605.75 1592.23 604.793 1594.19 602.88C1596.19 600.967 1597.2 598.493 1597.2 595.46C1597.2 592.66 1596.33 590.397 1594.61 588.67C1592.88 586.897 1590.38 586.01 1587.12 586.01H1574.45V589.93C1574.45 596.463 1575.87 600.85 1578.72 603.09C1581.1 604.863 1583.64 605.75 1586.35 605.75ZM1651.46 611H1644.81V573.48H1648.8L1666.65 596.86L1684.29 573.48H1688.28V611H1681.7V586.78L1667.56 605.4H1665.6L1651.46 586.78V611ZM1733.6 573.48H1740.25V611H1733.88V605.61C1732.76 607.477 1730.99 608.993 1728.56 610.16C1726.14 611.327 1723.45 611.91 1720.51 611.91C1716.31 611.91 1712.84 610.673 1710.08 608.2C1707.33 605.68 1705.95 601.62 1705.95 596.02V573.48H1712.67V595.74C1712.67 602.367 1715.66 605.68 1721.63 605.68C1725.32 605.68 1728.24 604.583 1730.38 602.39C1732.53 600.15 1733.6 597.07 1733.6 593.15V573.48ZM1778.46 572.57C1783.83 572.57 1788.28 574.483 1791.83 578.31C1795.42 582.183 1797.22 586.827 1797.22 592.24C1797.22 597.7 1795.42 602.367 1791.83 606.24C1788.28 610.02 1783.8 611.91 1778.39 611.91C1772.93 611.91 1768.5 609.787 1765.09 605.54V626.47H1758.37V573.48H1765.09V579.15C1768.59 574.763 1773.05 572.57 1778.46 572.57ZM1790.5 592.17C1790.5 588.39 1789.31 585.217 1786.93 582.65C1784.55 580.037 1781.45 578.73 1777.62 578.73C1773.79 578.73 1770.69 580.037 1768.31 582.65C1765.98 585.263 1764.81 588.437 1764.81 592.17C1764.81 595.997 1765.98 599.217 1768.31 601.83C1770.69 604.443 1773.79 605.75 1777.62 605.75C1781.45 605.75 1784.55 604.443 1786.93 601.83C1789.31 599.263 1790.5 596.043 1790.5 592.17ZM1858.05 572.57C1863.42 572.57 1867.87 574.483 1871.42 578.31C1875.01 582.183 1876.81 586.827 1876.81 592.24C1876.81 597.7 1875.01 602.367 1871.42 606.24C1867.87 610.02 1863.39 611.91 1857.98 611.91C1852.52 611.91 1848.09 609.787 1844.68 605.54V626.47H1837.96V573.48H1844.68V579.15C1848.18 574.763 1852.64 572.57 1858.05 572.57ZM1870.09 592.17C1870.09 588.39 1868.9 585.217 1866.52 582.65C1864.14 580.037 1861.04 578.73 1857.21 578.73C1853.38 578.73 1850.28 580.037 1847.9 582.65C1845.57 585.263 1844.4 588.437 1844.4 592.17C1844.4 595.997 1845.57 599.217 1847.9 601.83C1850.28 604.443 1853.38 605.75 1857.21 605.75C1861.04 605.75 1864.14 604.443 1866.52 601.83C1868.9 599.263 1870.09 596.043 1870.09 592.17ZM1909.98 611.91C1904.24 611.91 1899.51 610.02 1895.77 606.24C1892.09 602.413 1890.24 597.723 1890.24 592.17C1890.24 586.617 1892.09 581.973 1895.77 578.24C1899.46 574.413 1904.2 572.5 1909.98 572.5C1915.68 572.5 1920.37 574.413 1924.05 578.24C1927.79 582.113 1929.65 586.757 1929.65 592.17C1929.65 597.677 1927.79 602.367 1924.05 606.24C1920.32 610.02 1915.63 611.91 1909.98 611.91ZM1922.93 592.17C1922.93 588.483 1921.67 585.333 1919.15 582.72C1916.63 580.06 1913.58 578.73 1909.98 578.73C1906.39 578.73 1903.33 580.06 1900.81 582.72C1898.29 585.333 1897.03 588.483 1897.03 592.17C1897.03 595.903 1898.29 599.1 1900.81 601.76C1903.33 604.42 1906.39 605.75 1909.98 605.75C1913.58 605.75 1916.63 604.42 1919.15 601.76C1921.67 599.1 1922.93 595.903 1922.93 592.17ZM1975.05 578.38V573.48H1981.7V607.01C1981.7 613.543 1979.93 618.513 1976.38 621.92C1972.83 625.327 1967.72 627.03 1961.05 627.03C1956.38 627.03 1951.48 626.12 1946.35 624.3L1947.82 618.56C1952.44 620.1 1956.78 620.87 1960.84 620.87C1970.31 620.87 1975.05 616.67 1975.05 608.27V605.19C1971.69 609.11 1967.3 611.07 1961.89 611.07C1956.48 611.07 1952 609.227 1948.45 605.54C1944.86 601.807 1943.06 597.21 1943.06 591.75C1943.06 586.29 1944.9 581.74 1948.59 578.1C1952.28 574.413 1956.83 572.57 1962.24 572.57C1967.42 572.57 1971.69 574.507 1975.05 578.38ZM1953.49 601.27C1955.96 603.79 1959.02 605.05 1962.66 605.05C1966.35 605.05 1969.4 603.79 1971.83 601.27C1974.26 598.797 1975.47 595.647 1975.47 591.82C1975.47 587.993 1974.26 584.867 1971.83 582.44C1969.36 579.92 1966.3 578.66 1962.66 578.66C1958.97 578.66 1955.92 579.92 1953.49 582.44C1951.06 584.867 1949.85 587.993 1949.85 591.82C1949.85 595.647 1951.06 598.797 1953.49 601.27ZM2025.38 589.09V573.48H2032.03V611H2025.38V594.9H2006.41V611H1999.69V573.48H2006.41V589.09H2025.38ZM2067.61 611.91C2061.87 611.91 2057.14 610.02 2053.4 606.24C2049.72 602.413 2047.87 597.723 2047.87 592.17C2047.87 586.617 2049.72 581.973 2053.4 578.24C2057.09 574.413 2061.83 572.5 2067.61 572.5C2073.31 572.5 2078 574.413 2081.68 578.24C2085.42 582.113 2087.28 586.757 2087.28 592.17C2087.28 597.677 2085.42 602.367 2081.68 606.24C2077.95 610.02 2073.26 611.91 2067.61 611.91ZM2080.56 592.17C2080.56 588.483 2079.3 585.333 2076.78 582.72C2074.26 580.06 2071.21 578.73 2067.61 578.73C2064.02 578.73 2060.96 580.06 2058.44 582.72C2055.92 585.333 2054.66 588.483 2054.66 592.17C2054.66 595.903 2055.92 599.1 2058.44 601.76C2060.96 604.42 2064.02 605.75 2067.61 605.75C2071.21 605.75 2074.26 604.42 2076.78 601.76C2079.3 599.1 2080.56 595.903 2080.56 592.17ZM2114.48 611.91C2110.14 611.91 2106.66 611.023 2104.05 609.25C2101.48 607.477 2100.2 604.957 2100.2 601.69C2100.2 599.403 2100.9 597.397 2102.3 595.67C2103.7 593.943 2105.5 592.613 2107.69 591.68C2108.58 591.307 2109.81 590.817 2111.4 590.21C2112.99 589.557 2114.27 589.02 2115.25 588.6C2116.23 588.18 2117.26 587.667 2118.33 587.06C2119.4 586.453 2120.2 585.8 2120.71 585.1C2121.22 584.4 2121.48 583.653 2121.48 582.86C2121.48 581.553 2120.9 580.503 2119.73 579.71C2118.61 578.917 2116.98 578.52 2114.83 578.52C2111.56 578.52 2107.78 579.243 2103.49 580.69L2101.95 575.09C2106.2 573.41 2110.63 572.57 2115.25 572.57C2119.22 572.57 2122.51 573.387 2125.12 575.02C2127.78 576.607 2129.11 579.01 2129.11 582.23C2129.11 586.43 2126.59 589.58 2121.55 591.68C2120.85 591.96 2119.82 592.357 2118.47 592.87C2117.12 593.383 2116.04 593.803 2115.25 594.13C2114.46 594.41 2113.52 594.83 2112.45 595.39C2111.38 595.903 2110.54 596.417 2109.93 596.93C2109.37 597.397 2108.86 598.003 2108.39 598.75C2107.97 599.45 2107.76 600.22 2107.76 601.06C2107.76 604.28 2110.21 605.89 2115.11 605.89C2119.59 605.89 2123.98 604.793 2128.27 602.6L2130.16 608.13C2125.03 610.65 2119.8 611.91 2114.48 611.91ZM2162.52 611.91C2156.78 611.91 2152.04 610.02 2148.31 606.24C2144.62 602.413 2142.78 597.723 2142.78 592.17C2142.78 586.617 2144.62 581.973 2148.31 578.24C2151.99 574.413 2156.73 572.5 2162.52 572.5C2168.21 572.5 2172.9 574.413 2176.59 578.24C2180.32 582.113 2182.19 586.757 2182.19 592.17C2182.19 597.677 2180.32 602.367 2176.59 606.24C2172.85 610.02 2168.16 611.91 2162.52 611.91ZM2175.47 592.17C2175.47 588.483 2174.21 585.333 2171.69 582.72C2169.17 580.06 2166.11 578.73 2162.52 578.73C2158.92 578.73 2155.87 580.06 2153.35 582.72C2150.83 585.333 2149.57 588.483 2149.57 592.17C2149.57 595.903 2150.83 599.1 2153.35 601.76C2155.87 604.42 2158.92 605.75 2162.52 605.75C2166.11 605.75 2169.17 604.42 2171.69 601.76C2174.21 599.1 2175.47 595.903 2175.47 592.17ZM2236.48 573.48H2251.25V611H2244.6V596.79C2242.78 597.117 2240.17 597.28 2236.76 597.28L2227.59 611H2219.89L2230.04 596.58C2227.29 595.74 2225.16 594.34 2223.67 592.38C2222.18 590.373 2221.43 588.063 2221.43 585.45C2221.43 581.95 2222.74 579.08 2225.35 576.84C2227.96 574.6 2231.67 573.48 2236.48 573.48ZM2236.97 591.68C2240.28 591.68 2242.83 591.517 2244.6 591.19V579.22H2236.55C2230.9 579.22 2228.08 581.273 2228.08 585.38C2228.08 589.58 2231.04 591.68 2236.97 591.68ZM2281.41 626.89C2275.48 626.89 2269.95 625.07 2264.82 621.43L2267.62 616.04C2272 619.213 2276.41 620.8 2280.85 620.8C2284.35 620.8 2287.17 619.89 2289.32 618.07C2291.46 616.297 2292.54 613.94 2292.54 611C2292.54 608.247 2291.56 606.077 2289.6 604.49C2287.68 602.903 2285.14 602.11 2281.97 602.11H2273.5V596.02H2279.24C2282.97 596.02 2285.91 595.18 2288.06 593.5C2290.2 591.773 2291.28 589.557 2291.28 586.85C2291.28 584.377 2290.34 582.393 2288.48 580.9C2286.66 579.407 2284.32 578.66 2281.48 578.66C2277.42 578.66 2273.31 580.317 2269.16 583.63L2265.59 578.94C2267.64 577.073 2270.14 575.557 2273.08 574.39C2276.06 573.177 2279.05 572.57 2282.04 572.57C2286.61 572.57 2290.41 573.9 2293.45 576.56C2296.48 579.173 2298 582.417 2298 586.29C2298 588.95 2297.23 591.353 2295.69 593.5C2294.15 595.6 2292 597.163 2289.25 598.19V598.47C2292.28 599.077 2294.73 600.617 2296.6 603.09C2298.46 605.517 2299.4 608.363 2299.4 611.63C2299.4 616.017 2297.74 619.657 2294.43 622.55C2291.11 625.443 2286.77 626.89 2281.41 626.89ZM2321.51 586.15H2330.68C2336.47 586.15 2340.48 587.573 2342.72 590.42C2344.73 592.753 2345.73 595.46 2345.73 598.54C2345.73 601.947 2344.49 604.887 2342.02 607.36C2339.59 609.787 2335.93 611 2331.03 611H2314.86V573.48H2321.51V586.15ZM2350.77 611V573.48H2357.42V611H2350.77ZM2321.51 605.26H2330.26C2336.14 605.26 2339.08 602.973 2339.08 598.4C2339.08 596.487 2338.38 594.923 2336.98 593.71C2335.58 592.497 2333.5 591.89 2330.75 591.89H2321.51V605.26ZM2408.79 611H2399.97L2385.83 593.5L2382.26 596.72V611H2375.54V558.01H2382.26V588.67L2399.06 573.48H2408.16L2390.59 589.23L2408.79 611ZM2448.81 578.94V573.48H2455.25V611H2448.81V605.68C2445.45 609.833 2441.04 611.91 2435.58 611.91C2430.16 611.91 2425.68 609.997 2422.14 606.17C2418.59 602.343 2416.82 597.607 2416.82 591.96C2416.82 586.313 2418.59 581.693 2422.14 578.1C2425.68 574.413 2430.16 572.57 2435.58 572.57C2440.9 572.57 2445.31 574.693 2448.81 578.94ZM2449.23 592.17C2449.23 588.39 2448.04 585.217 2445.66 582.65C2443.28 580.037 2440.17 578.73 2436.35 578.73C2432.52 578.73 2429.44 580.037 2427.11 582.65C2424.77 585.263 2423.61 588.46 2423.61 592.24C2423.61 596.02 2424.77 599.217 2427.11 601.83C2429.44 604.443 2432.52 605.75 2436.35 605.75C2440.17 605.75 2443.28 604.443 2445.66 601.83C2448.04 599.263 2449.23 596.043 2449.23 592.17Z" fill="#141C30"/>
<path d="M293.199 317.007C293.199 319.267 290.778 320.738 288.665 319.937C284.221 318.252 279.404 317.329 274.37 317.329C252.086 317.329 234.021 335.394 234.021 357.678C234.022 379.962 252.086 398.026 274.37 398.026C279.404 398.026 284.221 397.103 288.665 395.418C290.778 394.616 293.199 396.088 293.199 398.348V489.173C293.199 490.83 291.856 492.173 290.199 492.173H199.375C197.115 492.173 195.643 494.594 196.445 496.707C198.129 501.151 199.053 505.968 199.053 511.002C199.053 533.286 180.988 551.351 158.704 551.351C136.42 551.351 118.355 533.286 118.355 511.002C118.355 505.968 119.279 501.151 120.964 496.707C121.765 494.594 120.293 492.173 118.033 492.173H27.209C25.5521 492.173 24.209 490.83 24.209 489.173V226.183C24.209 224.526 25.5521 223.183 27.209 223.183H290.199C291.856 223.183 293.199 224.526 293.199 226.183V317.007Z" fill="#D54646"/>
<path d="M504.441 448.851C524.901 457.682 534.328 481.426 525.498 501.886C523.503 506.507 520.746 510.565 517.438 513.976C515.865 515.599 516.257 518.405 518.332 519.301L601.721 555.292C603.242 555.949 603.943 557.714 603.286 559.236L499.07 800.695C498.413 802.217 496.648 802.917 495.127 802.261L253.667 698.045C252.146 697.388 251.445 695.623 252.101 694.101L288.093 610.712C288.989 608.637 291.795 608.245 293.417 609.819C296.829 613.126 300.886 615.884 305.508 617.878C325.967 626.709 349.712 617.282 358.542 596.822C367.373 576.363 357.946 552.618 337.486 543.788C332.865 541.793 328.075 540.731 323.328 540.518C321.071 540.416 319.431 538.105 320.326 536.03L356.318 452.642C356.974 451.12 358.74 450.419 360.261 451.076L443.65 487.067C445.724 487.963 448.035 486.323 448.137 484.065C448.351 479.318 449.412 474.529 451.407 469.907C460.237 449.448 483.982 440.021 504.441 448.851Z" fill="#EBD141"/>
<path d="M699.885 235.12C700.97 236.372 700.835 238.267 699.583 239.352L630.961 298.85C629.253 300.33 626.555 299.465 625.776 297.343C624.138 292.883 621.68 288.638 618.383 284.835C603.785 267.998 578.302 266.183 561.465 280.781C544.629 295.379 542.814 320.862 557.412 337.698C560.709 341.502 564.563 344.537 568.746 346.79C570.736 347.862 571.21 350.655 569.503 352.136L500.88 411.634C499.628 412.719 497.734 412.584 496.648 411.332L437.15 342.709C435.669 341.002 432.876 341.476 431.804 343.466C429.551 347.65 426.516 351.503 422.713 354.801C405.876 369.399 380.394 367.584 365.796 350.748C351.198 333.911 353.013 308.428 369.849 293.83C373.652 290.533 377.897 288.074 382.358 286.436C384.479 285.658 385.345 282.959 383.865 281.252L324.367 212.629C323.281 211.378 323.416 209.483 324.668 208.397L523.371 36.1157C524.623 35.0303 526.517 35.1653 527.603 36.4171L699.885 235.12Z" fill="#3880D4"/>
<path d="M438.649 655.311L441.46 654.45L409.379 622.103L399.246 677.253C404.827 671.811 417.163 661.887 438.649 655.311ZM392.529 605.079L381.707 594.116L403.996 587.294L492.795 676.513L470.104 683.457L457.077 670.314L444.627 674.125C418.924 681.991 395.29 700.206 393.228 705.668L392.994 707.057L371.307 713.695L392.529 605.079Z" fill="#EFF8FB"/>
<path d="M388.996 728.909L368.047 724.442L390.733 618.054L411.682 622.521L388.996 728.909Z" fill="#EFF8FB"/>
<path d="M465.463 647.776L474.575 662.388L532.487 626.272L544.044 644.804L467.957 692.254L410.395 599.952L483.096 554.613L494.542 572.967L440.016 606.971L454.017 629.423C459.147 619.789 468.859 612.742 479.55 606.075L493.093 597.629L504.538 615.983L490.996 624.428C474.068 634.985 470.815 638.499 465.463 647.776Z" fill="#EFF8FB"/>
</svg>
