<svg width="455" height="461" viewBox="0 0 455 461" fill="none" xmlns="http://www.w3.org/2000/svg">
<path d="M430.045 157.094C438.662 181.003 426.747 207.197 403.432 215.6C397.992 217.56 392.413 218.377 386.945 218.175C384.673 218.091 382.869 220.304 383.64 222.443L419.119 320.89C419.681 322.448 418.873 324.167 417.314 324.729L321.393 359.299C319.28 360.06 318.709 362.808 320.184 364.503C323.883 368.757 326.881 373.769 328.916 379.414C337.533 403.323 325.618 429.518 302.303 437.92C278.988 446.323 253.103 433.751 244.486 409.842C242.451 404.197 241.563 398.424 241.699 392.788C241.753 390.543 239.561 388.791 237.447 389.552L141.526 424.122C139.967 424.684 138.248 423.876 137.686 422.317L102.207 323.87C101.436 321.731 103.24 319.519 105.512 319.603C110.98 319.804 116.559 318.988 121.999 317.027C145.314 308.625 157.229 282.43 148.612 258.521C139.995 234.612 114.11 222.042 90.795 230.444C85.3551 232.405 80.5374 235.335 76.4554 238.978C74.7591 240.493 71.9583 239.94 71.1873 237.801L35.7073 139.353C35.1456 137.794 35.9538 136.075 37.5125 135.514L133.434 100.944C135.548 100.182 136.118 97.4346 134.644 95.7397C130.944 91.486 127.945 86.4742 125.911 80.8287C117.294 56.9196 129.209 30.7261 152.524 22.3236C175.839 13.9211 201.724 26.4913 210.341 50.4004C212.376 56.0457 213.264 61.8184 213.128 67.4542C213.075 69.6998 215.267 71.4518 217.38 70.6902L313.301 36.1207C314.86 35.5589 316.579 36.3671 317.14 37.9258L352.62 136.373C353.391 138.512 356.192 139.065 357.889 137.551C361.971 133.908 366.788 130.977 372.228 129.017C395.543 120.614 421.428 133.185 430.045 157.094Z" fill="#3880D4"/>
<path d="M236.217 250.311L239.029 249.451L206.947 217.103L196.814 272.254C202.396 266.812 214.731 256.887 236.217 250.311ZM190.097 200.079L179.275 189.116L201.565 182.295L290.363 271.513L267.672 278.458L254.645 265.315L242.195 269.125C216.492 276.992 192.858 295.206 190.797 300.669L190.563 302.058L168.876 308.695L190.097 200.079Z" fill="#EFF8FB"/>
<path d="M186.565 323.909L165.616 319.442L188.302 213.054L209.251 217.521L186.565 323.909Z" fill="#EFF8FB"/>
<path d="M263.031 242.777L272.144 257.388L330.055 221.273L341.612 239.804L265.525 287.254L207.963 194.952L280.664 149.614L292.11 167.967L237.584 201.971L251.586 224.423C256.715 214.79 266.427 207.743 277.119 201.075L290.661 192.63L302.107 210.983L288.564 219.429C271.636 229.986 268.383 233.499 263.031 242.777Z" fill="#EFF8FB"/>
</svg>
